<?xml version="1.0" standalone="no"?>
<!DOCTYPE svg PUBLIC "-//W3C//DTD SVG 1.1//EN" "http://www.w3.org/Graphics/SVG/1.1/DTD/svg11.dtd" >
<svg xmlns="http://www.w3.org/2000/svg" xmlns:xlink="http://www.w3.org/1999/xlink" version="1.1">
<metadata>
Created by FontForge 20170731 at Wed May 29 12:52:01 2019
 By Aleksey,,,
Copyright c 2019 by FONTLAB Co.,Ltd. All rights reserved.
</metadata>
<defs>
<font id="LABDigital" horiz-adv-x="920" vert-adv-y="1000" >
  <font-face 
    font-family="LABDigital"
    font-weight="400"
    font-stretch="normal"
    units-per-em="1000"
    panose-1="2 2 6 3 2 1 1 2 1 1"
    ascent="800"
    descent="-200"
    x-height="683"
    cap-height="683"
    bbox="40 -225 1142 829"
    underline-thickness="25"
    underline-position="-236"
    unicode-range="U+0020-D7A3"
  />
<missing-glyph horiz-adv-x="1000" 
d="M100 -100v800h800v-800h-800zM150 -50h700v700h-700v-700z" />
    <glyph glyph-name=".notdef" horiz-adv-x="1000" 
d="M100 -100v800h800v-800h-800zM150 -50h700v700h-700v-700z" />
    <glyph glyph-name="glyph1" horiz-adv-x="0" vert-adv-y="0" 
 />
    <glyph glyph-name="glyph2" horiz-adv-x="1000" 
 />
    <glyph glyph-name="space" unicode=" " horiz-adv-x="312" 
 />
    <glyph glyph-name="exclam" unicode="!" horiz-adv-x="183" 
d="M72 690l61 -59v-501l-61 -60l-22 21v580zM50 -105v106l22 21l61 -60v-27l-61 -60z" />
    <glyph glyph-name="quotedbl" unicode="&#x22;" horiz-adv-x="313" 
d="M72 720l61 -59v-71l-61 -60l-22 21v150zM202 720l61 -59v-71l-61 -60l-22 21v150z" />
    <glyph glyph-name="numbersign" unicode="#" horiz-adv-x="763" 
d="M203 690l61 -59v-120l-44 -43l-39 42v161zM181 -105v186l38 46l45 -47v-145l-61 -60zM529 457l-41 -40h-210l-42 40l42 41h210zM529 140l-41 -40h-210l-42 40l42 41h210zM219 445l45 -48v-200l-43 -43l-40 43v208zM203 457l-41 -40h-70l-42 40l42 41h70zM203 140l-41 -40
h-70l-42 40l42 41h70zM583 671v-161l-39 -42l-44 43v120l61 59zM561 -125l-61 60v145l45 47l38 -46v-186zM583 405v-208l-40 -43l-43 43v200l45 48zM601 498h70l42 -41l-42 -40h-70l-41 40zM601 181h70l42 -41l-42 -40h-70l-41 40z" />
    <glyph glyph-name="dollar" unicode="$" horiz-adv-x="518" 
d="M73 615l61 -59v-181l-61 -61l-22 22v260zM408 -53h-106v-20l-61 -60l-22 20v60h-148l-21 19l64 60h105v219l20 20h-97l-42 40l42 41h97l-20 20v206h-65l-64 60l21 19h108v63l22 19l61 -59v-23h136l20 -19l-63 -60h-93v-167l-60 -59h136l41 -41l-41 -40h-136l60 -59v-180
h63l63 -60zM446 -17l-61 59v193l61 62l22 -22v-273z" />
    <glyph glyph-name="percent" unicode="%" horiz-adv-x="771" 
d="M561 674l23 -82l-132 -267l-83 -21l-9 29l172 336zM152 -52l181 324l29 7l23 -83l-141 -255l-83 -21zM184 361h-5q-27 0 -50.5 10t-40.5 28q-18 17 -28 40.5t-10 50.5v26q0 27 10 50.5t28 41.5q17 17 40.5 27.5t50.5 10.5h5v-75h-5q-23 0 -38.5 -16t-15.5 -39v-26
q0 -23 15.5 -38.5t38.5 -15.5h5v-75zM212 361h-5v75h5q23 0 38.5 15.5t15.5 38.5v26q0 23 -15.5 39t-38.5 16h-5v75h5q27 0 50.5 -10.5t41.5 -27.5q17 -18 27 -41.5t10 -50.5v-26q0 -27 -10 -50.5t-27 -40.5q-18 -18 -41.5 -28t-50.5 -10zM564 -49h-5q-27 0 -50.5 10
t-40.5 27q-18 18 -28 41.5t-10 50.5v26q0 27 10 50.5t28 41.5q17 17 40.5 27.5t50.5 10.5h5v-75h-5q-23 0 -38.5 -16t-15.5 -39v-26q0 -23 15.5 -38.5t38.5 -15.5h5v-75zM592 -49h-5v75h5q23 0 38.5 15.5t15.5 38.5v26q0 23 -15.5 39t-38.5 16h-5v75h5q27 0 50.5 -10.5
t41.5 -27.5q17 -18 27 -41.5t10 -50.5v-26q0 -27 -10 -50.5t-27 -41.5q-18 -17 -41.5 -27t-50.5 -10z" />
    <glyph glyph-name="ampersand" unicode="&#x26;" horiz-adv-x="648" 
d="M357 654l-63 -60h-101l-64 60l21 19h187zM112 637l61 -59v-98l-61 -61l-22 22v177zM397 618v-177l-22 -22l-61 61v98l61 59zM337 381h-187l-21 19l64 60h101l63 -60zM397 323l-63 -60h-181l-64 60l21 19h267zM72 306l61 -59v-58l-61 -61l-22 22v137zM437 287v-137
l-22 -22l-61 61v58l61 59zM377 -91h-267l-21 19l64 60h181l63 -60zM50 -36v135l22 22l61 -62v-55l-61 -59zM415 -55l-61 59v55l61 62l22 -22v-135zM598 125l-41 -40h-79l-42 40l42 41h79zM312 241l30 -77l-107 -143h-71l-8 29l133 182z" />
    <glyph glyph-name="quotesingle" unicode="'" horiz-adv-x="183" 
d="M72 720l61 -59v-71l-61 -60l-22 21v150z" />
    <glyph glyph-name="parenleft" unicode="(" horiz-adv-x="324" 
d="M251 674l23 -76q-33 -25 -56 -56.5t-39 -66.5q-16 -36 -26 -74t-17 -76l-77 -21l-9 29q6 45 17.5 88.5t31.5 85.5t50 82.5t73 79.5zM222 -81q-43 39 -73 79.5t-50 82.5t-31.5 85.5t-17.5 88.5l9 29l77 -21q7 -38 17 -76t26 -73t39 -66.5t56 -56.5l-23 -77z" />
    <glyph glyph-name="parenright" unicode=")" horiz-adv-x="324" 
d="M102 669q85 -77 123 -162t49 -174l-9 -29l-77 21q-7 38 -17 76t-26 74q-16 35 -39 66.5t-56 56.5l23 76zM73 -86l-23 77q33 25 56 56.5t39 66.5t26 73t17 76l77 21l9 -29q-11 -89 -49 -174t-123 -162z" />
    <glyph glyph-name="asterisk" unicode="*" horiz-adv-x="427" 
d="M377 170l-57 1l-91 91l-2 58l59 -1l91 -91v-58zM200 348h-57l-92 92l-1 58l59 -1l91 -91v-58zM50 228l91 91l59 1l-2 -58l-91 -91l-57 -1v58zM227 406l91 91l59 1l-1 -58l-92 -92h-57v58z" />
    <glyph glyph-name="plus" unicode="+" horiz-adv-x="563" 
d="M263 576l61 -59v-133l-41 -41l-42 42v172zM241 114v170l42 42l41 -41v-131l-61 -60zM513 334l-41 -40h-129l-42 40l42 41h129zM262 334l-41 -40h-129l-42 40l42 41h129z" />
    <glyph glyph-name="comma" unicode="," horiz-adv-x="183" 
d="M72 20l61 -59v-71l-61 -60l-22 21v150z" />
    <glyph glyph-name="hyphen" unicode="-" horiz-adv-x="538" 
d="M488 354l-43 -60h-351l-44 60l21 19h397z" />
    <glyph glyph-name="period" unicode="." horiz-adv-x="183" 
d="M72 -59h61v-111h-61l-22 21v71z" />
    <glyph glyph-name="slash" unicode="/" horiz-adv-x="532" 
d="M459 674l23 -82l-132 -267l-83 -21l-9 29l172 336zM50 -52l181 324l29 7l23 -83l-141 -255l-83 -21z" />
    <glyph glyph-name="zero" unicode="0" horiz-adv-x="537" 
d="M447 664l-63 -60h-231l-64 60l21 19h317zM72 647l61 -59v-221l-61 -61l-22 22v300zM487 628v-300l-22 -22l-61 61v221l61 59zM427 -91h-317l-21 19l64 60h231l63 -60zM50 -36v303l22 22l61 -62v-223l-61 -59zM465 -55l-61 59v223l61 62l22 -22v-303zM328 477l33 -76
l-104 -209l-78 -31l-8 29l134 278z" />
    <glyph glyph-name="one" unicode="1" horiz-adv-x="336" 
d="M175 564v-86l-60 -57h-65v45l101 98h24zM286 656v-328l-22 -22l-61 61v249l61 59zM264 -81l-61 59v249l61 62l22 -22v-329z" />
    <glyph glyph-name="two" unicode="2" horiz-adv-x="528" 
d="M477 628v-300l-22 -22l-61 61v221l61 59zM458 -91h-348l-21 19l64 60h262l63 -60zM50 -36v303l22 22l61 -62v-223l-61 -59zM437 664l-63 -60h-250l-64 60l21 19h336zM428 297l-41 -40h-246l-42 40l42 41h246z" />
    <glyph glyph-name="three" unicode="3" horiz-adv-x="515" 
d="M465 628v-300l-22 -22l-61 61v221l61 59zM405 -91h-334l-21 19l64 60h248l63 -60zM443 -55l-61 59v223l61 62l22 -22v-303zM425 664l-63 -60h-238l-64 60l21 19h324zM416 297l-41 -40h-246l-42 40l42 41h246z" />
    <glyph glyph-name="four" unicode="4" horiz-adv-x="537" 
d="M72 664l61 -59v-238l-61 -61l-22 22v317zM487 655v-327l-22 -22l-61 61v248l61 59zM465 -81l-61 59v249l61 62l22 -22v-329zM438 297l-41 -40h-256l-42 40l42 41h256z" />
    <glyph glyph-name="five" unicode="5" horiz-adv-x="538" 
d="M73 647l61 -59v-221l-61 -61l-22 22v300zM50 -72l63 60h272l64 -60l-21 -19h-358zM466 -55l-61 59v223l61 62l22 -22v-303zM111 683h346l21 -19l-64 -60h-260l-63 60zM141 338h256l42 -41l-42 -40h-256l-41 40z" />
    <glyph glyph-name="six" unicode="6" horiz-adv-x="537" 
d="M72 647l61 -59v-221l-61 -61l-22 22v300zM427 -91h-317l-21 19l64 60h231l63 -60zM50 -36v303l22 22l61 -62v-223l-61 -59zM465 -55l-61 59v223l61 62l22 -22v-303zM471 664l-63 -60h-255l-64 60l21 19h341zM438 297l-41 -40h-256l-42 40l42 41h256z" />
    <glyph glyph-name="seven" unicode="7" horiz-adv-x="520" 
d="M470 628v-300l-22 -22l-61 61v221l61 59zM448 -81l-61 59v249l61 62l22 -22v-329zM430 664l-63 -60h-253l-64 60l21 19h339z" />
    <glyph glyph-name="eight" unicode="8" horiz-adv-x="537" 
d="M72 647l61 -59v-221l-61 -61l-22 22v300zM487 628v-300l-22 -22l-61 61v221l61 59zM427 -91h-317l-21 19l64 60h231l63 -60zM50 -36v303l22 22l61 -62v-223l-61 -59zM465 -55l-61 59v223l61 62l22 -22v-303zM447 664l-63 -60h-231l-64 60l21 19h317zM438 297l-41 -40
h-256l-42 40l42 41h256z" />
    <glyph glyph-name="nine" unicode="9" horiz-adv-x="537" 
d="M72 647l61 -59v-221l-61 -61l-22 22v300zM487 628v-300l-22 -22l-61 61v221l61 59zM427 -91h-345l-21 19l64 60h259l63 -60zM465 -55l-61 59v223l61 62l22 -22v-303zM447 664l-63 -60h-231l-64 60l21 19h317zM438 297l-41 -40h-256l-42 40l42 41h256z" />
    <glyph glyph-name="colon" unicode=":" horiz-adv-x="183" 
d="M72 582h61v-111h-61l-22 21v71zM72 132h61v-111h-61l-22 21v71z" />
    <glyph glyph-name="semicolon" unicode=";" horiz-adv-x="183" 
d="M72 159l61 -59v-71l-61 -60l-22 21v150zM72 582h61v-111h-61l-22 21v71z" />
    <glyph glyph-name="less" unicode="&#x3c;" horiz-adv-x="324" 
d="M251 674l23 -82l-132 -267l-83 -21l-9 29l172 336zM222 -81l-172 336l9 29l83 -21l132 -267l-23 -82z" />
    <glyph glyph-name="equal" unicode="=" horiz-adv-x="538" 
d="M488 444l-43 -60h-351l-44 60l21 19h397zM468 200h-397l-21 19l44 60h351l43 -60z" />
    <glyph glyph-name="greater" unicode="&#x3e;" horiz-adv-x="324" 
d="M102 669l172 -336l-9 -29l-83 21l-132 267l23 82zM73 -86l-23 82l132 267l83 21l9 -29l-172 -336z" />
    <glyph glyph-name="question" unicode="?" horiz-adv-x="518" 
d="M468 628v-280l-22 -22l-61 61v201l61 59zM181 71v216l22 22l61 -62v-136l-61 -59zM428 664l-63 -60h-251l-64 60l21 19h337zM419 317l-41 -40h-106l-42 40l42 41h106zM181 -105v106l22 21l61 -60v-27l-61 -60z" />
    <glyph glyph-name="at" unicode="@" horiz-adv-x="707" 
d="M72 647l61 -59v-221l-61 -61l-22 22v300zM657 628v-300l-22 -22l-61 61v221l61 59zM597 -91h-487l-21 19l64 60h401l63 -60zM50 -36v303l22 22l61 -62v-223l-61 -59zM635 -55l-61 59v223l61 62l22 -22v-303zM617 664l-63 -60h-401l-64 60l21 19h487zM218 535l46 -45v-149
l-46 -46l-17 17v208zM504 520v-208l-17 -17l-46 46v149l46 45zM201 38v227l17 17l46 -47v-167l-46 -45zM487 23l-46 45v167l46 47l17 -17v-227zM473 548l-48 -46h-146l-48 46l16 14h211zM466 288l-31 -30h-165l-32 30l32 31h165z" />
    <glyph glyph-name="A" unicode="A" horiz-adv-x="537" 
d="M72 647l61 -59v-221l-61 -61l-22 22v300zM487 628v-300l-22 -22l-61 61v221l61 59zM50 -84v351l22 22l61 -62v-271l-61 -59zM465 -103l-61 59v271l61 62l22 -22v-351zM447 664l-63 -60h-231l-64 60l21 19h317zM438 297l-41 -40h-256l-42 40l42 41h256z" />
    <glyph glyph-name="B" unicode="B" horiz-adv-x="537" 
d="M133 588v-221l-61 -61l-22 22v337zM487 628v-300l-22 -22l-61 61v221l61 59zM427 -91h-357l83 79h231l63 -60zM50 -71v338l22 22l61 -62v-223zM465 -55l-61 59v223l61 62l22 -22v-303zM447 664l-63 -60h-231l-84 79h358zM438 297l-41 -40h-256l-42 40l42 41h256z" />
    <glyph glyph-name="C" unicode="C" horiz-adv-x="537" 
d="M133 588v-221l-61 -61l-22 22v337zM467 -91h-397l83 79h271l63 -60zM50 -71v338l22 22l61 -62v-223zM477 664l-63 -60h-261l-84 79h388z" />
    <glyph glyph-name="D" unicode="D" horiz-adv-x="537" 
d="M133 588v-221l-61 -61l-22 22v337zM487 628v-300l-22 -22l-61 61v221l61 59zM427 -91h-357l83 79h231l63 -60zM50 -71v338l22 22l61 -62v-223zM465 -55l-61 59v223l61 62l22 -22v-303zM447 664l-63 -60h-231l-84 79h358z" />
    <glyph glyph-name="E" unicode="E" horiz-adv-x="535" 
d="M133 588v-221l-61 -61l-22 22v337zM465 -91h-395l83 79h269l63 -60zM50 -71v338l22 22l61 -62v-223zM485 664l-63 -60h-269l-84 79h396zM438 297l-41 -40h-256l-42 40l42 41h256z" />
    <glyph glyph-name="F" unicode="F" horiz-adv-x="535" 
d="M133 588v-221l-61 -61l-22 22v337zM50 -91v358l22 22l61 -62v-243zM485 664l-63 -60h-269l-84 79h396zM438 297l-41 -40h-256l-42 40l42 41h256z" />
    <glyph glyph-name="G" unicode="G" horiz-adv-x="537" 
d="M72 647l61 -59v-221l-61 -61l-22 22v300zM427 -91h-317l-21 19l64 60h231l63 -60zM50 -36v303l22 22l61 -62v-223l-61 -59zM465 -55l-61 59v223l61 62l22 -22v-303zM477 664l-63 -60h-261l-64 60l21 19h347zM438 297l-41 -40h-117l-42 40l42 41h117z" />
    <glyph glyph-name="H" unicode="H" horiz-adv-x="547" 
d="M72 683l61 -59v-247l-61 -61l-22 22v326zM497 664v-326l-22 -22l-61 61v247l61 59zM50 -72v349l22 22l61 -62v-269l-61 -59zM475 -91l-61 59v269l61 62l22 -22v-349zM448 307l-41 -40h-266l-42 40l42 41h266z" />
    <glyph glyph-name="I" unicode="I" horiz-adv-x="183" 
d="M72 683l61 -59v-255l-61 -60l-22 21v334zM50 -71v341l22 21l61 -60v-262l-61 -60z" />
    <glyph glyph-name="J" unicode="J" horiz-adv-x="447" 
d="M397 665v-337l-22 -22l-61 61v258l61 59zM90 -72l63 60h141l64 -60l-21 -19h-227zM375 -55l-61 59v223l61 62l22 -22v-303zM50 -36v213l22 22l61 -62v-133l-61 -59z" />
    <glyph glyph-name="K" unicode="K" horiz-adv-x="537" 
d="M72 683l61 -59v-257l-61 -61l-22 22v336zM50 -72v339l22 22l61 -62v-259l-61 -59zM465 -91l-61 59v259l61 62l22 -22v-339zM438 297l-41 -40h-256l-42 40l42 41h256zM479 653l-193 -267l-24 -16h-95l214 293l79 20z" />
    <glyph glyph-name="L" unicode="L" horiz-adv-x="527" 
d="M72 683l61 -59v-257l-61 -61l-22 22v336zM457 -91h-347l-21 19l64 60h261l63 -60zM50 -36v303l22 22l61 -62v-223l-61 -59z" />
    <glyph glyph-name="M" unicode="M" horiz-adv-x="590" 
d="M540 664v-336l-22 -22l-61 61v257l61 59zM72 683l61 -59v-257l-61 -61l-22 22v336zM518 -91l-61 59v259l61 62l22 -22v-339zM50 -72v339l22 22l61 -62v-259l-61 -59zM218 674l70 -356l-8 -36l-78 21l-52 313l45 67zM396 683l45 -67l-52 -313l-78 -21l-8 36l70 356z" />
    <glyph glyph-name="N" unicode="N" horiz-adv-x="557" 
d="M507 664v-336l-22 -22l-61 61v257l61 59zM72 683l61 -59v-257l-61 -61l-22 22v336zM485 -91l-61 59v259l61 62l22 -22v-339zM50 -72v339l22 22l61 -62v-259l-61 -59zM227 615l163 -610l-8 -36l-78 21l-143 548l43 86z" />
    <glyph glyph-name="O" unicode="O" horiz-adv-x="537" 
d="M447 664l-63 -60h-231l-64 60l21 19h317zM72 647l61 -59v-221l-61 -61l-22 22v300zM487 628v-300l-22 -22l-61 61v221l61 59zM427 -91h-317l-21 19l64 60h231l63 -60zM50 -36v303l22 22l61 -62v-223l-61 -59zM465 -55l-61 59v223l61 62l22 -22v-303z" />
    <glyph glyph-name="P" unicode="P" horiz-adv-x="537" 
d="M72 647l61 -59v-221l-61 -61l-22 22v300zM487 628v-300l-22 -22l-61 61v221l61 59zM50 -72v339l22 22l61 -62v-259l-61 -59zM447 664l-63 -60h-231l-64 60l21 19h317zM438 297l-41 -40h-256l-42 40l42 41h256z" />
    <glyph glyph-name="Q" unicode="Q" horiz-adv-x="537" 
d="M72 647l61 -59v-221l-61 -61l-22 22v300zM487 628v-300l-22 -22l-61 61v221l61 59zM217 -91h-107l-21 19l64 60h64l41 -37zM50 -36v303l22 22l61 -62v-223l-61 -59zM465 -55l-61 59v223l61 62l22 -22v-303zM447 664l-63 -60h-231l-64 60l21 19h317zM232 -100l41 41
l42 -41v-51l-42 -37l-41 37v51zM232 159l41 37l42 -37v-160l-42 -37l-41 37v160zM289 -49l41 37h57l64 -60l-21 -19h-100z" />
    <glyph glyph-name="R" unicode="R" horiz-adv-x="547" 
d="M72 647l61 -59v-221l-61 -61l-22 22v300zM487 628v-300l-22 -22l-61 61v221l61 59zM50 -72v339l22 22l61 -62v-259l-61 -59zM447 664l-63 -60h-231l-64 60l21 19h317zM438 297l-41 -40h-256l-42 40l42 41h256zM488 -90l-83 21l-163 277l56 26l29 -11l170 -285z" />
    <glyph glyph-name="S" unicode="S" horiz-adv-x="518" 
d="M73 647l61 -59v-221l-61 -61l-22 22v300zM408 -91h-337l-21 19l64 60h251l63 -60zM446 -55l-61 59v223l61 62l22 -22v-303zM458 664l-63 -60h-241l-64 60l21 19h327zM419 297l-41 -40h-236l-42 40l42 41h236z" />
    <glyph glyph-name="T" unicode="T" horiz-adv-x="597" 
d="M350 683h176l21 -19l-64 -60h-133l-41 37zM335 -54l-41 -37l-42 37v647l42 37l41 -37v-647zM278 641l-41 -37h-123l-64 60l21 19h166z" />
    <glyph glyph-name="U" unicode="U" horiz-adv-x="537" 
d="M72 683l61 -59v-237l-61 -61l-22 22v316zM487 664v-316l-22 -22l-61 61v237l61 59zM427 -91h-317l-21 19l64 60h231l63 -60zM50 -36v323l22 22l61 -62v-243l-61 -59zM465 -55l-61 59v243l61 62l22 -22v-323z" />
    <glyph glyph-name="V" unicode="V" horiz-adv-x="612" 
d="M68 683l73 -43l53 -257l-45 -73l-27 15l-72 334zM220 -59l-76 321l16 25l74 -45l74 -311l-24 -22zM562 659l-72 -334l-27 -15l-45 73l53 257l73 43zM346 -91l-24 22l74 311l74 45l16 -25l-76 -321z" />
    <glyph glyph-name="W" unicode="W" horiz-adv-x="736" 
d="M68 683l68 -43l27 -242l-44 -71l-27 15l-42 317zM134 -39l-27 315l16 25l67 -45l22 -315l-14 -32zM368 523l-24 -181l-27 -15l-44 71l27 242l68 43l68 -43l27 -242l-44 -71l-27 15zM238 -91l-14 32l22 315l67 45l16 -25l-27 -315zM434 -39l-27 315l16 25l67 -45l22 -315
l-14 -32zM686 659l-42 -317l-27 -15l-44 71l27 242l68 43zM538 -91l-14 32l22 315l67 45l16 -25l-27 -315z" />
    <glyph glyph-name="X" unicode="X" horiz-adv-x="599" 
d="M68 683l69 -17l46 -100l-35 -65l-31 15l-67 143zM204 341l-61 122l12 25l68 -6l66 -119l-23 -34zM549 659l-67 -143l-31 -15l-35 65l46 100l69 17zM333 329l-23 34l66 119l68 6l12 -25l-61 -122zM50 -64l67 163l31 15l35 -65l-46 -120l-69 -17zM266 306l23 -34l-66 -139
l-68 -6l-12 25l61 142zM531 -88l-69 17l-46 120l35 65l31 -15l67 -163zM395 294l61 -142l-12 -25l-68 6l-66 139l23 34z" />
    <glyph glyph-name="Y" unicode="Y" horiz-adv-x="599" 
d="M68 683l69 -17l46 -100l-35 -65l-31 15l-67 143zM204 341l-61 122l12 25l68 -6l65 -117l-47 -42zM549 659l-67 -143l-31 -15l-35 65l46 100l69 17zM341 -54l-41 -37l-42 37v359l42 37l41 -37v-359zM358 323l-47 42l65 117l68 6l12 -25l-61 -122z" />
    <glyph glyph-name="Z" unicode="Z" horiz-adv-x="505" 
d="M423 662l27 -70l-120 -260l-83 -21l-9 29l156 321zM362 664l-31 -60h-217l-64 60l21 19h270zM82 -70l-27 70l120 260l83 21l9 -29l-156 -321zM143 -72l31 60h217l64 -60l-21 -19h-270z" />
    <glyph glyph-name="bracketleft" unicode="[" horiz-adv-x="297" 
d="M72 647l61 -59v-221l-61 -61l-22 22v300zM227 -91h-117l-21 19l64 60h31l63 -60zM50 -36v303l22 22l61 -62v-223l-61 -59zM247 664l-63 -60h-31l-64 60l21 19h117z" />
    <glyph glyph-name="backslash" unicode="\" horiz-adv-x="532" 
d="M102 669l172 -336l-9 -29l-83 21l-132 267l23 82zM473 -80l-83 21l-141 255l23 83l29 -7l181 -324z" />
    <glyph glyph-name="bracketright" unicode="]" horiz-adv-x="297" 
d="M247 628v-300l-22 -22l-61 61v221l61 59zM50 -72l63 60h31l64 -60l-21 -19h-117zM225 -55l-61 59v223l61 62l22 -22v-303zM70 683h117l21 -19l-64 -60h-31l-63 60z" />
    <glyph glyph-name="asciicircum" unicode="^" horiz-adv-x="427" 
d="M377 533l-57 1l-91 91l-2 58l59 -1l91 -91v-58zM50 591l91 91l59 1l-2 -58l-91 -91l-57 -1v58z" />
    <glyph glyph-name="underscore" unicode="_" horiz-adv-x="538" 
d="M488 -46l-43 -60h-351l-44 60l21 19h397z" />
    <glyph glyph-name="grave" unicode="`" horiz-adv-x="183" 
d="M72 720l61 -59v-71l-61 -60l-22 21v150z" />
    <glyph glyph-name="a" unicode="a" horiz-adv-x="537" 
d="M72 647l61 -59v-221l-61 -61l-22 22v300zM487 628v-300l-22 -22l-61 61v221l61 59zM50 -84v351l22 22l61 -62v-271l-61 -59zM465 -103l-61 59v271l61 62l22 -22v-351zM447 664l-63 -60h-231l-64 60l21 19h317zM438 297l-41 -40h-256l-42 40l42 41h256z" />
    <glyph glyph-name="b" unicode="b" horiz-adv-x="537" 
d="M133 588v-221l-61 -61l-22 22v337zM487 628v-300l-22 -22l-61 61v221l61 59zM427 -91h-357l83 79h231l63 -60zM50 -71v338l22 22l61 -62v-223zM465 -55l-61 59v223l61 62l22 -22v-303zM447 664l-63 -60h-231l-84 79h358zM438 297l-41 -40h-256l-42 40l42 41h256z" />
    <glyph glyph-name="c" unicode="c" horiz-adv-x="537" 
d="M133 588v-221l-61 -61l-22 22v337zM467 -91h-397l83 79h271l63 -60zM50 -71v338l22 22l61 -62v-223zM477 664l-63 -60h-261l-84 79h388z" />
    <glyph glyph-name="d" unicode="d" horiz-adv-x="537" 
d="M133 588v-221l-61 -61l-22 22v337zM487 628v-300l-22 -22l-61 61v221l61 59zM427 -91h-357l83 79h231l63 -60zM50 -71v338l22 22l61 -62v-223zM465 -55l-61 59v223l61 62l22 -22v-303zM447 664l-63 -60h-231l-84 79h358z" />
    <glyph glyph-name="e" unicode="e" horiz-adv-x="535" 
d="M133 588v-221l-61 -61l-22 22v337zM465 -91h-395l83 79h269l63 -60zM50 -71v338l22 22l61 -62v-223zM485 664l-63 -60h-269l-84 79h396zM438 297l-41 -40h-256l-42 40l42 41h256z" />
    <glyph glyph-name="f" unicode="f" horiz-adv-x="535" 
d="M133 588v-221l-61 -61l-22 22v337zM50 -91v358l22 22l61 -62v-243zM485 664l-63 -60h-269l-84 79h396zM438 297l-41 -40h-256l-42 40l42 41h256z" />
    <glyph glyph-name="g" unicode="g" horiz-adv-x="537" 
d="M72 647l61 -59v-221l-61 -61l-22 22v300zM427 -91h-317l-21 19l64 60h231l63 -60zM50 -36v303l22 22l61 -62v-223l-61 -59zM465 -55l-61 59v223l61 62l22 -22v-303zM477 664l-63 -60h-261l-64 60l21 19h347zM438 297l-41 -40h-117l-42 40l42 41h117z" />
    <glyph glyph-name="h" unicode="h" horiz-adv-x="547" 
d="M72 683l61 -59v-247l-61 -61l-22 22v326zM497 664v-326l-22 -22l-61 61v247l61 59zM50 -72v349l22 22l61 -62v-269l-61 -59zM475 -91l-61 59v269l61 62l22 -22v-349zM448 307l-41 -40h-266l-42 40l42 41h266z" />
    <glyph glyph-name="i" unicode="i" horiz-adv-x="183" 
d="M72 683l61 -59v-255l-61 -60l-22 21v334zM50 -71v341l22 21l61 -60v-262l-61 -60z" />
    <glyph glyph-name="j" unicode="j" horiz-adv-x="447" 
d="M397 665v-337l-22 -22l-61 61v258l61 59zM90 -72l63 60h141l64 -60l-21 -19h-227zM375 -55l-61 59v223l61 62l22 -22v-303zM50 -36v213l22 22l61 -62v-133l-61 -59z" />
    <glyph glyph-name="k" unicode="k" horiz-adv-x="537" 
d="M72 683l61 -59v-257l-61 -61l-22 22v336zM50 -72v339l22 22l61 -62v-259l-61 -59zM465 -91l-61 59v259l61 62l22 -22v-339zM438 297l-41 -40h-256l-42 40l42 41h256zM479 653l-193 -267l-24 -16h-95l214 293l79 20z" />
    <glyph glyph-name="l" unicode="l" horiz-adv-x="527" 
d="M72 683l61 -59v-257l-61 -61l-22 22v336zM457 -91h-347l-21 19l64 60h261l63 -60zM50 -36v303l22 22l61 -62v-223l-61 -59z" />
    <glyph glyph-name="m" unicode="m" horiz-adv-x="590" 
d="M540 664v-336l-22 -22l-61 61v257l61 59zM72 683l61 -59v-257l-61 -61l-22 22v336zM518 -91l-61 59v259l61 62l22 -22v-339zM50 -72v339l22 22l61 -62v-259l-61 -59zM218 674l70 -356l-8 -36l-78 21l-52 313l45 67zM396 683l45 -67l-52 -313l-78 -21l-8 36l70 356z" />
    <glyph glyph-name="n" unicode="n" horiz-adv-x="557" 
d="M507 664v-336l-22 -22l-61 61v257l61 59zM72 683l61 -59v-257l-61 -61l-22 22v336zM485 -91l-61 59v259l61 62l22 -22v-339zM50 -72v339l22 22l61 -62v-259l-61 -59zM227 615l163 -610l-8 -36l-78 21l-143 548l43 86z" />
    <glyph glyph-name="o" unicode="o" horiz-adv-x="537" 
d="M447 664l-63 -60h-231l-64 60l21 19h317zM72 647l61 -59v-221l-61 -61l-22 22v300zM487 628v-300l-22 -22l-61 61v221l61 59zM427 -91h-317l-21 19l64 60h231l63 -60zM50 -36v303l22 22l61 -62v-223l-61 -59zM465 -55l-61 59v223l61 62l22 -22v-303z" />
    <glyph glyph-name="p" unicode="p" horiz-adv-x="537" 
d="M72 647l61 -59v-221l-61 -61l-22 22v300zM487 628v-300l-22 -22l-61 61v221l61 59zM50 -72v339l22 22l61 -62v-259l-61 -59zM447 664l-63 -60h-231l-64 60l21 19h317zM438 297l-41 -40h-256l-42 40l42 41h256z" />
    <glyph glyph-name="q" unicode="q" horiz-adv-x="537" 
d="M72 647l61 -59v-221l-61 -61l-22 22v300zM487 628v-300l-22 -22l-61 61v221l61 59zM217 -91h-107l-21 19l64 60h64l41 -37zM50 -36v303l22 22l61 -62v-223l-61 -59zM465 -55l-61 59v223l61 62l22 -22v-303zM447 664l-63 -60h-231l-64 60l21 19h317zM232 -100l41 41
l42 -41v-51l-42 -37l-41 37v51zM232 159l41 37l42 -37v-160l-42 -37l-41 37v160zM289 -49l41 37h57l64 -60l-21 -19h-100z" />
    <glyph glyph-name="r" unicode="r" horiz-adv-x="547" 
d="M72 647l61 -59v-221l-61 -61l-22 22v300zM487 628v-300l-22 -22l-61 61v221l61 59zM50 -72v339l22 22l61 -62v-259l-61 -59zM447 664l-63 -60h-231l-64 60l21 19h317zM438 297l-41 -40h-256l-42 40l42 41h256zM488 -90l-83 21l-163 277l56 26l29 -11l170 -285z" />
    <glyph glyph-name="s" unicode="s" horiz-adv-x="518" 
d="M73 647l61 -59v-221l-61 -61l-22 22v300zM408 -91h-337l-21 19l64 60h251l63 -60zM446 -55l-61 59v223l61 62l22 -22v-303zM458 664l-63 -60h-241l-64 60l21 19h327zM419 297l-41 -40h-236l-42 40l42 41h236z" />
    <glyph glyph-name="t" unicode="t" horiz-adv-x="597" 
d="M350 683h176l21 -19l-64 -60h-133l-41 37zM335 -54l-41 -37l-42 37v647l42 37l41 -37v-647zM278 641l-41 -37h-123l-64 60l21 19h166z" />
    <glyph glyph-name="u" unicode="u" horiz-adv-x="537" 
d="M72 683l61 -59v-237l-61 -61l-22 22v316zM487 664v-316l-22 -22l-61 61v237l61 59zM427 -91h-317l-21 19l64 60h231l63 -60zM50 -36v323l22 22l61 -62v-243l-61 -59zM465 -55l-61 59v243l61 62l22 -22v-323z" />
    <glyph glyph-name="v" unicode="v" horiz-adv-x="612" 
d="M68 683l73 -43l53 -257l-45 -73l-27 15l-72 334zM220 -59l-76 321l16 25l74 -45l74 -311l-24 -22zM562 659l-72 -334l-27 -15l-45 73l53 257l73 43zM346 -91l-24 22l74 311l74 45l16 -25l-76 -321z" />
    <glyph glyph-name="w" unicode="w" horiz-adv-x="736" 
d="M68 683l68 -43l27 -242l-44 -71l-27 15l-42 317zM134 -39l-27 315l16 25l67 -45l22 -315l-14 -32zM368 523l-24 -181l-27 -15l-44 71l27 242l68 43l68 -43l27 -242l-44 -71l-27 15zM238 -91l-14 32l22 315l67 45l16 -25l-27 -315zM434 -39l-27 315l16 25l67 -45l22 -315
l-14 -32zM686 659l-42 -317l-27 -15l-44 71l27 242l68 43zM538 -91l-14 32l22 315l67 45l16 -25l-27 -315z" />
    <glyph glyph-name="x" unicode="x" horiz-adv-x="599" 
d="M68 683l69 -17l46 -100l-35 -65l-31 15l-67 143zM204 341l-61 122l12 25l68 -6l66 -119l-23 -34zM549 659l-67 -143l-31 -15l-35 65l46 100l69 17zM333 329l-23 34l66 119l68 6l12 -25l-61 -122zM50 -64l67 163l31 15l35 -65l-46 -120l-69 -17zM266 306l23 -34l-66 -139
l-68 -6l-12 25l61 142zM531 -88l-69 17l-46 120l35 65l31 -15l67 -163zM395 294l61 -142l-12 -25l-68 6l-66 139l23 34z" />
    <glyph glyph-name="y" unicode="y" horiz-adv-x="599" 
d="M68 683l69 -17l46 -100l-35 -65l-31 15l-67 143zM204 341l-61 122l12 25l68 -6l65 -117l-47 -42zM549 659l-67 -143l-31 -15l-35 65l46 100l69 17zM341 -54l-41 -37l-42 37v359l42 37l41 -37v-359zM358 323l-47 42l65 117l68 6l12 -25l-61 -122z" />
    <glyph glyph-name="z" unicode="z" horiz-adv-x="505" 
d="M423 662l27 -70l-120 -260l-83 -21l-9 29l156 321zM362 664l-31 -60h-217l-64 60l21 19h270zM82 -70l-27 70l120 260l83 21l9 -29l-156 -321zM143 -72l31 60h217l64 -60l-21 -19h-270z" />
    <glyph glyph-name="braceleft" unicode="{" horiz-adv-x="392" 
d="M322 -91h-117l-21 19l64 60h31l63 -60zM145 -36v267l59 55l24 -23v-259l-61 -59zM342 664l-63 -60h-31l-64 60l21 19h117zM182 296l-41 -40h-49l-42 40l42 41h49zM167 647l61 -59v-259l-25 -23l-58 55v267z" />
    <glyph glyph-name="bar" unicode="|" horiz-adv-x="183" 
d="M72 690l61 -59v-262l-61 -60l-22 21v341zM50 -105v375l22 21l61 -60v-296l-61 -60z" />
    <glyph glyph-name="braceright" unicode="}" horiz-adv-x="392" 
d="M50 -72l63 60h31l64 -60l-21 -19h-117zM225 -55l-61 59v259l24 23l59 -55v-267zM70 683h117l21 -19l-64 -60h-31l-63 60zM251 337h49l42 -41l-42 -40h-49l-41 40zM247 628v-267l-58 -55l-25 23v259l61 59z" />
    <glyph glyph-name="asciitilde" unicode="~" horiz-adv-x="592" 
d="M369 258l-57 1l-91 91l-2 58l59 -1l91 -91v-58zM50 316l91 91l59 1l-2 -58l-91 -91l-57 -1v58zM392 316l91 91l59 1l-2 -58l-91 -91l-57 -1v58z" />
    <glyph glyph-name="uni007F" horiz-adv-x="312" 
 />
    <glyph glyph-name="uni00A0" unicode="&#xa0;" horiz-adv-x="312" 
 />
    <glyph glyph-name="exclamdown" unicode="&#xa1;" horiz-adv-x="212" 
d="M50 -106v580l22 21l61 -60v-501l-61 -59zM72 690l61 -60v-27l-61 -60l-22 21v106z" />
    <glyph glyph-name="currency" unicode="&#xa4;" horiz-adv-x="805" 
d="M403 539q-49 0 -91 -20t-73 -53q-31 -34 -49 -78.5t-18 -92.5q0 -47 17 -91t48 -78t73 -54t93 -20q48 0 90 19.5t74 52.5q31 33 49 77t18 94q0 39 -15.5 82t-45.5 79t-73 59.5t-97 23.5zM105 -75l-55 59l108 112q-30 40 -48 89.5t-18 109.5q0 52 14.5 104.5t50.5 96.5
q-29 26 -57.5 57.5t-49.5 55.5l55 59l108 -114q81 67 190 67q106 0 189 -66q12 11 25 26t30 32l53 55l55 -59l-106 -112q34 -45 49 -95t15 -107q0 -63 -17 -112t-47 -89q17 -20 39.5 -43.5t41.5 -40.5l25 -26l-55 -59l-105 110q-83 -66 -192 -66q-110 0 -193 68z" />
    <glyph glyph-name="section" unicode="&#xa7;" horiz-adv-x="394" 
d="M192 702q73 0 110 -55q4 -8 8 -15.5t7 -13.5q6 -17 6 -25q0 -14 -6 -21q-3 -6 -7 -10.5t-8 -7.5q-22 -13 -33 -13q-16 0 -21 8q-11 6 -17 22q-11 13 -12 30q-2 7 -2.5 14t-0.5 15q0 5 -30 5q-18 0 -24 -13q-8 -18 -8 -40q-2 -39 22 -74q23 -38 68 -73q50 -47 78 -94
q12 -26 17.5 -52t3.5 -53q-6 -32 -20 -50q-18 -20 -34 -25q1 -6 6 -12q1 -3 3 -5.5t4 -5.5q1 -8 6 -15q2 -8 6 -14q2 -8 4 -15.5t4 -14.5q1 -9 2 -16.5t1 -14.5q0 -12 -1.5 -23t-2.5 -22q-3 -12 -7 -24t-9 -23q-36 -71 -110 -66q-36 0 -61 13q-31 12 -48 35q-40 47 -21 89
q23 43 70 25q10 -6 17 -12.5t12 -13.5q7 -20 1 -43v1q-1 -2 -1 -3v-5q0 -2 -0.5 -2t-0.5 -1v-1q1 -4 11 -4q5 -4 11 -4q3 0 7.5 0.5t10.5 3.5q9 2 15 12q2 3 4 7.5t5 10.5l2 10t1 11q0 10 -6 33q-3 11 -8 22t-11 22l-30 36q-12 10 -24 23.5t-24 28.5q-14 15 -26 28.5
t-21 27.5q-8 9 -13 20t-8 23q-5 10 -6.5 20.5t-1.5 21.5v13t2 13q0 6 2 12t5 14q8 21 25 35q12 12 33 20l-10 14q-15 18 -23 48q-12 25 -12 54q-5 72 30 113q16 19 38 29t49 12h2zM238 298q-9 13 -19 24.5t-20 21.5q-12 9 -21.5 14t-17.5 7q-25 2 -25 -12q0 -20 7 -35
q3 -9 6 -17.5t8 -14.5q23 -30 49 -48q24 -19 36 -19q19 0 19 23q0 5 -2.5 12.5l-5.5 16.5q-7 8 -8 15q-5 6 -6 12z" />
    <glyph glyph-name="dieresis" unicode="&#xa8;" horiz-adv-x="690" 
d="M640 795v-128h-126v128h126zM176 795v-128h-126v128h126z" />
    <glyph glyph-name="ordfeminine" unicode="&#xaa;" horiz-adv-x="677" 
d="M544 196q0 -56 9 -78q7 -19 9 -21h-88l-5 15q-3 4 -3 17l-4 8q0 3 -1 6l-2 6q-5 -4 -10 -7.5t-10 -6.5l-22 -14q-16 -16 -40 -24.5t-47 -12.5t-41.5 -5t-22.5 -1q-80 0 -128 43t-48 116q0 27 10 54t33 50q22 23 58 40t89 24l30 4q1 0 7 2h5q19 0 40.5 4.5t39.5 9.5
t30.5 10l12.5 5q2 0 6.5 6t4.5 20q0 17 -6.5 34t-21.5 31t-39 23t-58 9q-37 0 -62 -9t-40 -25q-16 -17 -22.5 -39.5t-6.5 -48.5h-86q0 42 13 79.5t40 66.5q26 28 67 44.5t97 16.5q43 0 82 -14t68 -38q29 -25 46 -59.5t17 -76.5v-264zM627 -78h-577v81h577v-81zM456 355
l-16 -6q-22 -5 -50 -10.5t-55 -9.5q-27 -5 -47.5 -8t-27.5 -3q-51 -14 -67 -37.5t-16 -46.5q0 -31 28.5 -51t71.5 -20q22 0 52.5 9.5t58.5 26.5q28 16 48 37.5t20 46.5v72z" />
    <glyph glyph-name="uni00AD" unicode="&#xad;" horiz-adv-x="617" 
d="M567 335v-80h-517v80h517z" />
    <glyph glyph-name="registered" unicode="&#xae;" horiz-adv-x="984" 
d="M764 759q86 0 128 -42.5t42 -117.5v-590q0 -48 -15 -82t-38 -55t-50.5 -31t-53.5 -10h-571q-74 0 -115 43t-41 135v590q0 36 9.5 65.5t29.5 50.5t52.5 32.5t78.5 11.5h544zM779 -94q34 0 58 23t24 68v599q0 16 -4.5 32t-13.5 29q-10 12 -26.5 19.5t-40.5 7.5h-568
q-26 0 -42 -8t-26 -20q-10 -13 -13.5 -28.5t-3.5 -31.5v-599q0 -40 20 -65.5t62 -25.5h574zM805 226l-21 -263h-598v98q0 40 26.5 79t68.5 74q42 34 93.5 63.5t101.5 52.5q7 3 23.5 11.5t34.5 22.5q17 13 30 32t13 44q0 20 -9.5 30.5t-23.5 21.5l-33 11l-18 2t-18 1
q-11 0 -20 -1t-17 -2l-17 -6q-4 -1 -7.5 -2.5t-6.5 -2.5q12 -26 12 -53q0 -50 -28.5 -80t-74.5 -30q-60 0 -87 33.5t-27 84.5q0 32 21.5 65.5t58.5 61.5q36 27 85 44.5t105 17.5q156 0 240.5 -51.5t84.5 -148.5q0 -59 -27 -99t-66 -67q-39 -28 -81.5 -44.5t-73.5 -26.5
l-58 -20q-14 -6 -26.5 -11t-23.5 -10h41q7 -1 15 -1h16h132q3 0 9.5 2.5t13.5 7.5q6 4 10.5 10.5t4.5 14.5q0 14 13 24t39 10h70z" />
    <glyph glyph-name="degree" unicode="&#xb0;" horiz-adv-x="356" 
d="M169 530h-6q-23 0 -43.5 9t-35.5 24q-16 15 -25 35.5t-9 44.5v14q0 24 9 44.5t25 35.5q15 15 35.5 24t43.5 9h6v-65h-6q-20 0 -34 -14t-14 -34v-14q0 -20 14 -34t34 -14h6v-65zM193 530h-5v65h5q20 0 34 14t14 34v14q0 20 -14 34t-34 14h-5v65h5q24 0 44.5 -9t35.5 -24
t24 -35.5t9 -44.5v-14q0 -24 -9 -44.5t-24 -35.5t-35.5 -24t-44.5 -9z" />
    <glyph glyph-name="plusminus" unicode="&#xb1;" horiz-adv-x="738" 
d="M50 411h275v228h87v-228h276v-84h-276v-229h-87v229h-275v84zM50 40h638v-82h-638v82z" />
    <glyph glyph-name="uni00B2" unicode="&#xb2;" horiz-adv-x="338" 
d="M223 568l-18 -13l-14 -9q-8 -5 -14.5 -10t-11.5 -9h123v-77h-238q0 11 1 21.5t4 21.5q2 18 14 37q7 15 26 34q15 15 39 33q3 1 11 7l6 4t6 5q2 1 4.5 3t5.5 4l6 4t6 5q26 21 26 40q0 29 -30 29q-18 0 -24 -17q-5 -9 -7 -19t-2 -20h-82q0 16 2 30t7 26q6 19 19 37
q13 17 37 29q10 4 23 7t28 3q13 0 25.5 -2.5t23.5 -5.5q10 -5 18.5 -11t16.5 -12q6 -8 11 -16.5t9 -17.5q6 -20 6 -40t-5 -35q-3 -9 -7 -15.5t-8 -12.5q-5 -6 -10 -11.5t-10 -9.5q-13 -11 -23 -17z" />
    <glyph glyph-name="uni00B3" unicode="&#xb3;" horiz-adv-x="337" 
d="M57 650q0 56 34 91q31 33 78 33q10 0 20.5 -2.5t21.5 -5.5l18 -10t17 -11q7 -8 13 -15.5t11 -15.5q4 -9 6.5 -18.5t2.5 -18.5q0 -23 -6 -36q-7 -17 -16 -26q10 -12 22 -30q3 -9 5.5 -18.5t2.5 -18.5q0 -44 -31 -75q-17 -15 -38 -22.5t-48 -7.5q-30 0 -48 11
q-12 4 -21 11.5t-16 16.5q-17 17 -25 42q-6 12 -8 24.5t-2 26.5h71q0 -11 2 -20t7 -17q6 -18 35 -18q9 0 16.5 1.5t13.5 6.5q4 3 7 8.5t3 13.5q0 11 -6 19q-3 3 -7 5t-7 4q-5 0 -10 1t-11 2h-27l1 65h26h10t6 2q5 1 12 10q5 7 5 19q0 4 -2.5 8t-5.5 7q-11 6 -26 6
q-22 0 -29 -15q-8 -19 -8 -33h-69z" />
    <glyph glyph-name="acute" unicode="&#xb4;" horiz-adv-x="319" 
d="M222 649q-8 -12 -17 -24.5t-19 -25.5q-12 -14 -23 -27.5t-22 -26.5q-12 -14 -24 -27t-23 -25q-12 -13 -23.5 -24t-20.5 -20q1 6 3 12.5t4 13.5l9 31q4 16 9 33t11 35q4 16 10 33t12 35q5 16 10.5 31.5t11.5 29.5l16 34q8 21 20 33v-1q28 41 75 19q43 -26 19 -75
q-5 -8 -9 -15.5t-7 -14.5q-7 -11 -11 -17q-3 -4 -5.5 -8.5t-5.5 -8.5z" />
    <glyph glyph-name="paragraph" unicode="&#xb6;" horiz-adv-x="540" 
d="M490 731v-873h-106v793h-46v-793h-106v471q-83 6 -129 58q-53 57 -53 144q0 83 55 141q59 59 137 59h248z" />
    <glyph glyph-name="periodcentered" unicode="&#xb7;" horiz-adv-x="226" 
d="M176 359v-128h-126v128h126z" />
    <glyph glyph-name="cedilla" unicode="&#xb8;" horiz-adv-x="286" 
d="M50 -90l77 85l-19 19t-19 21q-11 9 -20.5 19t-18.5 20v107l186 -186l-186 -197v112z" />
    <glyph glyph-name="uni00B9" unicode="&#xb9;" horiz-adv-x="238" 
d="M110 456v196h-60v73h16.5t15.5 2q10 0 22 7l6 6t5 8q0 1 0.5 3.5t0.5 5.5l3 16h69v-317h-78z" />
    <glyph glyph-name="ordmasculine" unicode="&#xba;" horiz-adv-x="677" 
d="M563 369q0 -26 -4 -51.5t-10 -50.5q-17 -53 -44 -92q-15 -21 -34 -37.5t-40 -28.5q-23 -14 -48.5 -20t-54.5 -6q-59 0 -101 24q-45 22 -73 63q-15 19 -26.5 42t-17.5 49q-8 25 -11.5 51.5t-3.5 55.5q0 24 3.5 48.5t11.5 50.5q12 49 43 92q28 39 73 67q21 12 47 19t56 7
q54 0 102 -23q42 -24 73 -63q27 -40 44 -91q7 -26 11 -52.5t4 -53.5zM627 -78h-577v81h577v-81zM481 368q0 16 -2.5 33.5t-5.5 35.5q-5 17 -11.5 33.5t-15.5 31.5q-9 14 -21 26t-25 22q-32 19 -69 19q-41 0 -66 -18q-15 -10 -26 -22t-20 -26q-21 -32 -28 -65q-6 -18 -8 -36
t-2 -34q0 -17 1.5 -34t6.5 -34q3 -18 10 -34.5t16 -30.5q9 -15 20 -27.5t26 -21.5q13 -11 30 -15.5t38 -4.5q38 0 68 18q13 9 25 20.5t22 26.5q9 13 16 29.5t12 35.5q4 18 6.5 36t2.5 36z" />
    <glyph glyph-name="onequarter" unicode="&#xbc;" horiz-adv-x="774" 
d="M50 332h674v-74h-674v74zM198 -95v73l208 259h73v-249h65v-83h-65v-77h-88v77h-193zM391 91l-85 -103h85v103zM356 364v245h-85v81q13 0 25 1t24 4q18 1 30 8h-1q3 2 7 7t7 13q5 13 5 35h75v-394h-87z" />
    <glyph glyph-name="onehalf" unicode="&#xbd;" horiz-adv-x="774" 
d="M451 -41q-4 -3 -7.5 -5t-6.5 -4q-4 -2 -7.5 -4t-6.5 -4q-8 -5 -15.5 -10t-14.5 -10l-8 -6t-7 -6l-13 -11q-7 -6 -12.5 -12t-9.5 -12h199v-77h-320q0 32 10 61q3 13 8.5 25.5t12.5 23.5q16 24 42 49q12 10 30.5 22t44.5 26q13 7 28 16q7 4 14 9t13 11q6 5 10.5 11t9.5 14
q3 6 5.5 14t2.5 17q0 12 -4.5 22.5t-11.5 18.5q-9 7 -20.5 11t-26.5 4q-40 0 -54 -19q-4 -5 -7 -11.5t-4 -15.5q-6 -18 -6 -40h-86q0 38 11 66q8 29 25 48q9 11 22 20t30 17q15 6 32.5 10t37.5 4q36 0 67 -11q13 -6 25 -13t22 -16q17 -19 28 -43q4 -13 6.5 -26.5t2.5 -26.5
q0 -48 -25 -79q-25 -34 -66 -58zM356 364v245h-85v81q13 0 25 1t24 4q18 1 30 8h-1q3 2 7 7t7 13q5 13 5 35h75v-394h-87zM50 332h674v-74h-674v74z" />
    <glyph glyph-name="threequarters" unicode="&#xbe;" horiz-adv-x="774" 
d="M312 521q0 -12 0.5 -22t3.5 -17q1 -17 14 -28q13 -21 56 -21q32 0 52 18q18 18 18 45q0 7 -2.5 13t-5.5 12q-5 4 -10 8.5t-11 7.5q-7 3 -14 4.5t-14 3.5q-9 0 -16.5 0.5t-13.5 0.5h-35l2 76h18h9t11 1q4 0 8.5 0.5t9.5 1.5h6t6 2q16 6 28 22q11 13 11 27q0 16 -15 34
q-8 6 -19 10t-25 4q-60 0 -60 -78h-88q0 38 12 68q6 14 13.5 26t18.5 23q9 9 21 16t27 13q13 4 27.5 6.5t30.5 2.5q13 0 26.5 -2.5t27.5 -5.5q12 -5 24 -11.5t23 -13.5q10 -9 18.5 -18.5t15.5 -21.5q13 -26 13 -54q0 -26 -10 -47t-28 -38q12 -9 21 -19t17 -21q13 -26 13 -54
q0 -31 -11 -56q-6 -14 -14.5 -24.5t-18.5 -19.5q-11 -10 -23.5 -17.5t-26.5 -11.5q-15 -6 -31.5 -8t-34.5 -2q-74 0 -117 42q-45 41 -45 123h87zM198 -95v73l208 259h73v-249h65v-83h-65v-77h-88v77h-193zM391 91l-85 -103h85v103zM50 332h674v-74h-674v74z" />
    <glyph glyph-name="questiondown" unicode="&#xbf;" horiz-adv-x="545" 
d="M495 132q0 -28 -2 -53.5t-8 -49.5t-16 -45t-23 -39q-15 -18 -33 -32.5t-39 -23.5q-23 -11 -49.5 -16t-56.5 -5q-21 0 -41 3.5t-39 11.5q-39 12 -69 40q-32 26 -50 64q-19 35 -19 81q0 17 2 33.5t8 33.5q7 28 26 58q13 23 37 47q10 9 21 17.5t23 16.5q12 6 23.5 16
t21.5 24q18 24 18 63v142h87v-140q0 -59 -25 -103q-14 -23 -31 -39.5t-38 -28.5q-20 -11 -35.5 -24.5t-27.5 -29.5q-14 -18 -20 -40.5t-6 -49.5q0 -15 3 -27.5t11 -22.5q13 -25 33 -36q9 -8 20.5 -12.5t24.5 -7.5q22 -7 47 -7q20 0 37 3t31 11q12 6 22.5 16t19.5 23
q7 12 13 26t9 31q3 16 4 33.5t1 37.5h85zM330 605h-112v117h112v-117z" />
    <glyph glyph-name="AE" unicode="&#xc6;" horiz-adv-x="947" 
d="M558 124h-335q-6 -13 -11 -25.5t-10 -25.5t-10 -25.5t-10 -24.5l-21 -52q-13 -28 -20 -50h-91l304 744h534v-80h-426q12 -31 24 -60.5t24 -57.5q22 -60 48 -120h313v-80h-280q13 -35 26.5 -68.5t27.5 -64.5q12 -33 25.5 -66t28.5 -67h198v-80h-256zM256 204h269l-18 42
t-16 42q-9 20 -17 40t-15 41q-9 19 -17.5 39.5t-15.5 41.5q-5 10 -9 20t-8 21q-4 10 -8.5 21t-8.5 23z" />
    <glyph glyph-name="Eth" unicode="&#xd0;" horiz-adv-x="833" 
d="M287 250h262v-80h-262v-169h146q30 0 57.5 5.5t51.5 17.5q24 10 44 25.5t38 35.5q33 39 51 93q8 26 12.5 54.5t4.5 60.5q0 28 -4.5 56t-11.5 55q-18 52 -48 94q-17 19 -37 35.5t-44 28.5q-51 23 -114 23h-146v-335zM199 170h-149v80h149v415h244q73 0 139 -29
q60 -29 108 -79q21 -26 38.5 -55.5t30.5 -62.5q12 -35 18 -71t6 -75q0 -75 -23 -142q-23 -69 -66 -119q-45 -51 -107 -81q-65 -30 -144 -30h-244v249z" />
    <glyph glyph-name="multiply" unicode="&#xd7;" horiz-adv-x="714" 
d="M605 -80l-253 264l-243 -259l-59 64l247 255l-234 244l56 64l235 -246l233 243l54 -61l-229 -244l252 -258z" />
    <glyph glyph-name="Oslash" unicode="&#xd8;" horiz-adv-x="770" 
d="M260 26q23 -22 55 -28q14 -5 30 -6.5t34 -1.5q30 0 55.5 6.5t48.5 20.5q21 12 38.5 29.5t32.5 39.5q26 42 42 97q6 27 9.5 55t3.5 57q0 54 -11.5 101t-32.5 89zM511 554q-56 45 -132 45q-58 0 -102 -27q-47 -29 -72 -70q-29 -45 -41 -98q-8 -28 -11 -55t-3 -54
q0 -32 3 -60.5t11 -53.5q6 -27 16 -50.5t22 -42.5zM150 9q-23 25 -40 56.5t-28 68.5q-12 36 -17.5 76t-5.5 85q0 37 4.5 74t15.5 73q9 34 24 65.5t36 58.5q19 27 44.5 48.5t55.5 38.5q30 15 64 23.5t76 8.5q26 0 50.5 -4t48.5 -11q22 -8 43 -19t41 -25q5 7 10.5 15.5
t10.5 16.5l24 36q11 18 21.5 34.5t21.5 32.5l70 -46l-102 -148q34 -52 58 -122q23 -74 23 -150q0 -36 -5 -71t-14 -69q-10 -36 -24.5 -67t-33.5 -58q-41 -60 -99 -90q-60 -35 -144 -35q-92 0 -168 49l-23 -35l-23 -36q-6 -10 -12 -19.5t-12 -17.5q-6 -9 -11.5 -17.5
t-10.5 -15.5l-69 47z" />
    <glyph glyph-name="Thorn" unicode="&#xde;" horiz-adv-x="600" 
d="M301 -42q-54 0 -94 18q-21 8 -38.5 18.5t-31.5 24.5v-107h-87v762h87v-178q15 15 34 27t41 22q21 9 43 14t46 5q29 0 55.5 -7t50.5 -19q22 -14 41.5 -31t36.5 -38q15 -22 27.5 -46t21.5 -51q7 -28 11.5 -56t4.5 -55t-4 -53.5t-11 -53.5q-9 -27 -20.5 -51.5t-26.5 -45.5
q-16 -23 -35.5 -40.5t-41.5 -30.5q-24 -15 -51.5 -21.5t-58.5 -6.5zM296 477q-21 0 -38.5 -5.5t-31.5 -14.5q-30 -22 -47 -51q-10 -17 -17 -34.5t-11 -35.5q-5 -20 -7 -38.5t-2 -36.5t1.5 -36.5t6.5 -36.5q3 -20 10 -38t16 -33q18 -34 48 -52q27 -21 72 -21q21 0 39 4.5
t33 15.5q28 18 48 50q9 15 15.5 32.5t11.5 37.5q3 19 5.5 38t2.5 39q0 17 -2.5 35t-5.5 38q-5 18 -11 35.5t-15 34.5q-20 31 -48 53q-15 9 -33.5 14.5t-39.5 5.5z" />
    <glyph glyph-name="germandbls" unicode="&#xdf;" horiz-adv-x="505" 
d="M51 -95v554q-4 46 12 86q6 18 16.5 33.5t24.5 29.5q12 12 28 22t35 18q18 6 37 9.5t40 3.5q19 0 37 -4t36 -10q16 -8 30.5 -17.5t26.5 -21.5q12 -13 21 -27.5t17 -30.5q13 -36 14 -71q0 -46 -14 -90q-18 -45 -56 -70q48 -22 75 -67q24 -48 24 -120q0 -24 -4 -45t-10 -40
q-17 -42 -42 -67q-30 -30 -69 -43q-21 -9 -45 -12.5t-51 -3.5h-68v85h55q32 0 58 6.5t47 21.5q19 13 29.5 37.5t10.5 59.5q0 70 -38 103q-41 30 -108 30h-53v87h45q12 0 23.5 1.5t23.5 6.5q24 6 41 22q16 11 29 35q11 20 11 48q0 112 -108 112q-12 0 -22 -2.5t-19 -6.5
q-17 -10 -30 -23q-12 -17 -18 -34q-8 -20 -6 -39v-566h-86z" />
    <glyph glyph-name="ae" unicode="&#xe6;" horiz-adv-x="793" 
d="M546 -82q-33 0 -58 12q-14 5 -26.5 12.5t-23.5 18.5q0 -4 1 -7l2 -6q0 -9 3 -12h-83q-3 4 -5 11q-1 2 -2 4.5t-1 5.5q-5 8 -5 18q-29 -24 -61 -38q-36 -18 -68 -18q-17 -2 -32.5 0t-30.5 7q-15 3 -28.5 10t-24.5 16q-12 9 -21.5 20t-15.5 26q-8 13 -11.5 29.5t-3.5 34.5
q-2 25 2 46.5t13 39.5q14 32 44 55q26 20 64 32q18 5 36 9.5t38 7.5h2q1 0 1.5 0.5t2.5 0.5q4 0 7 1q10 0 28 5q7 0 14 2.5t14 5.5q12 4 21 15q3 4 5.5 10.5t2.5 15.5q0 38 -25 68q-13 12 -30.5 19t-38.5 7q-40 0 -66 -32q-27 -33 -27 -89h-87q-2 22 0.5 42.5t9.5 40.5
q6 18 15.5 34t22.5 31q12 13 26 23.5t32 19.5q16 7 34.5 11t39.5 4q45 0 88 -23q39 -25 65 -63q12 17 28 32t34 28q37 25 79 25q46 0 82.5 -19.5t63.5 -56.5q51 -80 51 -234h-308q0 -15 2 -29.5t7 -29.5q3 -15 8 -28.5t13 -25.5q6 -13 14 -23.5t19 -17.5q9 -9 20.5 -12.5
t25.5 -3.5q43 0 65 28q21 24 34 73h92q-11 -38 -24 -68q-9 -18 -18.5 -33t-19.5 -28q-22 -27 -54 -44q-33 -17 -73 -16zM347 187q-8 -3 -16 -5t-17 -3l-10 -2t-11 -2l-10 -2t-10 -1q-6 -2 -11.5 -3t-10.5 -2q-6 -1 -11 -2t-10 -1q-24 -6 -30 -6q-34 -12 -47 -34
q-16 -23 -14 -47q0 -18 7 -30.5t19 -20.5q24 -19 59 -15q14 0 38 12q10 5 20 11.5t21 15.5q18 13 32 34q12 18 12 36v67zM651 261q-5 63 -29 101q-29 36 -76 36q-26 0 -44 -12q-19 -12 -32 -31q-16 -18 -22 -44q-5 -13 -7.5 -25.5t-3.5 -24.5h214z" />
    <glyph glyph-name="eth" unicode="&#xf0;" horiz-adv-x="609" 
d="M145 154q2 -17 6.5 -32t12.5 -28q11 -29 35 -49q9 -11 21 -19t26 -14q23 -13 58 -13q31 0 58 13q13 6 25 14t23 19q17 19 34 49q12 25 18 60h-317zM274 258l-51 62l113 101q-4 0 -10 2q-5 0 -7 2h-8q-2 0 -4 0.5t-3 0.5q-60 0 -96 -30q-18 -16 -31.5 -36.5t-20.5 -44.5
h-93q6 21 14 41t19 39q10 18 23 33t28 29q15 12 32 22.5t38 18.5q19 6 41 9.5t46 3.5q55 0 107 -25q5 5 11 10t12 11l26 23l48 43l51 -61l-84 -76q36 -42 59 -99q10 -30 15.5 -60.5t5.5 -63.5q0 -29 -4.5 -56t-11.5 -53q-9 -27 -21.5 -51t-27.5 -45q-17 -21 -36.5 -38.5
t-42.5 -29.5q-24 -14 -50.5 -20t-56.5 -6q-60 0 -102 23q-48 19 -80 61q-18 18 -30.5 40.5t-21.5 48.5q-19 48 -19 109v16v8.5t2 13.5h413q-3 21 -7.5 41.5t-11.5 39.5q-17 34 -39 62z" />
    <glyph glyph-name="divide" unicode="&#xf7;" horiz-adv-x="757" 
d="M50 338h657v-87h-657v87zM378 628q30 0 54 -24q10 -13 16 -27.5t6 -29.5q0 -17 -6 -30.5t-16 -23.5q-22 -22 -54 -22q-36 0 -54 22q-22 18 -22 54q0 15 5 29.5t17 27.5q19 24 54 24zM379 119q11 0 28 -6l25 -17l17 -25q6 -17 6 -30q0 -17 -6 -29q-4 -8 -8.5 -14.5
t-8.5 -11.5q-6 -6 -12.5 -10t-12.5 -7q-15 -7 -28 -7q-31 0 -52 21q-24 18 -24 58q0 13 6 30q3 6 6.5 12.5t9.5 12.5q4 4 10 8.5t14 8.5q12 6 30 6z" />
    <glyph glyph-name="oslash" unicode="&#xf8;" horiz-adv-x="602" 
d="M114 14q-16 20 -28 43t-19 50q-9 25 -13 53.5t-4 58.5q0 28 3.5 56t12.5 55q13 54 48 96q15 20 35 36.5t44 30.5q45 25 108 25q17 0 33.5 -2.5t32.5 -5.5q32 -11 60 -28l29 44q3 5 6.5 10.5t7.5 10.5l15 22l59 -48l-59 -88q15 -21 28 -45t22 -51q17 -57 17 -118
q0 -29 -4.5 -56t-11.5 -53q-18 -54 -48 -96q-17 -21 -36.5 -38t-42.5 -29q-24 -14 -51 -20t-57 -6q-38 0 -70.5 9t-60.5 29l-26 -38q-4 -6 -7.5 -11t-6.5 -10l-12 -17l-62 46zM219 33q19 -15 39.5 -21.5t42.5 -6.5q19 0 37 4.5t34 15.5q15 9 27.5 21.5t23.5 28.5q9 15 17 32
t14 37q4 18 7 37t3 38q0 21 -2 39t-5 35q-7 29 -24 58zM378 411q-19 11 -37 17q-23 6 -40 6q-21 0 -38 -5.5t-32 -14.5q-16 -11 -29 -23.5t-22 -27.5q-23 -33 -31 -69q-6 -20 -8.5 -38.5t-2.5 -36.5q0 -74 29 -126z" />
    <glyph glyph-name="thorn" unicode="&#xfe;" horiz-adv-x="554" 
d="M50 665h86v-228q33 28 76 47q19 7 42.5 11t50.5 4q21 0 40.5 -4.5t38.5 -11.5q18 -9 34 -20.5t30 -24.5q24 -29 43 -66q13 -39 13 -82v-369h-86v361q0 61 -35 98q-37 35 -89 35q-28 0 -55 -11q-29 -12 -50 -31q-26 -21 -37 -43q-16 -25 -16 -51v-358h-86v744z" />
    <glyph glyph-name="dcroat" unicode="&#x111;" horiz-adv-x="711" 
d="M296 341q-18 0 -34.5 -4t-29.5 -11q-15 -8 -27.5 -17.5t-21.5 -21.5q-24 -27 -31 -56q-11 -32 -11 -65q0 -18 2.5 -34.5t8.5 -31.5q4 -17 11.5 -30.5t18.5 -25.5q19 -27 49 -39q14 -8 30.5 -11.5t34.5 -3.5t34 3.5t31 11.5q25 12 49 39q9 12 17 25.5t14 30.5q11 31 11 66
q0 29 -11 65q-6 15 -14 29t-17 27q-21 22 -50 39q-15 7 -31 11t-33 4zM291 427q22 0 44.5 -4.5t43.5 -11.5q41 -18 73 -42v106h-317v81h317v120h88v-120h121v-81h-121v-553h-88v38q-34 -31 -72 -43q-40 -13 -89 -13q-28 0 -53 5t-46 17q-23 10 -42 25t-34 33q-17 18 -29 39
t-20 45q-17 44 -17 98q0 27 4 53t13 50q7 23 19 43.5t28 38.5q29 33 76 56q21 9 46.5 14.5t54.5 5.5z" />
    <glyph glyph-name="Hbar" unicode="&#x126;" horiz-adv-x="861" 
d="M153 545v120h86v-120h386v120h86v-120h100v-80h-100v-544h-86v351h-386v-351h-86v544h-103v80h103zM239 465v-114h386v114h-386z" />
    <glyph glyph-name="hbar" unicode="&#x127;" horiz-adv-x="682" 
d="M176 537v129h88v-129h312v-79h-312v-102q14 14 31.5 25t38.5 20q19 7 44 11.5t55 4.5q21 0 40.5 -4.5t39.5 -13.5q35 -18 64 -48q13 -15 23.5 -33t18.5 -37q13 -40 13 -83v-276h-88v269q-1 13 -3.5 26.5t-5.5 27.5q-5 12 -11 23t-13 22q-9 9 -18.5 17t-19.5 14
q-25 11 -52 11q-15 0 -28.5 -3.5t-26.5 -9.5q-15 -8 -27.5 -16.5t-22.5 -18.5q-24 -22 -36 -47q-16 -28 -16 -53v-262h-88v536h-126v79h126z" />
    <glyph glyph-name="dotlessi" unicode="&#x131;" horiz-adv-x="188" 
d="M138 -79h-88v559h88v-559zM138 575h-88v90h88v-90z" />
    <glyph glyph-name="IJ" unicode="&#x132;" horiz-adv-x="669" 
d="M50 666h87v-744h-87v744zM295 187v-82q0 -31 11 -49q11 -24 28 -36q16 -16 39 -22q10 -5 20 -6.5t21 -1.5q10 0 20.5 1.5t21.5 6.5q10 3 19.5 8t18.5 13q16 11 28 36q4 10 7 22.5t3 27.5v561h87v-556q0 -22 -4 -42t-11 -38q-17 -41 -42 -66q-29 -30 -65 -44
q-20 -9 -40.5 -12.5t-42.5 -3.5t-42.5 3t-38.5 11q-42 13 -67 40q-32 27 -45 66q-18 35 -13 87v76h87z" />
    <glyph glyph-name="ij" unicode="&#x133;" horiz-adv-x="467" 
d="M138 -20h-88v530h88v-530zM138 605h-88v89h88v-89zM417 613h-88v90h88v-90zM417 -74q0 -11 -1.5 -21.5t-2.5 -20.5q-3 -12 -7 -21.5t-8 -18.5q-12 -18 -29 -28q-9 -6 -20.5 -8.5t-23.5 -2.5h-56v80h29q17 0 24 11q7 12 7 32v590h88v-592z" />
    <glyph glyph-name="kgreenlandic" unicode="&#x138;" horiz-adv-x="587" 
d="M136 -81h-86v568h86v-252l241 252h107l-217 -239l270 -329h-107l-223 271l-71 -68v-203z" />
    <glyph glyph-name="Ldot" unicode="&#x13f;" horiz-adv-x="598" 
d="M469 296q21 0 41 -18q18 -20 18 -43q0 -14 -5 -22q-6 -12 -13 -19q-5 -5 -10 -8.5t-9 -5.5q-10 -5 -22 -5q-13 0 -22 5q-14 5 -19 14q-9 5 -14 19q-3 4 -4 10t-1 12q0 24 19 43q18 18 41 18zM136 665v-664h412v-80h-498v744h86z" />
    <glyph glyph-name="ldot" unicode="&#x140;" horiz-adv-x="384" 
d="M275 464q59 0 59 -59t-58 -59q-59 0 -59 59t58 59zM50 665h87v-744h-87v744z" />
    <glyph glyph-name="Lslash" unicode="&#x141;" horiz-adv-x="720" 
d="M172 336v329h86v-254l102 91l54 -59l-156 -139v-303h412v-80h-498v306l-71 -62l-51 64z" />
    <glyph glyph-name="lslash" unicode="&#x142;" horiz-adv-x="561" 
d="M234 212l-129 -113l-55 68l184 160v338h88v-263l135 119l54 -68l-189 -166v-366h-88v291z" />
    <glyph glyph-name="napostrophe" unicode="&#x149;" horiz-adv-x="554" 
d="M50 479h86v-44q16 15 35.5 26t40.5 20q20 7 43 11.5t50 4.5q21 0 40.5 -4.5t38.5 -11.5q18 -9 33.5 -20.5t29.5 -24.5q24 -30 42 -66q7 -20 11 -40t4 -41v-370h-86v361q0 60 -35 97q-36 36 -89 36q-28 0 -55 -11q-29 -12 -50 -31q-26 -21 -37 -43q-16 -25 -16 -51v-358
h-86v560z" />
    <glyph glyph-name="Eng" unicode="&#x14a;" horiz-adv-x="576" 
d="M243 -80q21 1 40 7t37 15q16 8 31 19t28 26q12 14 21.5 31t17.5 37q6 19 10 40.5t4 45.5q0 19 -2.5 38.5t-5.5 39.5q-5 18 -11.5 35.5t-15.5 33.5q-10 15 -22 27t-26 23q-15 9 -32.5 14t-38.5 5q-40 0 -65 -19q-14 -11 -24.5 -23t-17.5 -27q-18 -30 -24 -67
q-8 -40 -8 -72v-229h-89v698h89v-228q12 11 27.5 20.5t33.5 17.5q16 7 35.5 11t40.5 4q30 0 56.5 -7t50.5 -19q22 -14 41.5 -30.5t36.5 -37.5q15 -22 27.5 -46t21.5 -51q7 -28 11.5 -56t4.5 -55q0 -134 -71 -213q-36 -40 -89.5 -62.5t-122.5 -28.5v83z" />
    <glyph glyph-name="eng" unicode="&#x14b;" horiz-adv-x="554" 
d="M418 278q0 62 -35 99q-37 35 -89 35q-68 0 -112 -49q-24 -24 -35 -46t-11 -40v-359h-86v559h86v-45q33 28 76 47q20 7 43 11.5t50 4.5q21 0 40.5 -4.5t38.5 -11.5q34 -17 64 -44q13 -15 23.5 -32t19.5 -35q13 -39 13 -81v-342q0 -12 -1.5 -23.5t-3.5 -23.5
q-3 -12 -7 -23.5t-9 -20.5q-6 -11 -14 -19t-17 -14q-23 -14 -48 -14h-74v79h33q24 0 41 18q14 14 14 44v330z" />
    <glyph glyph-name="OE" unicode="&#x152;" horiz-adv-x="919" 
d="M861 622h-328q23 -24 41.5 -51t33.5 -57q26 -66 32 -148h203v-80h-203q-3 -45 -11 -84.5t-20 -75.5q-29 -74 -77 -124h337v-80h-523q-39 0 -73 8t-61 26q-29 16 -51.5 38.5t-40.5 50.5q-18 27 -31.5 58t-21.5 67q-9 34 -13 70t-4 72q0 33 3.5 67.5t12.5 70.5
q7 34 20.5 65t31.5 60q17 27 39.5 50.5t51.5 41.5q55 35 137 35h515v-80zM346 617q-59 0 -97 -29q-21 -15 -36.5 -33.5t-27.5 -39.5q-26 -47 -36 -99q-12 -54 -12 -104q0 -23 2.5 -47.5t8.5 -50.5q4 -27 13 -52.5t22 -47.5q24 -47 64 -76q37 -31 99 -31q55 0 96 30
q19 14 35 32.5t29 41.5q12 22 21 47t15 52q11 55 11 102q0 21 -3 45.5t-7 51.5q-6 26 -14 51t-20 49q-25 45 -63 77q-21 15 -45.5 23t-54.5 8z" />
    <glyph glyph-name="oe" unicode="&#x153;" horiz-adv-x="801" 
d="M245 398q-32 0 -53 -19q-23 -23 -34 -49q-7 -15 -11.5 -31.5t-6.5 -32.5q-3 -18 -4 -33.5t-1 -30.5t1 -31.5t4 -32.5q4 -35 18 -64q6 -15 14 -27t20 -21q10 -11 23 -15.5t30 -4.5q15 0 28 4.5t24 15.5q20 18 34 50q12 29 18 63q2 16 3.5 32t1.5 31q0 13 -1.5 29t-3.5 34
q-3 16 -7.5 32.5t-10.5 31.5q-7 14 -15.5 26t-18.5 23q-11 9 -24 14.5t-28 5.5zM659 261q-2 31 -9 56.5t-19 44.5q-29 36 -76 36q-25 0 -43 -12q-21 -13 -33 -31q-8 -11 -13.5 -21.5t-8.5 -22.5q-11 -27 -11 -50h213zM245 486q26 0 48.5 -7t42.5 -20q37 -29 64 -75
q23 46 64 75q38 27 91 27q46 0 82 -19.5t63 -56.5q51 -80 51 -234h-307q0 -31 7 -59q3 -15 8 -28.5t13 -25.5q6 -13 14.5 -23.5t19.5 -17.5q9 -9 21 -12.5t26 -3.5q19 0 35.5 6.5t28.5 21.5q22 24 35 73h92q-11 -38 -24 -68q-9 -18 -18.5 -33t-19.5 -28q-22 -27 -54 -44
q-33 -17 -73 -16q-53 0 -89 29q-41 26 -65 74q-14 -24 -30 -43t-34 -32q-20 -15 -43 -21.5t-49 -6.5q-27 0 -49 6.5t-40 21.5q-36 25 -60 69q-12 21 -21 43.5t-14 48.5q-6 24 -8.5 48t-2.5 47q0 22 2.5 46t8.5 50q5 24 13.5 47.5t20.5 44.5q11 21 26 38t34 31q38 27 90 27z
" />
    <glyph glyph-name="Tbar" unicode="&#x166;" horiz-adv-x="668" 
d="M290 299h-240v80h240v215h-240v80h568v-80h-240v-215h240v-80h-240v-377h-88v377z" />
    <glyph glyph-name="tbar" unicode="&#x167;" horiz-adv-x="504" 
d="M203 308v92h-52v81h52v156h87v-156h62v-81h-62v-92h164v-80h-164v-203q0 -10 3 -13q2 -7 10 -7q4 -3 19 -3h30v-81h-63q-12 0 -22 2.5t-17 8.5q-19 8 -27 27q-6 8 -10 17.5t-5 21.5q-3 10 -4 20.5t-1 22.5v187h-153v80h153z" />
    <glyph glyph-name="caron" unicode="&#x2c7;" horiz-adv-x="544" 
d="M277 625l-227 121l50 79l176 -102l175 101l43 -69z" />
    <glyph glyph-name="uni02D0" unicode="&#x2d0;" horiz-adv-x="305" 
d="M155 364l-105 186h205zM151 226l104 -186h-205z" />
    <glyph glyph-name="breve" unicode="&#x2d8;" horiz-adv-x="568" 
d="M125 822q14 -22 32 -40t41 -31q21 -15 43 -21.5t43 -6.5t43 6.5t45 21.5q43 26 74 72l72 -54q-46 -61 -106 -97q-61 -37 -128 -37q-68 0 -127 37q-63 35 -107 97z" />
    <glyph glyph-name="dotaccent" unicode="&#x2d9;" horiz-adv-x="308" 
d="M154 545q-104 0 -104 107q0 108 104 108t104 -108q0 -107 -104 -107z" />
    <glyph glyph-name="ring" unicode="&#x2da;" horiz-adv-x="356" 
d="M178 709q-20 0 -33 -13t-13 -36q0 -24 13 -36q12 -13 33 -13q20 0 33 13t13 36q0 21 -13 36q-15 13 -33 13zM178 794q26 0 51 -11q11 -6 21.5 -13t19.5 -16q8 -10 14.5 -20.5t12.5 -22.5q4 -13 6.5 -26t2.5 -25q0 -14 -2.5 -26t-6.5 -24q-6 -13 -12.5 -23.5t-14.5 -19.5
q-18 -19 -41 -30q-12 -6 -25 -8.5t-26 -2.5q-29 0 -50 11q-25 11 -41 30q-20 20 -27 43q-6 12 -8 24t-2 26q0 12 2 25t8 26q4 12 11 22.5t16 20.5q8 9 18.5 16t22.5 13q24 11 50 11z" />
    <glyph glyph-name="ogonek" unicode="&#x2db;" horiz-adv-x="286" 
d="M236 -200l-186 195l186 186v-107l-79 -80q17 -21 40 -41q9 -12 19 -22.5t20 -20.5v-110z" />
    <glyph glyph-name="hungarumlaut" unicode="&#x2dd;" horiz-adv-x="473" 
d="M222 649q-8 -12 -17 -24.5t-19 -25.5q-12 -14 -23 -27.5t-22 -26.5q-12 -14 -24 -27t-24 -25l-43 -44l6.5 26t8.5 31q4 16 9 33t11 35q4 16 10 33t12 35q5 16 10.5 31.5t11.5 29.5q0 2 7 14q1 4 3.5 8.5t5.5 10.5l11 19q2 4 4 7.5t5 6.5q18 21 35 27q16 4 40 -8
q43 -25 19 -75q-4 -8 -8 -15.5t-8 -14.5q-5 -9 -10 -17t-11 -17zM377 649q-8 -12 -17 -24.5t-19 -25.5q-12 -14 -23 -27.5t-22 -26.5q-12 -14 -24 -27t-24 -25l-43 -44l6.5 26t8.5 31q4 16 9 33t11 35q4 16 10 33t12 35q5 16 10.5 31.5t11.5 29.5q0 2 7 14q1 4 3.5 8.5
t5.5 10.5l11 19q2 4 4 7.5t5 6.5q18 21 35 27q16 4 40 -8q43 -25 19 -75q-4 -8 -8 -15.5t-8 -14.5q-5 -9 -10 -17t-11 -17z" />
    <glyph glyph-name="Alpha" unicode="&#x391;" horiz-adv-x="768" 
d="M514 601q7 11 17 18q9 7 19 7q5 0 10 -2.5t10 -5.5q6 -11 10 -25l61 -584q0 -15 4 -15q0 -1 10 -1h23q11 0 19 -3t14 -7q4 -6 5.5 -12.5t-0.5 -14.5q-6 -20 -17 -26q-6 -5 -13.5 -6.5t-15.5 -1.5h-178q-38 0 -38 36q0 17 15 27q7 3 14.5 5.5t15.5 2.5h29q8 0 11 3
q1 1 1 17q-2 15 -3.5 31t-2.5 31q-2 15 -3.5 30t-1.5 32h-217q-8 -12 -14 -23t-12 -20t-10.5 -17t-8.5 -14l-29 -44q-9 -11 -11 -17l-3 -3t-2 -3t-1 -3h30q12 0 20.5 -3t14.5 -7q8 -13 4 -27q-6 -20 -17 -26q-6 -5 -13.5 -6.5t-15.5 -1.5h-157q-21 0 -28 7q-9 5 -9 27
q0 7 3 14t11 13q6 4 13.5 7t16.5 3q7 0 14.5 0.5t13.5 2.5q5 1 10 3.5t10 6.5l16 17l17 25zM520 212q-5 30 -6 58q-5 28 -5 54q-4 24 -6 53q-5 26 -6 59q-18 -30 -35.5 -57.5t-33.5 -53.5l-35 -56l-35 -57h162z" />
    <glyph glyph-name="Beta" unicode="&#x392;" horiz-adv-x="761" 
d="M92 -79q-51 0 -39 41q6 29 45 29q47 0 58 7q1 0 7 10l2 6l3 9q15 61 31 122t32 124q7 30 14.5 60.5t15.5 61.5q7 31 15 61.5t17 62.5l3 12q1 2 1.5 3.5t0.5 3.5q-5 1 -17.5 2t-32.5 1q-38 0 -38 36q0 17 15 27q16 7 30 7h261q19 0 38.5 -3t39.5 -7q37 -12 68 -32
q25 -24 42 -56q6 -18 6.5 -38t-5.5 -44q-17 -53 -47 -89q-36 -42 -81 -61q17 -9 32 -20.5t28 -24.5q24 -30 24 -72q0 -66 -31 -111q-33 -46 -82 -75q-26 -15 -53.5 -24.5t-57.5 -15.5q-31 -7 -61 -10t-58 -3h-226zM263 12q-3 -11 -5 -16l-2 -4q2 -1 32 -1h21.5t24.5 1
q12 0 24.5 0.5t25.5 1.5q18 0 35 3.5t34 11.5q15 6 29.5 16t26.5 22q12 11 21 24.5t17 29.5q6 15 10 31t4 34q0 26 -18 43q-10 6 -21.5 11.5t-23.5 9.5q-14 3 -27.5 4.5t-26.5 2.5h-123zM362 309q22 0 41.5 0.5t36.5 2.5q15 1 28.5 3.5t25.5 7.5h-1q22 8 43 24
q9 6 18.5 13.5t18.5 16.5q7 8 13.5 17.5t12.5 21.5q4 10 7 22t3 26q0 25 -13 43q-15 15 -36 22q-12 3 -26 4.5t-29 2.5h-34q-8 0 -16.5 0.5t-17.5 0.5q-4 0 -7 -0.5t-6 -0.5h-10q-6 -1 -10 -2t-6 -1q-4 -4 -4 -9q-1 -2 -2 -4.5t-2 -6.5q-1 -3 -2 -7.5t-2 -9.5q-2 -6 -4 -13
t-4 -15l-9 -37q-6 -23 -14 -53t-17 -69h24z" />
    <glyph glyph-name="Gamma" unicode="&#x393;" horiz-adv-x="799" 
d="M293 515q4 15 -3 20q-5 0 -12 1t-16 1q-35 0 -44 10q-13 8 -7 29q6 31 44 31h456q29 0 35 -6q6 -8 0 -35l-4 -21l-2 -12t-1 -12l-10 -53l-11 -52q-5 -14 -6 -24l-4 -19q-7 -22 -17 -27q-10 -9 -24 -9q-16 0 -21 8q-8 5 -8 28q0 11 0.5 21.5t2.5 21.5q0 4 0.5 8.5t0.5 9.5
q0 4 0.5 8t0.5 8q0 54 -12 65q-15 10 -63.5 16t-129.5 6h-21q-5 0 -8 -1t-5 -2q-7 -5 -8 -9q-5 -6 -6 -18q-17 -60 -32.5 -118.5t-28.5 -118.5q-15 -60 -29.5 -119.5t-29.5 -117.5l-6 -18q-4 -10 -1 -13q0 -7 9 -8q4 -3 26 -3h13q11 0 19 -3t13 -7q7 -12 6 -29
q-7 -31 -46 -31h-211q-51 0 -39 43q2 14 15 21q10 6 29 6h33q10 0 19 5q5 1 12 15q1 2 2 5.5t3 7.5q1 7 8 20z" />
    <glyph glyph-name="uni0394" unicode="&#x394;" horiz-adv-x="620" 
d="M566 13q0 -6 1 -10.5t2 -7.5v-10q0 -3 0.5 -5.5t0.5 -4.5q0 -24 -11 -37q-12 -16 -44 -16h-410q-15 0 -25.5 1.5t-16.5 6.5q-13 6 -13 30q0 20 25 61l359 581q7 13 18 19q7 6 18 6q23 0 29 -34zM417 436l-265 -428q-12 -15 -5 -15q0 -2 16 -2h256q14 0 23 0.5t14 3.5
q5 1 5 15z" />
    <glyph glyph-name="Epsilon" unicode="&#x395;" horiz-adv-x="799" 
d="M595 164q5 13 14 18l7.5 2.5t10.5 1.5t13 -2.5t14 -6.5q11 -11 7 -27l-62 -204q-5 -15 -15 -19q-12 -6 -26 -6h-467q-50 0 -38 43q2 14 17 21q12 6 38 6q12 0 21 0.5t17 3.5q10 1 21 28l-1 -1q7 30 15 61l16 62l32 124q7 30 14.5 60.5t15.5 61.5l32 124q4 15 -5 20
q-6 0 -15.5 1t-23.5 1q-38 0 -38 35q0 18 15 28q16 7 30 7h457q29 0 35 -6q6 -8 0 -35q-10 -45 -18 -95l-11 -50l-9 -45q-3 -14 -8.5 -23t-11.5 -15q-17 -12 -25 -12q-13 0 -17 7q-7 7 -7 17q-2 4 -2 9.5t1 11.5q0 5 0.5 9.5t2.5 9.5q0 4 0.5 11t2.5 17v18q0 4 0.5 9t0.5 11
q0 9 -1 18.5t-2 18.5q-5 17 -12 23q-32 21 -194 21h-20q-5 -1 -8 -2t-5 -2q-3 -2 -5.5 -4t-3.5 -5q-5 -6 -6 -18v1l-32 -128q-3 -11 -5.5 -20t-3.5 -16q-3 -9 -5 -18l-4 -18q19 0 35 1t28 3q20 0 34 7q14 5 26 30q6 12 12 26t13 32q3 10 8.5 19t11.5 16q10 12 22 12
q6 0 11 -4t10 -11q3 -8 4 -19t-2 -25l-63 -246q-6 -25 -19 -33q-8 -6 -13.5 -8t-9.5 -2q-22 0 -23 16q-2 7 -2.5 14.5t-0.5 15.5v5t2 10q0 4 0.5 10t1.5 12v22l-6 12q-9 6 -34 9t-64 4l-15 -56l-13 -52q-8 -27 -15 -53.5t-13 -53.5q-6 -17 0 -23q4 -6 23 -6q45 0 81 1.5
t64 5.5q53 6 74 17q9 5 20.5 17t23.5 32q11 18 22 43t23 57z" />
    <glyph glyph-name="Zeta" unicode="&#x396;" horiz-adv-x="770" 
d="M506 538q-35 0 -62 -1.5t-47 -3.5q-42 -6 -59 -17q-16 -10 -35 -49q-12 -21 -23.5 -47.5t-23.5 -56.5q-6 -15 -18 -17q-12 -6 -23 -1q-13 2 -19 12q-10 7 -4 22q4 16 9.5 33t11.5 35q5 16 10 33t11 35l10 31q1 12 8 30q4 18 16 25q9 7 27 7h391q34 0 34 -23
q0 -20 -19 -39l-501 -554h96q69 0 111 6q20 2 34.5 5.5t23.5 9.5q6 3 15 16t21 34q10 20 21.5 45.5t24.5 57.5q2 8 16 13h10.5t11.5 -1l19 -11q6 -11 5 -18l-62 -203q-5 -15 -15 -19q-6 -3 -12.5 -4t-12.5 -1h-422q-35 0 -35 23q0 16 19 38l498 555h-61z" />
    <glyph glyph-name="Eta" unicode="&#x397;" horiz-adv-x="932" 
d="M616 312l12 45q3 12 6 23.5t7 23.5l11 45l12 45q0 2 0.5 4t1.5 5l3 9v14l-9 8q-5 1 -11 2t-13 1h-13q-22 0 -31 10q-14 8 -7 28q6 32 46 32h212q21 0 34 -11q8 -13 2 -32q-3 -8 -7 -13t-8 -8q-12 -6 -28 -6h-31q-15 -2 -22 -6q-9 -5 -14 -16q-3 -6 -5.5 -14t-3.5 -17
l-115 -451q-1 -4 -2 -7t-1 -5q-2 -8 -2 -9q-2 -5 -2 -8.5v-4.5q0 -7 10 -7q4 -1 13.5 -1h23.5q11 0 19 -3t14 -7q8 -13 7 -29q-4 -18 -15 -23q-7 -5 -15 -6.5t-17 -1.5h-211q-50 0 -38 41v-1q4 16 17 24q10 6 29 6h16.5t13.5 2q6 0 11 2t10 5q8 6 13 16l4 11q1 6 6 17l12 48
l13 49q5 22 11 46t14 50h-278l-26 -101l-26 -102l-2 -6t-1 -6q-2 -6 -2 -9q-2 -6 -2 -9.5v-4.5q0 -7 11 -7q4 -1 13.5 -1h23.5q11 0 19 -3t14 -7q7 -12 6 -29q-7 -31 -46 -31h-212q-50 0 -38 41q6 29 45 29h17t14 1q12 0 21 5q8 6 13 16q1 2 2 5t2 7q1 6 6 19l116 450
q0 3 0.5 5.5t1.5 5.5l3 10q0 2 0.5 4t0.5 3q0 2 0.5 3.5t0.5 3.5q0 5 -10 7h-16q-4 0 -10 0.5t-12 0.5q-45 0 -39 38q6 32 46 32h212q22 0 35 -11q8 -13 2 -31q-11 -28 -45 -28q-6 0 -10.5 -0.5t-8.5 -0.5h-13q-13 -2 -19 -6q-11 -6 -12 -16q-4 -6 -6 -14l-5 -17
q-7 -23 -13 -44.5t-10 -40.5q-6 -21 -11.5 -42.5t-10.5 -43.5h276z" />
    <glyph glyph-name="Theta" unicode="&#x398;" horiz-adv-x="747" 
d="M460 627q30 0 57 -6t50 -16q44 -25 73 -60q14 -19 24.5 -40t18.5 -45q6 -24 10 -49t4 -50q0 -55 -12 -98q-18 -65 -54 -127q-40 -63 -90 -112q-27 -26 -56 -46t-60 -35q-65 -31 -135 -31q-30 0 -56.5 5t-48.5 17q-23 10 -41.5 25t-33.5 34q-15 18 -26.5 39.5t-18.5 45.5
q-8 24 -11.5 48.5t-3.5 50.5q0 12 0.5 25t3.5 25q0 12 4 23q1 12 6 24q9 33 22.5 65t33.5 64q35 59 90 113q25 24 54 44.5t62 36.5q61 30 134 30zM453 550q-29 0 -55 -7t-48 -19q-24 -14 -44 -30.5t-37 -36.5q-18 -21 -33 -44.5t-27 -48.5q-13 -26 -23.5 -51.5t-17.5 -49.5
q-8 -24 -11 -49t-3 -49q0 -18 1.5 -34.5t6.5 -31.5q3 -17 9 -30.5t15 -25.5q8 -13 19 -23t26 -17q13 -8 29.5 -11.5t36.5 -3.5q27 0 53 6t50 20q22 12 43 28.5t40 37.5q36 40 61 92t38 102q3 12 5 24t5 26q1 12 2.5 24.5t1.5 26.5q0 16 -2 32t-5 33q-11 31 -24 56
q-9 12 -20 21.5t-24 17.5q-15 7 -32 11t-36 4zM295 232q-12 0 -12 -7q-1 -3 -2 -5l-2 -4q-1 -3 -2 -5t-1 -4q-5 -6 -6 -10q-2 -5 -5 -8q-3 -5 -7 -8t-7 -5q-11 -6 -19 -6q-28 0 -29 17q-5 11 3 42l28 97q2 9 5.5 18t9.5 18q4 7 11.5 11.5t16.5 4.5q12 0 24 -14q7 -15 7 -28
q0 -2 -0.5 -3.5t-0.5 -2.5t-0.5 -2.5t-0.5 -2.5q-2 -4 -0.5 -6.5t4.5 -2.5h152q9 0 14 8q2 3 4 7.5t5 9.5q2 6 5.5 13t8.5 13q6 12 27 12q29 0 29 -31q0 -15 -5 -35q-4 -12 -7.5 -24t-6.5 -24q-4 -14 -8 -26t-7 -23t-7 -19l-7 -14q-5 -8 -11.5 -11t-15.5 -3q-12 0 -18 6
q-9 7 -10 15q-2 4 -2.5 9t-0.5 11q-1 5 -1 10.5v11.5h-153z" />
    <glyph glyph-name="Iota" unicode="&#x399;" horiz-adv-x="559" 
d="M393 507q-21 -78 -37.5 -141.5t-28.5 -112.5q-14 -51 -23.5 -90t-15.5 -66q-17 -59 -18 -73q-7 -18 -3 -11q-2 -5 -1.5 -7.5t0.5 -4.5q0 -7 4 -8q1 -2 14 -2h28q47 0 39 -35q-16 -35 -46 -35h-213q-51 0 -39 41q6 29 47 29h21t16 1q13 0 19 5q5 4 11 16q0 2 1 5.5t2 6.5
q1 4 2 8.5t3 10.5q15 55 29 111.5t29 113.5q13 57 27 112.5t29 112.5q0 2 2 10l3 11q0 2 0.5 4t0.5 3q0 2 0.5 3.5t0.5 3.5q0 5 -10 7h-16q-4 0 -9.5 0.5t-11.5 0.5q-50 0 -39 40q7 30 46 30h213q12 0 20 -3t14 -8q9 -14 3 -31q-11 -28 -45 -28h-33q-7 -1 -11.5 -2t-7.5 -2
q-9 -5 -10 -9q-4 -6 -6 -17z" />
    <glyph glyph-name="Kappa" unicode="&#x39a;" horiz-adv-x="913" 
d="M295 135l-4 -13l-4 -16l-11 -38q-3 -11 -5.5 -20t-3.5 -18q-3 -10 -3.5 -17.5t-0.5 -11.5q0 -8 11 -8q5 -1 14 -1h23q10 0 18 -3t14 -7q7 -12 6 -29q-6 -31 -45 -31h-212q-51 0 -39 43q2 14 16 21q10 6 29 6h17t15 1q6 0 11 2t10 5q3 2 7 6t7 10l4 11q1 7 6 18l114 450
q0 11 4 22q0 2 0.5 4t0.5 3q0 2 0.5 3t0.5 2q0 6 -10 8h-15q-4 0 -10 0.5t-12 0.5q-38 0 -38 35q0 17 16 27q6 3 13.5 5.5t15.5 2.5h212q50 0 38 -43q-5 -15 -16 -21q-12 -6 -28 -6h-33q-15 -2 -21 -6q-8 -5 -13 -16q-3 -6 -5.5 -14t-4.5 -17q-5 -16 -8.5 -30.5t-6.5 -27.5
l-4 -14t-3 -13q-4 -13 -6 -26l-13 -53q-4 -14 -8 -28.5t-7 -29.5q39 34 77 68t77 67q37 33 75.5 66.5t77.5 68.5q3 3 -1 4h-11q-3 0 -7.5 0.5t-9.5 0.5q-38 0 -47 10q-11 7 -5 30q7 30 44 30h224q12 0 20.5 -2.5t14.5 -6.5q8 -13 4 -27q-5 -20 -17 -27q-6 -4 -13.5 -5.5
t-14.5 -1.5q-28 0 -50 -5q-11 -3 -22 -10t-22 -16q-30 -27 -59.5 -52.5t-56.5 -49.5q-29 -25 -58 -50.5t-59 -51.5l72 -142q17 -37 35 -72.5t38 -69.5q7 -16 25 -21q13 -6 39 -6q11 0 18.5 -3t12.5 -7q5 -11 4 -29q-2 -8 -5 -14t-9 -9q-6 -5 -13.5 -6.5t-15.5 -1.5h-233
q-38 0 -38 37q0 20 15 27q13 6 31 6q17 0 29 0.5t19 3.5q13 2 2 26q-18 31 -30 60q-4 6 -7 12.5t-6 12.5l-12 25q-7 12 -13 24t-12 25l-13 26q-8 13 -14 29z" />
    <glyph glyph-name="Lambda" unicode="&#x39b;" horiz-adv-x="770" 
d="M498 435q-35 -54 -66 -108q-17 -26 -33 -52.5t-32 -52.5q-17 -27 -33.5 -53.5t-32.5 -53.5t-32.5 -53.5t-32.5 -53.5q-8 -12 -5 -13q0 -3 22 -3q12 0 20.5 -3t14.5 -7q8 -13 4 -27q-6 -20 -17 -26q-6 -5 -13.5 -6.5t-15.5 -1.5h-157q-21 0 -31 11q-12 7 -6 30q0 5 4 10
t10 11q14 9 30 9q8 0 15 0.5t13 2.5q5 1 10 3.5t10 6.5l16 17q3 4 7 10.5t9 14.5l340 553q7 11 17 18q9 7 19 7q5 0 10 -2.5t10 -5.5q6 -11 10 -25l61 -584q0 -13 8 -13q4 -3 29 -3q11 0 19 -3t14 -7q4 -6 5.5 -12.5t-0.5 -14.5q-6 -20 -17 -26q-6 -5 -13.5 -6.5t-15.5 -1.5
h-178q-23 0 -32 10q-13 8 -6 28q4 14 18 25q6 3 12 5.5t14 2.5q25 0 34 5q8 2 8 15z" />
    <glyph glyph-name="Mu" unicode="&#x39c;" horiz-adv-x="1010" 
d="M343 420q-14 -51 -26 -99t-23 -96l-25 -97l-25 -98q-1 -2 -1.5 -4t-0.5 -5l-4 -11q0 -3 -1 -7l-2 -8q-1 -3 8 -3q4 -1 12 -1h20q44 0 38 -41q-5 -17 -14 -22q-6 -5 -14 -6.5t-17 -1.5h-176q-52 0 -39 41q7 30 46 30h15.5t12.5 1q4 0 8.5 1t8.5 4q3 1 5 4.5t5 9.5q0 2 1 5
l2 6q1 7 6 18l60 228q13 57 27.5 114t29.5 115q0 3 2 9l3 10q0 1 0.5 3t0.5 3q0 2 0.5 3.5t0.5 3.5q0 4 -8 6h-30q-19 0 -30 11q-13 11 -9 28q1 15 17 25q6 3 13 5.5t16 2.5h143q19 0 27 -8l6 -29l41 -457q33 58 67 116.5t69 116.5q33 57 66 115t65 118q3 5 6.5 10t9.5 10
q4 3 10 5.5t12 2.5h143q18 0 31 -11q8 -13 7 -30q-4 -15 -13 -22q-6 -5 -14 -7t-17 -2h-29q-6 -1 -11.5 -2t-8.5 -1q-11 -5 -12 -9q-7 -7 -8 -18l-120 -472l-3 -9q0 -2 -0.5 -3.5t-0.5 -2.5q-2 -5 -1.5 -8t2.5 -6q0 -8 12 -9q4 -3 11.5 -3.5t19.5 -0.5q44 0 38 -41
q-5 -17 -14 -22q-6 -5 -14 -6.5t-17 -1.5h-211q-51 0 -39 43q7 28 44 28h18.5t15.5 1q11 0 20 5q8 6 13 16q0 5 4 12q1 6 6 19l12 50q3 12 6.5 23t6.5 22q4 21 9 41t11 41q4 19 9.5 39.5t11.5 42.5q7 40 24 95q-33 -60 -66 -116t-66 -113q-17 -29 -34 -57.5t-33 -57.5
l-66 -114q-5 -8 -10 -14t-9 -10q-10 -9 -20 -9q-6 0 -11.5 2t-8.5 7q-11 6 -11 23z" />
    <glyph glyph-name="Nu" unicode="&#x39d;" horiz-adv-x="929" 
d="M592 124q6 23 11 44.5t11 41.5l9.5 38t9.5 35q7 32 14 59t13 49q2 10 4 19.5t4 17.5t4 15.5t4 13.5q3 11 5 20t4 15q0 6 2 8q0 4 2 6v1q1 1 1 2q0 2 2 8q0 2 0.5 3.5t1.5 3.5q0 2 -1 4l-2 4q-2 0 -5 1l-6 2h-23q-40 0 -40 37q0 17 15 27q7 3 15 5.5t17 2.5h176
q20 0 33 -11q9 -14 3 -32q-12 -29 -43 -29h-28q-6 -1 -10 -2.5t-7 -2.5q-9 -7 -10 -14q-3 -6 -5 -13t-4 -16q-18 -69 -35.5 -139t-34.5 -140l-36 -140l-35 -135q-4 -11 -13 -18q-6 -5 -11.5 -6.5t-11.5 -1.5q-12 0 -19 7q-10 6 -14 17l-208 520l-27 -106l-26 -104
q-7 -27 -14 -53.5t-13 -52.5q-7 -26 -14 -52.5t-13 -52.5q-1 -3 -2 -5.5t-1 -4.5q-1 -3 -1 -7q-2 -11 1 -12q0 -7 10 -7q4 -3 23 -3q45 0 39 -41q-5 -17 -14 -22q-6 -5 -14.5 -6.5t-17.5 -1.5h-176q-26 0 -33 11q-11 7 -5 30q7 30 45 30h16t13 1q9 0 17 6q4 3 10 15l8 27
l117 457q1 10 6 22q0 2 0.5 4t0.5 3q0 2 0.5 3t0.5 2q0 2 -8 4h-31q-20 0 -30 11q-12 11 -8 28q1 15 17 25q6 3 13 5.5t15 2.5h118q6 0 11 -2t11 -5q4 -5 8 -9.5t7 -10.5z" />
    <glyph glyph-name="Xi" unicode="&#x39e;" horiz-adv-x="778" 
d="M86 -78q-23 0 -28 11q-11 11 -6 29q4 22 9.5 45.5t11.5 48.5l20 95q1 11 12 23q6 7 19 12q19 1 30 -11q3 -8 5.5 -15.5t2.5 -14.5q0 -11 -1 -20.5t-2 -18.5q-2 -10 -2.5 -17.5t-0.5 -13.5q0 -25 6 -37q5 -14 16 -20q11 -8 29 -8q9 -2 19.5 -2h24.5h166q21 0 38 2t31 7
q13 3 24.5 10t21.5 16q18 17 31 45q6 13 12.5 30t14.5 37q6 21 18 31q4 3 9.5 5.5t11.5 2.5t12 -4t12 -10q8 -17 2 -39l-60 -188q-3 -9 -7 -15t-8 -9q-11 -7 -27 -7h-467zM691 608q11 0 19 -2.5t13 -6.5q7 -12 3 -32q-6 -24 -11.5 -47.5t-9.5 -45.5l-11 -48l-9 -47
q-6 -17 -13 -24q-13 -11 -20 -11q-14 -4 -26 8q-6 5 -9 12.5t-1 18.5q0 3 0.5 7t0.5 8l3 18v15q0 4 0.5 8.5t0.5 9.5q0 22 -5 40q-6 12 -16 22q-6 3 -13 5t-16 4q-9 0 -20.5 1t-23.5 1h-114q-21 0 -38.5 -2.5t-29.5 -5.5q-14 -5 -24.5 -11t-18.5 -14q-18 -18 -31 -46
q-7 -15 -14.5 -32.5t-14.5 -37.5q-6 -11 -15 -17q-12 -6 -22 -6q-17 0 -26 9q-12 7 -6 25l63 193q8 31 41 31h414zM301 222q-3 0 -5.5 -1.5t-3.5 -2.5q-7 -7 -7 -10q-6 -17 -17 -31q-11 -17 -31 -17t-25 8q-7 6 -7 20v7.5t2 9.5q0 2 2 8q0 2 1 5l2 6q2 8 4 15.5t4 13.5
q2 7 4 13t4 11q2 9 4 15.5t4 11.5q1 4 2 6.5t2 4.5v2q3 9 7 18t10 18q8 15 24 15q14 0 25 -12q7 -16 7 -27q0 -2 -0.5 -3.5t-0.5 -3.5v-7q-4 -9 5 -9h183q7 0 12 8q0 1 1 3l2 4l4 8q3 7 7 14t10 14q4 6 11.5 9t16.5 3q29 0 29 -32q0 -8 -1.5 -15.5t-3.5 -16.5l-27 -91
q-4 -12 -8 -22t-7 -17q-9 -16 -29 -16q-12 0 -17 5q-8 2 -9 12q-5 5 -5 16q-3 4 -3 16q-3 3 -3 9q-5 5 -17 5h-162z" />
    <glyph glyph-name="Omicron" unicode="&#x39f;" horiz-adv-x="743" 
d="M456 627q30 0 56.5 -6t49.5 -16q44 -25 74 -60q14 -19 24.5 -40t18.5 -45q6 -25 10 -50t4 -50q0 -54 -12 -97q-18 -65 -54 -127q-40 -63 -90 -112q-27 -26 -56 -46t-60 -35q-65 -31 -135 -31q-32 0 -59 5t-48 17q-23 10 -41.5 25t-31.5 33q-30 36 -42 86q-8 24 -11 49
t-3 52q0 12 0.5 24t2.5 24q0 12 2 23.5t5 23.5q13 65 53 130q18 31 41 59t50 54q54 50 118 80q61 30 134 30zM449 550q-29 0 -55 -7t-48 -19q-24 -14 -44 -30.5t-37 -36.5q-18 -21 -33 -44.5t-27 -48.5q-13 -26 -23.5 -51.5t-17.5 -49.5q-4 -12 -7 -24t-4 -24
q-3 -14 -3.5 -26.5t-0.5 -24.5q0 -18 1.5 -34t6.5 -31q3 -17 9.5 -30.5t15.5 -25.5q8 -13 19 -23t26 -17q13 -8 29.5 -11.5t36.5 -3.5q27 0 53 6t50 20q22 12 43 28.5t40 37.5q36 40 61 92t38 102q3 11 5 23t5 26q1 12 2 24.5t1 26.5q0 16 -2 32t-5 33q-5 15 -11 29.5
t-13 27.5q-9 12 -20 21.5t-24 17.5q-14 7 -31 11t-36 4z" />
    <glyph glyph-name="Pi" unicode="&#x3a0;" horiz-adv-x="875" 
d="M554 537h-109q-8 -1 -14.5 -2.5t-12.5 -2.5q-6 -3 -11.5 -7t-9.5 -9q-9 -10 -14 -32q-14 -54 -27 -106.5t-25 -106.5q-14 -54 -27.5 -107.5t-27.5 -105.5q-3 -11 -5.5 -20t-3.5 -15q-5 -14 -5 -20q0 -10 7 -10q3 -2 11.5 -2h22.5q24 0 35 -11q7 -14 2 -30q-5 -15 -16 -21
q-6 -5 -13.5 -6.5t-15.5 -1.5h-205q-48 0 -38 43q5 16 16 21q7 6 29 6h19t16 2q11 0 21 10q3 3 7 8.5t7 14.5q1 3 2 8t3 10q1 5 3 11.5t4 13.5l108 425q0 3 0.5 5.5t1.5 5.5l3 10q0 5 -2 13q-3 2 -6.5 3.5t-7.5 3.5q-6 0 -13.5 1t-16.5 1q-12 0 -20.5 2t-12.5 8q-11 7 -5 30
q7 30 46 30h530q12 0 20.5 -2.5t14.5 -6.5q8 -13 4 -27q-5 -20 -17 -27q-11 -7 -29 -7q-6 0 -10.5 -0.5t-8.5 -0.5h-14q-7 -2 -12.5 -3.5t-8.5 -3.5q-11 -6 -12 -16q-5 -10 -10 -30l-28 -105q-6 -27 -13 -53.5t-14 -53.5q-8 -28 -15 -55t-14 -53q-7 -27 -14 -53t-13 -51
q-2 -6 -3 -10.5t-2 -8.5q-1 -5 -2 -8.5t-1 -6.5q-3 -8 -3.5 -13t-0.5 -8q0 -11 11 -11q4 -2 14 -2h25q12 0 20 -3t14 -8q8 -13 2 -31q-11 -28 -44 -28h-204q-52 0 -40 41q6 29 47 29q12 0 21.5 1t15.5 4q11 1 18 13q3 4 5 10t5 14q1 7 3.5 16t5.5 20q14 52 27.5 105
t27.5 107q12 52 25 104.5t27 106.5q1 17 0 27q-3 4 -6.5 7t-9.5 6q-7 1 -15.5 2.5t-18.5 2.5z" />
    <glyph glyph-name="Rho" unicode="&#x3a1;" horiz-adv-x="777" 
d="M431 537q-9 0 -15 -1.5t-9 -2.5q-10 -6 -16 -27q-4 -15 -8 -29.5t-7 -28.5l-13 -53l-15 -55q-4 -15 -7.5 -29t-6.5 -29h80q19 0 39 2t40 8q38 8 68 32q30 19 48 54q18 31 18 79q0 36 -25 59q-14 10 -32.5 15.5t-42.5 5.5h-96zM528 607q18 0 36.5 -2.5t36.5 -5.5
q18 -5 33.5 -11t30.5 -15q13 -9 24.5 -21t20.5 -25q17 -31 17 -69q0 -51 -23 -95q-12 -23 -28 -43t-34 -36q-40 -36 -89 -54q-26 -11 -51.5 -15.5t-50.5 -4.5h-136l-12 -45l-10 -43l-12 -45l-6 -22t-5 -22q-6 -14 -6 -21q-5 -11 1 -13q1 -6 14 -6q4 -2 12 -2h19t19 -3t14 -7
q7 -12 6 -29q-6 -31 -45 -31h-213q-49 0 -38 40q4 16 17 24q10 6 29 6h18.5t14.5 1q6 0 10.5 1.5t9.5 4.5q6 5 12 16q0 5 4 12l6 18q7 29 15 58t15 58q8 30 15.5 59t15.5 58q7 28 14 57t15 58q7 29 14.5 58.5t15.5 59.5q2 10 2 16l-7 8q-3 0 -7 1t-7 2h-17q-58 0 -47 40
q7 30 45 30h272z" />
    <glyph glyph-name="Sigma" unicode="&#x3a3;" horiz-adv-x="768" 
d="M101 -79q-13 0 -22.5 1.5t-15.5 6.5q-13 6 -13 21q0 3 2 8.5t7 12.5q4 6 9.5 12.5t11.5 14.5l247 269q-29 66 -55 137q-15 33 -29 67.5t-27 69.5q-4 4 -4 10q-1 2 -2 4.5t-1 5.5q-2 3 -2.5 7t-0.5 7q0 19 13 26q12 6 36 6h425q29 0 35 -6q6 -8 0 -35q-6 -23 -10.5 -46
t-8.5 -46q-6 -24 -10.5 -47.5t-8.5 -46.5q-6 -23 -16 -29q-6 -6 -12.5 -8t-12.5 -2t-11.5 2t-9.5 7q-6 3 -8 10t-1 16l2 57q0 22 -2 38.5t-7 28.5q-12 20 -37 31q-13 3 -29 5.5t-35 2.5q-21 -1 -44 -1h-50h-24q-7 -1 -17 -1h-22q-3 0 -4.5 -0.5t-3.5 -0.5h-4q-5 -4 1 -15
q9 -29 20.5 -56t23.5 -54l23 -55l24 -54q4 -15 4 -28q-2 -8 -6.5 -16.5t-12.5 -17.5l-235 -249q57 0 104 1.5t83 5.5q36 3 61 7t40 10q25 7 54 48q27 38 51 98q1 5 5.5 8.5t10.5 5.5q12 1 24 0q5 -2 9.5 -5t9.5 -6q6 -11 5 -18l-59 -195q-6 -16 -18 -22q-7 -5 -13 -6.5
t-11 -1.5h-426z" />
    <glyph glyph-name="Tau" unicode="&#x3a4;" horiz-adv-x="710" 
d="M622 608q29 0 35 -6q6 -8 0 -35q-3 -9 -5 -20.5t-4 -23.5q-5 -14 -6 -27q-2 -7 -3 -13.5t-2 -12.5q-2 -8 -3.5 -14.5t-2.5 -13.5q-2 -7 -3 -13l-2 -12q-3 -14 -5.5 -24.5t-3.5 -19.5q-3 -12 -7.5 -20t-10.5 -14q-8 -6 -14 -9t-12 -3q-11 0 -15 6q-3 3 -5.5 6.5t-2.5 8.5
q-2 4 -2.5 8.5t-0.5 10.5v8.5t2 8.5q0 4 1 8.5t2 9.5l4 24q1 12 2 23.5t1 23.5q0 6 -1 13t-1 14q-2 6 -4 10.5t-5 8.5q-19 21 -88 21q-10 0 -17 -1t-10 -1q-9 -4 -13 -19q-17 -60 -32 -119.5t-29 -117.5q-8 -30 -15.5 -60.5t-15.5 -61.5q-17 -62 -30 -126q-1 -4 -2 -7.5
t-1 -5.5q-2 -8 -2 -9q-5 -11 0 -12q1 -6 13 -6q4 -2 12.5 -2h20.5q11 0 19 -3t13 -7q7 -10 5 -29q-7 -31 -45 -31h-213q-47 0 -37 43q2 14 15 21q10 6 29 6h17.5t14.5 1q11 0 20 5q8 6 13 16q5 8 11 31q15 60 31 120t31 123q13 60 30 120q7 30 15 60.5t16 61.5q0 2 -1 4
l-2 4q-3 0 -7 1t-10 1q-35 0 -63 -5q-29 -6 -43 -18q-9 -6 -18 -19.5t-18 -32.5q-11 -21 -22 -46.5t-23 -55.5q-5 -10 -13 -16q-9 -5 -19 -5q-16 0 -26 10q-13 8 -7 26l59 198q6 19 18 26q10 6 28 6h465z" />
    <glyph glyph-name="Upsilon" unicode="&#x3a5;" horiz-adv-x="678" 
d="M318 283q-5 -17 -8.5 -31.5t-6.5 -26.5q-4 -13 -6.5 -24.5t-4.5 -20.5l-10 -36q-2 -7 -3.5 -14t-2.5 -12q-3 -12 -5.5 -20.5t-3.5 -13.5l-2 -6t-1 -5q-2 -6 -2 -8q-5 -12 -5 -18l-4 -12q0 -4 -1 -8l-2 -8q-6 -18 0 -22q1 -5 31 -5q10 0 18.5 -3t14.5 -7q8 -13 7 -29
q-6 -31 -46 -31h-182q-52 0 -40 41q6 29 46 29h15.5t12.5 1q8 0 14 6q2 2 4 6l5 10q0 2 1 5t2 7q1 3 2 7.5t3 10.5q3 15 7 30l8 30l16 61q3 15 7 30l8 30q3 15 7 30.5t9 30.5q2 15 8 34q2 9 4 19.5t5 21.5q7 42 6 82q-4 35 -25 65q-12 12 -30.5 19t-45.5 7q-36 0 -36 28
q0 12 12 24q12 11 31 12q77 1 123 -28q42 -35 60 -105q9 13 20 26t25 27q12 12 26.5 23.5t29.5 22.5q14 9 29 17.5t32 14.5q30 12 61 12q19 0 34 -7.5t26 -20.5q17 -29 11 -68q-2 -8 -5 -14l-6 -12q-5 -7 -10 -12.5t-10 -9.5q-6 -5 -12.5 -8.5t-12.5 -5.5q-14 -5 -27 -5
q-6 0 -11.5 1t-9.5 4q-14 5 -19 14q-10 7 -12 22q-6 11 -1 30q-30 -18 -55 -43q-15 -15 -27.5 -30t-23.5 -30q-24 -34 -41 -67q-9 -18 -15.5 -33.5t-9.5 -30.5z" />
    <glyph glyph-name="Phi" unicode="&#x3a6;" horiz-adv-x="737" 
d="M369 66q19 3 37 10t35 17q16 9 31 20t29 25q12 13 23.5 28t21.5 32q19 33 30 71q4 15 6.5 29.5t2.5 29.5q0 24 -7.5 45t-20.5 39q-15 17 -37 29.5t-50 21.5zM162 257q-5 -17 -7 -31.5t-2 -26.5q0 -50 30 -86q14 -18 35.5 -31t50.5 -19l25 101l25 98l24 96l27 103
q-80 -17 -133 -72q-27 -29 -46 -62t-29 -70zM189 -14h17t15 2q14 0 20 9q-21 3 -40.5 9t-36.5 17q-36 18 -60 48q-14 13 -24 29.5t-16 34.5q-8 18 -11 36.5t-3 39.5q0 61 29 113q28 54 76 97q23 21 50 39.5t58 33.5q30 14 60 23.5t62 15.5q-4 6 -14 7h-32q-40 0 -40 33
q0 20 15 27q7 3 14.5 5t16.5 2h213q12 0 20 -3t14 -8q9 -14 3 -31t-16 -18q-10 -5 -28 -5h-17q-8 -2 -10 -2h-9q-5 -1 -8.5 -2t-6.5 -1q-7 -4 -7 -7q21 -3 40.5 -9.5t37.5 -15.5q35 -22 62 -49q24 -30 40 -65q6 -19 10 -38.5t4 -38.5q0 -14 -2.5 -28t-5.5 -28
q-7 -26 -18.5 -49.5t-26.5 -45.5q-17 -23 -36.5 -43t-40.5 -37q-48 -37 -96 -59q-27 -12 -53 -19t-51 -10q2 -8 15 -8q5 -1 12.5 -1h16.5q21 0 32 -11q7 -11 7 -23q-6 -31 -45 -31h-213q-50 0 -39 40q4 15 16 21l12.5 2.5t17.5 1.5z" />
    <glyph glyph-name="Chi" unicode="&#x3a7;" horiz-adv-x="873" 
d="M394 275q-6 13 -11 27.5t-10 29.5q-5 14 -10 29t-10 31q-12 30 -23 58.5t-22 55.5q-5 6 -6 11l-4 9q-3 3 -6 5l-6 4q-4 0 -8.5 1t-8.5 1h-25q-26 0 -32 10q-11 7 -5 30q7 30 45 30h217q12 0 20.5 -2.5t14.5 -6.5q8 -13 4 -27q-5 -20 -17 -27q-11 -7 -29 -7q-9 0 -16 -0.5
t-13 -0.5h-15q-12 -4 -6 -16l58 -159l37 44q9 11 18.5 21.5t18.5 21.5l35 42l38 47h-32q-37 0 -37 36q0 20 15 27q16 7 30 7h190q11 0 19 -2.5t14 -6.5q4 -6 5.5 -12.5t-0.5 -14.5q-5 -20 -17 -27q-11 -7 -26 -7h-29q-6 -1 -11.5 -2t-9.5 -2q-12 -7 -17 -12l-11 -10l-11 -12
q-26 -28 -49.5 -55t-45.5 -54q-24 -28 -47 -56t-47 -55l10 -30t11 -30q5 -15 10.5 -29.5t11.5 -29.5l21 -61q5 -14 10.5 -28.5t11.5 -28.5q3 -9 7 -16.5t9 -11.5q5 -10 18 -15q9 -7 19 -7q4 -1 9 -1h11q10 0 17.5 -3t13.5 -7q7 -12 6 -29q-6 -31 -44 -31h-227q-38 0 -38 37
q0 16 15 23q13 6 29 6q3 0 7 -0.5t7 -0.5h15q6 -1 10.5 -0.5t9.5 2.5q7 2 8 12q0 4 -1 11t-4 18q-8 22 -15 42.5t-14 39.5l-8 18t-8 19t-8 20.5t-7 22.5l-36 -43q-18 -23 -36 -42q-20 -22 -38 -43l-36 -42q-5 -5 -8 -8.5t-5 -6.5q-7 -7 -5 -9q0 -4 9 -4q3 -2 10 -2h18
q20 0 33 -11q8 -14 3 -30q-10 -29 -43 -29h-202q-23 0 -29 12q-5 5 -6.5 11t-1.5 13q0 20 15 27q11 5 28 7q10 0 18.5 0.5t15.5 2.5q10 0 24 9q4 3 9.5 7.5t11.5 10.5q4 5 11 12.5t16 17.5z" />
    <glyph glyph-name="Psi" unicode="&#x3a8;" horiz-adv-x="816" 
d="M371 187q22 4 40 11.5t32 17.5q12 9 22.5 19.5t18.5 24.5q11 22 22 60q6 30 18 73q4 18 9.5 36.5t11.5 38.5q11 37 30 68q9 15 21 27t27 23q14 9 32 14t41 5q56 0 67 -39q1 -9 2 -17t1 -15q-1 -17 -7 -28q-7 -11 -21 -18q-8 -3 -17 -4.5t-19 0.5q-11 0 -16 5q-5 1 -8 4
t-6 7q-3 3 -5.5 7t-2.5 10q-5 8 1 20q-14 -4 -25 -34q-13 -36 -14 -83q-11 -138 -78 -216q-71 -81 -196 -87l-11 -43q-3 -11 -5 -21t-4 -19q-1 -4 -2 -7.5t-1 -6.5q-2 -8 -2 -10q-2 -6 -2.5 -9.5t-0.5 -4.5q0 -4 10 -4q4 -1 13.5 -1h24.5q50 0 39 -35q-7 -21 -18 -27
q-6 -5 -13.5 -6.5t-15.5 -1.5h-212q-50 0 -39 40q4 16 17 24q12 6 30 6h17.5t15.5 1q11 0 20 5q6 5 12 16q0 7 4 12q1 6 6 19q1 5 2.5 10t2.5 9q1 9 5 18q0 3 1 7.5t2 8.5l2 10t3 11q-17 1 -32 4.5t-29 9.5q-15 5 -28 12.5t-23 18.5q-12 9 -20.5 21.5t-14.5 27.5
q-7 13 -10 29.5t-3 34.5q0 32 12 74q5 20 13 41.5t20 44.5q3 8 6.5 15.5t6.5 14.5q2 7 4.5 14t5.5 13l9 38q0 12 -2 12q-7 -2 -8 -7q-3 -4 -5.5 -8t-4.5 -7q-6 -11 -6 -12q-17 -29 -43 -29q-13 0 -20 6q-14 7 -20 17q-12 11 -10 34q0 18 14 38q11 17 33 24q19 6 47 6
q39 0 69 -18q27 -21 33 -66q1 -14 -1 -32t-6 -40q-6 -23 -13 -45t-14 -43q-6 -15 -10.5 -29.5t-7.5 -27.5q-5 -15 -6.5 -26t-1.5 -19q0 -17 6 -29.5t20 -21.5q23 -19 55 -25q9 39 19.5 78t21.5 78q4 19 9 38t10 39q5 19 10 38.5t11 39.5q3 12 5.5 21t2.5 14t-10 7h-16
q-4 0 -10 0.5t-12 0.5q-40 0 -40 35q0 17 16 27q7 3 14.5 5.5t16.5 2.5h213q20 0 33 -11q9 -14 3 -32q-3 -8 -7 -13t-8 -8q-12 -6 -28 -6h-33q-13 -2 -19 -6q-8 -5 -13 -16q-3 -6 -5.5 -14t-5.5 -18v1z" />
    <glyph glyph-name="uni03A9" unicode="&#x3a9;" horiz-adv-x="785" 
d="M629 159q-45 -51 -94 -77q-26 -14 -49 -23.5t-44 -13.5l-10 -36h27.5t24.5 1q21 0 39 6q16 5 29 17q11 10 23 32q2 6 5 11t6 11q2 3 5 7t8 8q7 7 16 7q22 -2 30 -12q6 -12 1 -32q-7 -20 -8 -32q-4 -13 -6 -26q-4 -12 -8.5 -26.5t-9.5 -29.5q-6 -14 -13 -21
q-5 -5 -12 -6.5t-16 -1.5h-240l47 184q49 1 99 31q45 25 81 67q31 36 54 91q9 25 14.5 51t5.5 53q0 66 -39 111q-41 42 -113 42q-48 0 -90 -18q-23 -10 -42.5 -22.5t-36.5 -27.5q-18 -17 -33 -35t-27 -38q-25 -42 -36 -86q-6 -18 -6 -34q-2 -9 -2 -17.5v-16.5q0 -15 1.5 -29
t5.5 -26q6 -29 24 -48q13 -21 43 -34q13 -7 29.5 -11t37.5 -4l-46 -183h-217q-22 0 -29 12q-11 10 -6 30q1 18 6 36q1 10 3 19.5t5 20.5q2 19 6 35q0 6 1 14.5t4 18.5q0 11 13 19q7 6 21 6q9 0 21 -6q4 -4 7 -9.5t3 -11.5q0 -15 0.5 -27t3.5 -21q1 -11 4.5 -18.5t9.5 -13.5
q5 -6 13 -10.5t19 -5.5q18 -6 56 -1l10 39q-39 8 -65 32q-15 10 -27 23.5t-21 28.5q-23 30 -30 66q-6 17 -8 35t-2 37q0 7 0.5 15.5t2.5 17.5q0 7 2 15t5 17q8 29 21.5 57t33.5 55q18 25 40 48t48 43q49 37 111 62q61 23 121 23q25 0 49.5 -4.5t47.5 -11.5q22 -9 41.5 -20.5
t36.5 -26.5q33 -32 52 -72q18 -42 18 -93q0 -65 -29 -126q-15 -31 -34 -58.5t-43 -51.5z" />
    <glyph glyph-name="alpha" unicode="&#x3b1;" horiz-adv-x="581" 
d="M297 384q30 0 66 -18q43 -25 55 -68q1 6 6 12q1 4 3 7.5t5 8.5q7 15 18 28q8 13 24 19q6 3 14.5 2t17.5 -4q26 -14 24 -40q-2 -8 -5.5 -17.5t-9.5 -21.5l-15 -27l-16 -29l-19 -34q-5 -8 -10 -16.5t-9 -17.5q-11 -18 -20.5 -36.5t-17.5 -36.5q-3 -8 -5.5 -16.5t-3.5 -17.5
q-2 -11 -2.5 -19t-0.5 -14t2 -11.5t7 -8.5q7 -10 17 -10q29 -6 46 -16q15 -14 4 -32q-13 -21 -30 -28q-22 -12 -46 -6q-41 6 -65 30q-8 6 -9 12q-7 7 -8 11q-12 -12 -26 -22.5t-29 -20.5q-17 -11 -34 -16t-34 -5q-37 0 -59 15q-14 7 -25 17t-20 22t-16 25.5t-11 28.5
q-12 31 -8 60q0 22 11 60q8 33 24 68q7 16 16 33t21 34q10 16 22 30.5t26 28.5q27 25 59 42q15 7 31.5 11t34.5 4zM325 306q-31 12 -75 -32q-11 -11 -20.5 -23t-18.5 -24q-10 -14 -18.5 -28t-14.5 -27q-16 -29 -22 -58q-5 -15 -6.5 -29.5t-1.5 -27.5q0 -6 0.5 -11.5
t2.5 -11.5q2 -13 9 -22q6 -12 15 -17q7 -7 22 -7q27 0 56 30q46 51 69 105q20 51 26 113q0 13 -0.5 24.5t-2.5 21.5q-6 17 -20 24z" />
    <glyph glyph-name="beta" unicode="&#x3b2;" horiz-adv-x="584" 
d="M163 -22q-3 -13 -5 -24.5t-4 -21.5q-2 -11 -4 -20t-3 -17l-16 -56q-11 -23 -20 -28q-12 -11 -27 -4q-18 2 -26 19q-11 13 -5 37q5 32 12.5 68t16.5 78q9 40 18.5 81t21.5 83q19 79 44 159q10 38 21 71t22 62q23 62 59 103q36 38 98 38q18 0 34.5 -4t32.5 -10
q15 -8 28 -17t25 -21q10 -12 19 -26.5t16 -30.5q13 -37 13 -71q0 -21 -6 -45q-8 -28 -19 -48q-7 -12 -14.5 -23t-15.5 -20q-9 -11 -19.5 -18t-20.5 -11l8 -13q2 -4 4 -7.5t5 -6.5l12 -36l2 -10t1 -10q1 -5 2 -9.5t2 -8.5q0 -11 0.5 -20t0.5 -18q-2 -17 -5.5 -33.5
t-9.5 -34.5q-14 -37 -34 -68q-11 -16 -23.5 -29t-26.5 -23q-30 -24 -66 -24q-44 -5 -82 12q-39 12 -66 56zM360 247q-9 0 -17.5 0.5t-17.5 2.5q-10 0 -19 2.5t-16 6.5q-16 5 -28 19q-13 12 -9 29q0 26 17 32q13 5 42 -1q1 -1 3.5 -1.5t4.5 -1.5q8 -2 12 -2q5 -3 14 -5t21 -5
q12 -6 27 7q6 5 11 12t11 16l8.5 17t7.5 19q5 19 6 29q1 41 -6 71q-11 26 -44 37q-35 7 -65 -18q-31 -30 -47 -80q-15 -45 -28 -90t-24 -91q-12 -48 -20 -95t-11 -93q4 -14 16 -26q8 -15 24 -22q6 -6 13 -9.5t16 -5.5q14 -6 31 -5q24 0 43 19q15 15 28 41q4 12 8 24.5
t7 26.5q4 25 6 48q0 3 -0.5 6t-0.5 6t-0.5 6.5t-0.5 7.5q-4 12 -6 26q-3 4 -5 11l-2 6t-1 6q-3 5 -5.5 9.5t-3.5 7.5z" />
    <glyph glyph-name="gamma" unicode="&#x3b3;" horiz-adv-x="576" 
d="M180 318q-24 6 -36 -6q-8 -6 -14 -13t-11 -14q-6 -9 -12 -15.5t-12 -12.5q-12 -12 -30 -5q-14 4 -14 28q-1 11 3.5 26t15.5 35q17 34 51 52q30 14 71 12q56 -6 87 -49q29 -47 29 -116v-79q1 4 5 10q3 5 7.5 13.5t10.5 20.5q4 10 10 20.5t13 22.5l24 42q3 4 5.5 9t5.5 9
l12 19l9 15q3 4 5 7.5t5 6.5q44 68 90 32q7 -8 11.5 -16.5t4.5 -17.5q0 -16 -6 -29q-4 -9 -9.5 -17.5t-12.5 -16.5q-55 -61 -98 -125q-49 -67 -84 -136q-9 -15 -16 -30.5t-13 -30.5q-14 -35 -24 -66l-10 -25l-9 -22q-6 -11 -11.5 -20t-11.5 -15q-14 -15 -26 -17
q-18 -6 -30 3q-20 7 -27 29q-10 17 -4 41q0 4 13 30q3 5 6 10.5t6 12.5q4 6 7.5 12.5t8.5 13.5q7 13 15.5 26.5t17.5 27.5l29 43v45q-1 16 -1 40v54q0 27 -4 48t-10 38q-16 29 -42 40z" />
    <glyph glyph-name="delta" unicode="&#x3b4;" horiz-adv-x="566" 
d="M358 200q0 9 -1 19t-2 21q-3 10 -6 19.5t-7 18.5q-6 7 -12.5 14t-13.5 13q-19 11 -42 11q-30 0 -53 -23q-12 -12 -22 -26t-17 -30q-18 -35 -24 -69q-5 -18 -6.5 -34t-1.5 -29q0 -11 0.5 -21t3.5 -20q1 -12 4.5 -21.5t9.5 -18.5q7 -18 27 -29q13 -12 41 -12q30 0 54 24
q22 24 38 58q7 16 12.5 34t10.5 37q3 18 5 34t2 30zM396 333q7 -8 14 -17t13 -18l21 -42q3 -12 6.5 -23.5t6.5 -22.5q0 -6 1 -12t1 -12q1 -5 1.5 -10.5t0.5 -10.5q0 -21 -4 -42.5t-11 -42.5q-16 -45 -42 -82q-15 -20 -31.5 -35t-34.5 -27q-41 -24 -87 -24q-48 0 -83 19
q-40 19 -63 48q-30 31 -41 71q-8 19 -11 40t-3 43q0 20 3.5 41t11.5 42q12 41 40 76q23 33 61 60q17 12 36 20t40 13q-9 11 -17 24t-14 28q-8 14 -11 29.5t-3 33.5q0 10 1.5 20t6.5 21q6 17 23 36q11 13 33 26q9 4 18.5 6.5t20.5 2.5q19 0 38.5 -5.5t39.5 -14.5
q18 -11 35.5 -23t33.5 -27q15 -16 27 -32.5t23 -34.5q19 -38 19 -68q0 -11 -4.5 -20t-11.5 -16q-16 -16 -37 -16q-6 0 -12 1.5t-10 6.5q-12 6 -18 18q-5 4 -8 10l-6 12q-5 6 -6 11q-3 4 -5 11q-3 3 -5 7l-4 8t-4 8.5t-4 9.5q-3 4 -5.5 8t-4.5 8l-9 16l-24 24q-7 4 -14.5 7
t-14.5 5q-6 0 -11 -1l-10 -2q-12 -6 -12 -24q0 -25 13 -47q12 -24 32 -44q18 -22 40 -40q9 -10 18 -19t17 -16z" />
    <glyph glyph-name="epsilon" unicode="&#x3b5;" horiz-adv-x="502" 
d="M330 302q-4 10 -10 21q-5 3 -9.5 6t-10.5 6q-6 1 -13 2.5t-14 2.5h-15q-4 0 -8 0.5t-7 0.5q-34 0 -54 -17q-23 -17 -23 -49q0 -23 11 -34q11 -14 28 -20q8 -4 17 -6.5t20 -2.5q9 -2 18.5 -2.5t18.5 -0.5h25q6 0 11 -1t11 -2q4 -2 8 -4.5t7 -5.5q5 -12 5 -23
q0 -20 -15 -27q-18 -6 -40 -6h-8t-8 1h-17q-52 0 -79 -21q-28 -22 -28 -58q0 -42 31 -61q15 -12 36 -17t49 -5q13 0 26 3t25 11q20 12 24 45q0 12 6 26q1 6 4.5 11t8.5 11q7 9 21 15q6 2 12.5 2.5t14.5 0.5q24 -6 36 -26q6 -12 6.5 -23.5t-2.5 -23.5q-5 -15 -11.5 -27.5
t-15.5 -22.5q-20 -24 -44 -38q-27 -17 -55 -23q-15 -5 -31 -7t-31 -2q-18 0 -36 1.5t-36 6.5q-20 3 -36.5 9.5t-31.5 15.5q-16 9 -29 20t-22 26q-11 13 -15.5 30.5t-4.5 38.5q0 19 4.5 36t15.5 32q9 14 23.5 26t32.5 22q-14 7 -24.5 17.5t-18.5 24.5q-18 24 -18 60
q0 16 4 31t13 28q17 24 43 41q25 14 58 24q15 3 30 5t30 2q13 0 27.5 -1t30.5 -2q15 -3 30 -6.5t30 -8.5q13 -6 25.5 -14t24.5 -17q10 -11 17 -24.5t10 -29.5q1 -12 -1 -22.5t-8 -17.5q-12 -16 -32 -23q-33 -6 -47 13q-18 17 -20 47z" />
    <glyph glyph-name="zeta" unicode="&#x3b6;" horiz-adv-x="515" 
d="M261 615q4 -6 7 -12t4 -10q0 -12 -4 -19q-3 -6 -7.5 -10.5l-8.5 -8.5q-13 -13 -24 -20q-18 -16 -28 -28q-12 -17 -12 -26q0 -7 4 -10q2 -8 10 -8q12 -5 25 1q6 1 12.5 3.5t14.5 6.5q6 3 12.5 7t13.5 10q6 4 11 8.5t11 9.5q6 6 14.5 13.5t17.5 15.5q8 6 16 11.5t17 9.5
q6 2 12.5 4t13.5 5q6 1 11.5 2.5t10.5 1.5q33 0 46 -27q8 -19 0 -37q-11 -21 -27 -37q-9 -9 -19 -17.5t-19 -14.5q-11 -8 -19.5 -13t-14.5 -8q-14 -8 -29 -14.5t-30 -12.5q-35 -17 -64 -18l-36 -49q-10 -14 -19 -28t-16 -28q-9 -15 -15.5 -29.5t-11.5 -29.5q-11 -28 -11 -60
q0 -44 27 -67q13 -14 32 -20t43 -6q58 -1 93 -25q30 -23 41 -75q4 -32 -9 -60q-8 -14 -17.5 -25.5t-21.5 -20.5q-13 -10 -27 -17.5t-29 -11.5q-32 -11 -62 -11h-14t-17 1q-19 0 -37 6q-20 5 -31 16q-13 7 -13 30q0 9 4.5 17.5t15.5 17.5q17 13 59 13q1 -1 2 -1h6
q2 -1 4 -1.5t5 -0.5q9 -4 26 -4q6 -2 13 -2h15q7 0 14 0.5t14 3.5q6 1 9 5t5 10q1 16 -27 22q-20 1 -38 5t-36 10q-18 4 -34.5 11.5t-30.5 17.5q-15 9 -26.5 22t-19.5 29q-18 30 -18 76q0 18 2 37t8 38q4 18 11 36t16 36q7 17 16 34t20 35q9 16 19 32t21 32q-25 12 -38 38
q-8 11 -11 25.5t-3 32.5q0 14 3.5 28t12.5 28q7 12 17 24.5t24 24.5q64 49 93 20z" />
    <glyph glyph-name="eta" unicode="&#x3b7;" horiz-adv-x="531" 
d="M145 269q-5 18 -10 28q-11 10 -24 6q-9 -3 -17 -4.5t-14 0.5q-14 0 -20 10q-9 5 -9 19q-1 6 0.5 12t6.5 14q7 16 32 27q21 6 45 5q14 -2 26.5 -7t23.5 -12q9 -9 18 -19t17 -22q19 22 54 42q15 9 30.5 14t32.5 5q70 0 111 -43q37 -44 32 -112q-2 -12 -4 -27t-5 -31
q-7 -34 -18 -73l-12 -40l-12 -39q-7 -20 -15 -40l-12 -37l-14 -34q-7 -18 -12 -29q-7 -15 -12.5 -25.5t-9.5 -16.5q-16 -24 -32 -31q-17 -10 -40 2q-49 20 -24 71q9 17 18.5 35t18.5 38q8 18 16 37.5t16 40.5q9 24 19 50.5t19 55.5q8 27 13.5 55.5t8.5 57.5q0 12 -2 23
t-7 20q-12 18 -45 18q-9 0 -18 -4t-18 -10q-9 -8 -17.5 -16.5t-15.5 -17.5q-8 -11 -14.5 -21.5t-11.5 -20.5q-6 -12 -10.5 -22t-6.5 -19q-4 -12 -7 -24l-6 -24l-14 -51q-5 -15 -7 -29q-2 -8 -4 -15.5t-4 -14.5q-18 -61 -41 -85q-24 -29 -50 -16q-30 12 -30 49q0 15 11 43
q5 13 11.5 26.5t15.5 28.5q12 21 21.5 45.5t17.5 51.5q14 55 10 102z" />
    <glyph glyph-name="theta" unicode="&#x3b8;" horiz-adv-x="541" 
d="M353 613q19 -5 35.5 -12.5t30.5 -19.5q12 -12 22.5 -26.5t19.5 -30.5q7 -17 13 -35.5t10 -37.5q3 -21 5 -41t2 -40q0 -46 -6 -86q-4 -21 -8.5 -40t-8.5 -34q-17 -47 -36 -96q-12 -27 -24.5 -51t-27.5 -45q-15 -23 -33 -41t-37 -32q-41 -29 -93 -29q-24 0 -44.5 5.5
t-35.5 17.5q-35 23 -52 61q-10 18 -17 39t-10 45q-5 22 -6.5 45.5t-1.5 47.5q0 20 1 39.5t4 38.5q1 18 4 34.5t7 31.5q18 66 48 126q25 54 67 98q14 14 30.5 26.5t34.5 23.5q17 10 36.5 15.5t40.5 5.5q7 0 14.5 -1t15.5 -2zM254 491q-12 -17 -22.5 -36.5t-20.5 -43.5
q-22 -48 -36 -100h204q2 27 6 52v24q0 6 0.5 12t0.5 12q0 3 -0.5 7.5t-0.5 8.5q0 5 -0.5 9.5t-0.5 10.5q-2 10 -3.5 20t-3.5 21q-3 9 -6.5 17.5t-7.5 17.5q-10 13 -23 18q-11 2 -21.5 -0.5t-21.5 -8.5q-25 -17 -43 -41zM157 242q-3 -18 -5.5 -34t-2.5 -31q-2 -15 -2.5 -29.5
t-0.5 -27.5q0 -9 0.5 -19t2.5 -20q0 -11 2.5 -21t5.5 -19q5 -22 14 -32q8 -17 23 -18q21 -8 42 3q20 8 38 31q8 10 16 22t16 27q6 13 13 28t13 30q5 15 9.5 29.5t9.5 29.5q1 7 2.5 13.5t2.5 13.5q2 6 3 12t3 12h-205z" />
    <glyph glyph-name="iota" unicode="&#x3b9;" horiz-adv-x="323" 
d="M205 399q19 -6 30 -21q8 -20 4 -39q-5 -17 -9.5 -33.5t-10.5 -32.5q-7 -17 -14 -33.5t-13 -31.5q-9 -20 -16.5 -39.5t-13.5 -39.5q-16 -41 -24 -91q-6 -26 24 -30q6 -5 19 0q9 0 19 10q26 26 43 27q14 0 27 -25q3 -9 2 -17t-5 -17q-10 -19 -35 -42q-12 -11 -23.5 -17
t-22.5 -9q-12 -3 -24 -4.5t-23 0.5q-35 2 -54 23q-23 18 -29 47q-3 9 -4 19t-1 21v18t2 14q5 33 12.5 65.5t18.5 64.5q4 15 8.5 31t9.5 33q5 16 9.5 32.5t9.5 34.5q0 8 4 15q1 7 6 18q3 7 6.5 14.5t8.5 14.5q7 12 24 18q6 3 15 3t20 -1z" />
    <glyph glyph-name="kappa" unicode="&#x3ba;" horiz-adv-x="550" 
d="M213 385q10 -3 18.5 -6.5t14.5 -8.5q12 -12 12 -31q0 -6 -2 -13t-5 -15l-16 -37q-2 -5 -3.5 -9t-3.5 -8q-4 -7 -6 -17q-5 -9 -8 -18t-5 -17h18q19 0 34 22l15 25q4 7 8.5 15.5t10.5 18.5q26 51 62 81q33 27 76 21q27 -6 48 -23q19 -21 19 -56q-1 -30 -19 -40
q-18 -12 -41 -12q-8 0 -14.5 1.5t-12.5 6.5q-14 5 -20 22q-6 -3 -11 -6.5t-9 -9.5q-6 -7 -9.5 -13.5t-5.5 -12.5q-6 -13 -12.5 -25t-13.5 -23q-18 -25 -39 -41q30 -30 30 -68q0 -21 0.5 -36t2.5 -24q2 -23 11 -24q6 0 19 8q4 3 8 6.5t7 9.5q12 28 30 40q12 9 35 3l15 -13
q1 -5 2.5 -9.5t1.5 -8.5q0 -6 -1 -11t-2 -9l-4 -11q-1 -3 -2 -5t-1 -4q-20 -41 -49 -66q-28 -27 -72 -27q-31 0 -47 11q-21 8 -29 29q-6 9 -10 21t-5 27q-3 13 -3.5 28t-0.5 32v21q0 2 -0.5 4.5t-0.5 5.5v11l-3 8q-2 6 -2 8q-5 7 -9 7l-28 2q-4 -12 -7 -24.5t-6 -24.5
q-4 -14 -6.5 -26t-3.5 -21q-4 -13 -6 -26q-1 -6 -2.5 -12t-2.5 -12q-3 -12 -7 -22.5t-8 -18.5q-10 -16 -23 -20q-20 -7 -36 3q-27 10 -27 44v8t2 11q0 9 6 21q1 3 2 6.5t3 8.5q1 5 3 10.5t5 12.5q1 10 8 25q2 7 4 14.5t5 15.5l9 31l10 34l9 33q2 9 4.5 17.5t5.5 17.5l8 32
q2 8 4 15.5t5 15.5q1 7 2.5 13.5t2.5 12.5q2 7 3 12.5t3 11.5q5 27 20 38q14 8 38 6z" />
    <glyph glyph-name="lambda" unicode="&#x3bb;" horiz-adv-x="503" 
d="M182 558q0 23 12 35q5 5 12 8t16 5q8 0 17 -0.5t20 -2.5q9 -3 17.5 -7.5t17.5 -8.5q13 -11 24.5 -23t20.5 -24q7 -14 13 -27.5t11 -27.5q3 -15 5.5 -31t3.5 -31q0 -17 -0.5 -33.5t-0.5 -32.5v-73q0 -18 0.5 -36t2.5 -35q1 -18 4 -36t8 -34q6 -36 25 -69q3 -8 6.5 -15
t8.5 -14q1 -8 6 -16q2 -4 3.5 -7.5t3.5 -6.5q1 -4 2.5 -8t2.5 -7q2 -9 5 -13q0 -4 1 -7t1 -5l2 -8q0 -5 -1 -9l-2 -8q-3 -6 -5.5 -10.5t-5.5 -7.5q-4 -5 -8 -8t-8 -5q-9 -5 -19 -5q-9 0 -17.5 3.5t-14.5 12.5q-8 7 -14 16.5t-11 20.5q-6 10 -10.5 21.5t-7.5 23.5
q-11 19 -12 36q-7 21 -11 44t-5 47q-3 22 -4 47.5t-1 54.5l-3 -3v-1q-2 -2 -2 -3l-1 -2q-16 -25 -31 -50.5t-30 -52.5q-16 -27 -28 -56.5t-21 -60.5q-8 -24 -17 -43.5t-20 -34.5q-12 -16 -25.5 -22t-26.5 -1q-19 5 -29 18q-12 12 -12 30q0 32 17 62q4 7 8 14.5t9 14.5l18 30
q24 38 47.5 74t47.5 70q43 66 96 138q0 1 0.5 2.5t0.5 4.5l3 10v12q0 4 0.5 8.5t1.5 9.5q0 28 -16 50q-18 19 -46 37q-18 7 -30 19q-12 6 -16 16q-7 7 -7 14q-2 3 -2 6v7z" />
    <glyph glyph-name="uni03BC" unicode="&#x3bc;" horiz-adv-x="560" 
d="M69 -71q4 9 9 20t11 26l9 27l10 29l16 58q1 6 2.5 12.5t2.5 13.5q2 6 3 11.5t3 11.5q8 51 24 100q6 24 15.5 49.5t21.5 52.5q14 35 37 47q18 11 48 -2q12 -8 18 -18.5t6 -25.5q0 -8 -1.5 -15.5t-3.5 -16.5q-3 -9 -7.5 -19t-8.5 -19l-15 -30l-14 -27l-15 -30
q-4 -7 -7 -14.5t-6 -14.5q-7 -15 -13 -30.5t-10 -30.5q-6 -17 -9.5 -33.5t-6.5 -32.5q1 -3 3.5 -6.5t5.5 -6.5q4 -8 12 -12q8 -8 16 -8q9 -5 20 -1q36 6 58 28q17 17 28 42q6 16 11.5 34.5t11.5 39.5q2 9 4.5 19t5.5 20l12 42q1 12 6 24q2 7 3.5 13.5t3.5 13.5q1 12 6 24
q1 6 3 12.5t4 13.5q1 6 3.5 12t5.5 13q6 11 15 22q7 7 21 14q11 1 27 0q17 -6 28 -18q3 -8 5.5 -15.5t2.5 -14.5q0 -9 -1.5 -17.5t-3.5 -17.5q-5 -11 -6 -18l-4 -12q-6 -14 -11 -27.5t-9 -26.5l-12 -28q-3 -7 -5.5 -14t-4.5 -13q-6 -12 -11 -23t-9 -22q-12 -23 -18 -49
q-4 -9 -4 -16q-2 -5 -2.5 -9.5t-0.5 -7.5q0 -10 4 -14q1 -7 14 -7q3 0 6.5 0.5t6.5 3.5q3 1 6 3.5t6 5.5t7 6.5t9 6.5q6 6 20 6q11 0 18 -13q1 -8 1 -16.5t-2 -17.5q-3 -9 -6.5 -16.5t-7.5 -14.5q-5 -9 -10.5 -15.5t-11.5 -12.5q-7 -6 -14.5 -10t-14.5 -6q-17 -6 -34 0
q-22 6 -34 18q-17 11 -22 25q-15 -13 -28.5 -22t-25.5 -13q-14 -6 -28 -8.5t-27 -2.5q-26 0 -43 7q-19 6 -35 24q-2 -8 -2.5 -15.5t-0.5 -13.5q-4 -15 -4 -32q-6 -44 -26 -64q-23 -22 -41 -16q-38 10 -38 51q0 10 6 30q2 9 5 18.5t8 21.5z" />
    <glyph glyph-name="nu" unicode="&#x3bd;" horiz-adv-x="483" 
d="M139 383q41 14 65 -40q4 -11 7.5 -22.5t6.5 -23.5q0 -7 1 -13.5t1 -13.5q1 -6 1.5 -12.5t0.5 -12.5q0 -7 -0.5 -14t-1.5 -14q0 -6 -1 -13t-1 -14q-3 -15 -5.5 -29.5t-5.5 -27.5q-4 -15 -8 -28.5t-8 -25.5q-6 -14 -11 -25t-10 -20q16 8 32.5 19t33.5 25q33 26 60 61
q27 33 44 72q16 36 18 78q0 24 4 43t12 31q12 24 33 19q26 -11 26 -54q0 -4 -0.5 -8t-0.5 -9v-18l-4 -22q0 -6 -1 -11.5t-2 -11.5q-18 -105 -77 -185q-60 -84 -161 -128q-23 -11 -43 -17t-38 -8q-38 -6 -48 9q-18 18 8 72l10 22l12 26q5 12 10 26t10 29q3 13 7 27t7 29
q2 13 3 26.5t1 26.5l-6 38q-3 12 -6 31.5t-6 48.5q-4 21 6 39q7 15 25 23z" />
    <glyph glyph-name="xi" unicode="&#x3be;" horiz-adv-x="509" 
d="M265 236q-17 1 -32 -1t-27 -8q-14 -7 -25 -16t-20 -19q-9 -12 -15.5 -24t-9.5 -25q-5 -14 -5 -26.5t3 -23.5q6 -26 27 -38q19 -17 58 -13q56 0 92 -24q32 -29 38 -79q2 -30 -8 -52q-6 -12 -14.5 -22.5t-17.5 -19.5q-11 -9 -22.5 -16t-23.5 -11q-14 -6 -27 -8t-26 -2
q-41 0 -48 34q-6 18 14 37q17 16 53 16q26 -2 30 19q0 7 -13 14q-8 3 -15.5 5t-15.5 4q-5 0 -9.5 1t-8.5 2q-5 1 -9 2l-8 2q-5 0 -8.5 0.5t-6.5 1.5q-8 2 -9 3q-31 8 -50 27q-21 15 -33 38q-13 19 -18 45q-3 11 -4 23t-1 24q0 58 25 100q25 38 72 74q-8 7 -14 15.5t-11 19.5
q-6 9 -8.5 20t-2.5 23q0 50 21 77q19 25 48 43v9t1 11q0 5 0.5 10t2.5 11q12 49 51 73q39 25 88 25q22 0 39 -6q13 -8 14 -31q0 -50 -84 -45q-18 0 -27 -9q-11 -11 -11 -18q11 0 22.5 0.5t23.5 2.5q10 0 22 1t25 1q3 0 6.5 -0.5t7.5 -0.5t8.5 -0.5t10.5 -0.5q9 -2 19 -4.5
t20 -5.5q19 -8 31 -20q6 -7 7.5 -16t0.5 -19q-6 -22 -20 -28q-8 -5 -18 -6.5t-22 -1.5q-18 0 -35.5 2t-33.5 7q-18 3 -35 5t-35 2q-8 0 -15 -1.5t-13 -2.5q-8 -3 -14 -6t-11 -6q-6 -5 -10.5 -9.5t-7.5 -10.5q-8 -12 -6 -28q0 -36 34 -32h11.5t18.5 2h22q5 0 11.5 0.5
t13.5 0.5q12 0 25 -1t27 -1q12 -2 24 -5t23 -6q9 -5 17.5 -10.5t14.5 -11.5q5 -8 6.5 -17.5t0.5 -21.5q-7 -26 -24 -32q-10 -5 -20.5 -6.5t-22.5 -0.5q-13 0 -26 2t-25 5q-14 3 -26 5t-22 4z" />
    <glyph glyph-name="omicron" unicode="&#x3bf;" horiz-adv-x="527" 
d="M269 400q41 0 84 -19q37 -23 66 -52q25 -34 43 -74q7 -21 11 -42.5t4 -42.5q0 -24 -4.5 -47t-11.5 -45q-18 -48 -45 -82q-15 -19 -33 -34t-37 -26q-40 -23 -89 -23t-84 19q-38 17 -65 50q-15 15 -25.5 34t-17.5 40q-8 20 -11.5 41t-3.5 44q0 24 3.5 47t12.5 47
q14 46 44 83q28 36 69 59q38 23 90 23zM247 -17q33 0 57 24q23 21 39 57q7 16 12.5 33.5t10.5 37.5q3 18 5 34t2 31q0 6 -0.5 11.5t-1.5 11.5q0 6 -1 12t-1 12q-3 11 -7 21.5t-8 19.5q-12 17 -29 29q-19 11 -45 11q-18 0 -32 -5.5t-26 -14.5q-13 -11 -23.5 -23t-17.5 -27
q-9 -15 -14.5 -31.5t-8.5 -33.5q-5 -18 -6.5 -35t-1.5 -32q0 -24 6 -48q5 -26 17 -46q11 -23 30 -35q9 -8 19.5 -11t24.5 -3z" />
    <glyph glyph-name="pi" unicode="&#x3c0;" horiz-adv-x="573" 
d="M68 240q-22 12 -16 36q1 10 6.5 22t14.5 26q13 23 48 37q30 11 68 13h66q16 -2 32.5 -2h34.5q16 -1 33.5 -1t35.5 2q33 0 72 11q29 6 46 -5q14 -12 14 -48q-6 -47 -39 -53h-10q-5 -1 -10 -1h-9h-18t-18 1q-10 0 -19 -1t-17 -1q-6 -27 -11.5 -55.5t-9.5 -57.5
q-5 -30 -7 -59.5t-2 -56.5v-7t1 -7q0 -10 4 -15q2 -8 8 -10q5 -5 12 1q6 3 12.5 5.5t14.5 2.5q34 0 28 -46q-2 -8 -5 -14.5t-8 -12.5q-6 -6 -13 -11.5t-14 -8.5q-9 -4 -17 -6.5t-16 -2.5q-19 -5 -32 2q-11 3 -19 8t-14 11q-13 13 -18 27q-7 16 -7 35q-2 9 -2 18t1 20
q0 15 2.5 31t5.5 34q1 8 2.5 16.5t2.5 16.5t2.5 15.5t3.5 15.5q1 7 2.5 14t2.5 14q2 15 6 28q2 25 6 59h-59q-5 -16 -7 -34q-5 -18 -6 -34q-6 -22 -10.5 -44t-8.5 -44q-6 -24 -12.5 -47t-14.5 -46l-11 -29q-3 -6 -5 -12t-4 -10q-5 -11 -10 -20t-10 -16q-11 -12 -22 -18
q-8 -5 -15 -6.5t-13 -1.5q-18 0 -29 11q-13 10 -13 36q0 24 13 47q6 12 11.5 22t11.5 19q9 13 17 26.5t15 27.5q12 24 22 51q4 12 8 26t7 29l12 64l-33 -4q-19 -6 -24 -17q-13 -20 -23 -20q-13 -4 -24 4z" />
    <glyph glyph-name="rho" unicode="&#x3c1;" horiz-adv-x="556" 
d="M408 181q0 9 -1.5 19.5t-3.5 22.5q-3 11 -7 21.5t-8 21.5q-12 18 -28 34q-9 6 -19.5 10t-22.5 4q-17 0 -30.5 -5.5t-24.5 -15.5q-12 -11 -21.5 -23.5t-16.5 -27.5q-8 -16 -13.5 -32.5t-8.5 -32.5q-4 -18 -5.5 -33.5t-1.5 -27.5q0 -11 0.5 -21.5t3.5 -20.5q1 -23 14 -42
q7 -19 27 -32q13 -13 41 -13q16 0 31 4.5t27 14.5q12 9 21.5 21t17.5 27q7 14 12.5 29.5t9.5 33.5q3 16 5 32.5t2 31.5zM294 -84q-50 0 -84 27q-20 12 -37 28t-31 35v-12.5t1 -13.5v-14.5t1 -11.5q0 -9 0.5 -20.5t2.5 -23.5v-26.5t-1 -24.5q-2 -12 -5.5 -22.5t-9.5 -18.5
q-14 -18 -40 -18q-25 0 -32 19q-5 9 -7 22t-2 31q0 33 2.5 66.5t8.5 68.5q5 33 11.5 67t15.5 69q8 39 26 83q17 43 44 77q12 17 28 31.5t35 26.5q37 23 87 23q43 0 79 -18q18 -10 33.5 -22.5t29.5 -27.5q24 -32 41 -70q7 -21 11 -41.5t4 -41.5t-4 -42t-11 -42
q-8 -23 -18.5 -42.5t-23.5 -37.5q-31 -38 -67 -59q-41 -24 -88 -24z" />
    <glyph glyph-name="sigma" unicode="&#x3c3;" horiz-adv-x="515" 
d="M463 338q-7 -15 -13 -17q-5 -3 -10 -3.5t-11 -0.5h-13t-13 1h-28q18 -14 32.5 -31t25.5 -36q10 -21 15.5 -43.5t5.5 -47.5q0 -62 -29 -123q-8 -13 -16.5 -25t-17.5 -22q-11 -12 -21.5 -22t-22.5 -19q-13 -9 -26.5 -16t-26.5 -11q-15 -6 -30 -8t-30 -2q-21 0 -40 3.5
t-35 12.5q-18 7 -32 18t-26 25q-25 26 -37 65q-8 18 -11 37t-3 40q0 43 18 91q6 18 15.5 35t21.5 35q11 16 24.5 31t30.5 29q32 27 71 46q38 18 83 24q13 1 28 1.5t31 0.5q15 -2 29.5 -5t29.5 -9q8 -5 14.5 -11t12.5 -12q4 -8 5.5 -15.5t-1.5 -15.5zM190 -5q19 -12 44 -4
q10 3 20.5 8t20.5 14q9 7 17.5 16.5t16.5 20.5q7 10 13 20t11 19l22 56q6 25 6 55q0 15 -5.5 28.5t-14.5 25.5q-23 23 -54 23q-9 0 -18 -2.5t-16 -5.5q-9 -5 -17 -10.5t-15 -11.5q-8 -8 -15 -15.5t-13 -15.5q-7 -9 -13 -17.5t-10 -17.5q-12 -23 -18 -47q-7 -27 -7 -53
q0 -14 2 -26t8 -23q8 -26 35 -37z" />
    <glyph glyph-name="tau" unicode="&#x3c4;" horiz-adv-x="536" 
d="M301 291q-24 -48 -36 -96q-8 -24 -14 -49t-12 -49l-4 -13q-1 -4 -2 -7.5t-1 -6.5q-3 -9 -3.5 -16.5t-0.5 -13.5q0 -14 6 -20q6 -10 15 -11q9 -5 20 -1q10 0 22 6q22 9 46 3q17 -10 17 -30q-2 -20 -12 -32q-11 -15 -30 -23q-20 -11 -40 -13q-22 -6 -43 -4q-60 0 -80 39
q-24 36 -12 91q0 8 5 21l11 34l13 42q8 25 19 53l9 30q3 8 5 14.5t5 13.5q6 23 11 37q-15 0 -29.5 -0.5t-28.5 -0.5q-31 -5 -43 -22t-24 -22q-15 -6 -29 8q-14 11 -10 34q0 22 22 53q7 11 19 19.5t27 14.5q14 4 31 7t38 3q8 0 17 -0.5t18 -0.5h37q18 -2 39.5 -2h47.5
q52 0 81 12q27 11 45 -1q13 -13 13 -51q-6 -51 -35 -53q-5 -2 -9.5 -2t-9.5 1h-12q-2 0 -4.5 0.5t-4.5 0.5h-27t-26 1h-28q-7 0 -14.5 0.5t-14.5 1.5z" />
    <glyph glyph-name="upsilon" unicode="&#x3c5;" horiz-adv-x="525" 
d="M99 315q0 18 3 32.5t11 24.5q13 19 43 19t43 -19q11 -20 11 -45q0 -12 -2 -23.5t-5 -23.5q-2 -7 -4 -12.5t-3 -11.5l-6 -17l-20 -44q-6 -12 -11 -23.5t-9 -23.5q-5 -12 -8.5 -24.5t-6.5 -24.5q-7 -27 -7 -52q0 -12 3.5 -23.5t11.5 -20.5q13 -21 41 -21q12 0 25 3.5
t27 12.5q25 16 55 52q13 16 24.5 35t22.5 40q19 39 31 82q11 43 5 75q-2 10 -2.5 19t-0.5 18q0 51 44 51q16 -1 30 -10q10 -12 18 -24q3 -8 5 -16t4 -17l2 -18t1 -18v-18q-1 -6 -2 -10.5t-1 -7.5q-6 -22 -14.5 -46.5t-20.5 -51.5q-25 -57 -61 -105q-19 -26 -40 -47t-43 -37
q-24 -18 -49 -26t-50 -8q-76 0 -111 41q-38 38 -32 109q0 14 2.5 27.5t6.5 25.5q2 11 6 23q1 6 3 12t4 13q4 18 8.5 37.5t9.5 39.5q3 18 5.5 37.5t2.5 39.5z" />
    <glyph glyph-name="phi" unicode="&#x3c6;" horiz-adv-x="526" 
d="M50 136q0 43 18 90q17 44 48 79q15 17 33.5 30.5t40.5 24.5q21 9 43.5 13t48.5 2q40 -6 46 -27q2 0 4 0.5t4 0.5t3.5 0.5t3.5 0.5q27 0 54 -21q12 -11 22.5 -23.5t19.5 -27.5q8 -16 14.5 -32.5t12.5 -32.5q4 -18 7 -33t3 -28q0 -23 -4 -44t-11 -42q-9 -21 -20 -40
t-25 -35q-30 -35 -72 -54q-42 -23 -96 -24q-1 -3 -2 -5t-1 -4q-1 -3 -1 -8l-3 -11q0 -2 -0.5 -4.5t-0.5 -4.5q-8 -47 -28 -61q-23 -17 -49 -5q-26 8 -28 25q-4 12 4 40q1 7 4 14t7 15q2 7 6 14q2 4 3.5 8t3.5 9q-26 13 -44 37q-22 19 -36 49q-18 25 -24 57q-5 14 -7 28.5
t-2 29.5zM262 -17q24 8 47 32q19 19 36 50q7 13 12.5 28t10.5 31q3 15 5.5 29.5t2.5 28.5t-2.5 28t-6.5 28q-5 13 -11 25t-12 23q-10 0 -16 -13q-5 -8 -8.5 -16.5t-6.5 -18.5q-4 -11 -7 -22t-5 -21q-2 -6 -3 -11.5t-2 -10.5l-2 -8t-1 -7q0 -1 -0.5 -1.5t-0.5 -1.5v-2
q-1 -2 -1.5 -3.5t-0.5 -4.5q-2 -6 -2 -12l-4 -22q-1 -7 -2.5 -14.5t-2.5 -15.5q-2 -9 -4 -20t-4 -23zM230 225q7 22 18 43q4 10 10.5 20t15.5 21q-38 -11 -68 -42q-17 -18 -29 -41t-20 -51q-5 -14 -5 -29q-2 -8 -2 -16v-16q0 -32 7 -56q3 -14 9 -26t17 -22q3 13 7 27.5
t7 29.5q1 6 2 13t3 14q1 13 6 30q2 14 5 27.5t6 27.5q2 12 5 23.5t6 22.5z" />
    <glyph glyph-name="chi" unicode="&#x3c7;" horiz-adv-x="532" 
d="M215 154q-6 24 -6 50l-4 24q0 6 -1 12.5t-2 13.5q0 1 -1 5.5t-2 10.5l-4 11l-4 12q-5 5 -6 8q-1 2 -2.5 3.5t-2.5 3.5q-10 2 -15 -7q-41 -50 -64 -17q-12 12 -7 33q2 20 18 39q6 9 15 16.5t21 15.5q21 13 48 13q37 0 62 -27q11 -15 17 -34t8 -42v-28v-6.5t1 -6.5v-8.5
t2 -9.5q4 5 9 11l10 12l10 12t11 12q9 12 18 24.5t18 26.5q6 10 12.5 20t15.5 21q15 20 35 20q6 0 19 -5q4 -5 9 -6q5 -5 10 -6q3 -5 7 -9.5t7 -8.5q5 -13 5 -20t-2.5 -13t-5.5 -12q-5 -7 -10 -13t-11 -12t-13 -12t-13 -11q-8 -6 -14 -12l-11 -11q-8 -7 -14.5 -13.5
l-13.5 -13.5l-26 -26q-14 -14 -25.5 -28t-20.5 -27q1 -17 8 -37q2 -10 5 -19l6 -18t6 -17.5t8 -15.5q6 -17 13 -19q14 -6 24 5q34 49 61 20q3 -6 5.5 -14t3.5 -17q0 -10 -4.5 -21t-11.5 -23q-18 -23 -35 -35q-10 -7 -19 -11t-17 -4q-10 -4 -24 3q-17 5 -28 14q-8 4 -14 10.5
t-12 14.5q-15 15 -21 33q-4 7 -7 15.5t-4 17.5q-3 7 -5 15.5t-4 17.5q-2 -2 -2.5 -3t-1.5 -2l-1 -1l-3 -3q-1 -1 -1 -2t-1 -1q-6 -7 -11 -13.5t-10 -13.5l-20 -24q-11 -14 -22.5 -26.5t-23.5 -24.5t-22.5 -17t-20.5 -5q-9 0 -17.5 3.5t-15.5 12.5q-16 13 -11 36q0 17 17 34z
" />
    <glyph glyph-name="psi" unicode="&#x3c8;" horiz-adv-x="572" 
d="M141 51q0 -9 1 -17t4 -14q1 -16 19 -24q9 25 17.5 51.5t14.5 55.5q6 27 11 55t11 58q1 12 3.5 25t5.5 26q1 12 4 24t7 25q3 14 9.5 24.5t15.5 18.5q15 13 41 7q12 -4 20 -11t13 -16q6 -22 0 -46q-5 -20 -10.5 -39t-12.5 -37q-9 -20 -16 -40t-13 -39l-10 -29q-3 -7 -5 -14
t-4 -13q-5 -15 -9.5 -29.5t-7.5 -29.5q-3 -9 -4 -15t-1 -8t-0.5 -3.5t-0.5 -2.5l-1 -2q8 3 16 8t16 11q7 5 14 11t15 14q9 10 15.5 22.5t12.5 27.5q8 26 14 64q1 20 5 39.5t10 39.5q11 38 28 66q3 5 6.5 11t8.5 12q4 6 9.5 11.5l11.5 11.5q5 4 11.5 8.5t14.5 9.5q6 3 14 5
t17 4q6 0 11.5 -1t10.5 -2q4 -3 7.5 -5.5t6.5 -5.5q1 -4 2.5 -8t1.5 -7q0 -5 -1.5 -8t-3.5 -6q-5 -6 -9 -9.5t-7 -5.5l-17 -10q-29 -16 -35 -114q-3 -29 -8 -54t-12 -47q-17 -47 -47 -82q-32 -38 -74 -56q-23 -10 -43.5 -16.5t-38.5 -9.5v-2q-1 -1 -1 -2v-1q-4 -11 -6 -27
q-4 -9 -4 -15q-1 -4 -2 -6.5t-1 -4.5q-10 -29 -28 -47q-10 -9 -22.5 -12t-27.5 2q-18 4 -30 23q-15 18 -3 41q1 3 3.5 6.5t5.5 6.5q1 0 2 1t3 2q3 3 6 4q9 4 15 16q1 10 6 22q-43 14 -67 54q-13 18 -19 40t-6 46q0 14 1.5 29.5t6.5 33.5q7 34 22 68q10 24 18 48q3 10 5 19.5
t2 18.5q0 8 -5 16q-5 1 -6 6q-1 2 -2.5 4t-2.5 4q-4 3 -7 6t-5 8q-5 5 -5 17q0 11 12 22q10 6 39 0q30 -10 45 -31q7 -12 11 -24t6 -23q1 -15 0 -32t-4 -35q-3 -10 -5 -20t-5 -20q-2 -10 -4.5 -20t-5.5 -20q-5 -12 -8 -25t-6 -25q-6 -29 -6 -42z" />
    <glyph glyph-name="omega" unicode="&#x3c9;" horiz-adv-x="572" 
d="M231 378q7 0 13.5 -3t12.5 -7q4 -6 7 -11.5t4 -10.5q0 -16 -13 -29q-8 -8 -17.5 -16.5t-21.5 -17.5q-10 -9 -18 -18.5t-14 -20.5q-8 -12 -13.5 -25t-8.5 -26q-5 -15 -8.5 -29t-4.5 -27q-3 -15 -3.5 -28.5t0.5 -25.5v-12t2 -13q0 -18 6 -30q1 -8 4 -14.5t7 -10.5
q5 -11 19 -11q17 0 32 21q6 10 9.5 22.5t5.5 27.5q1 21 3.5 40.5t5.5 37.5q1 34 12 64q1 6 3.5 14t6.5 17q6 17 17 34q4 7 10 14t14 13q13 8 34 7q9 -2 17 -6.5t14 -12.5q11 -19 11 -39q0 -11 -1.5 -21t-2.5 -19q-3 -11 -6 -20.5t-6 -18.5q-4 -10 -8 -19.5t-7 -18.5
q-5 -10 -8.5 -20t-6.5 -19q-5 -11 -8.5 -21.5t-6.5 -20.5q-5 -12 -6.5 -22.5t-1.5 -19.5q0 -14 7 -21q5 -11 21 -11q13 0 24.5 6t20.5 20q8 12 14.5 27.5t12.5 34.5q4 18 7.5 36.5t6.5 39.5q1 19 2 35.5t1 31.5q0 9 -1 19t-1 20l-8 32q-6 12 -6 27q-2 6 -2.5 12.5t-0.5 12.5
q-2 12 2 22q0 7 7 14q49 43 89 -81q1 -6 2.5 -11.5t2.5 -12.5q1 -6 2.5 -13.5t3.5 -14.5q2 -17 3.5 -33.5t1.5 -34.5q0 -6 -0.5 -11t-0.5 -10v-18q-2 -10 -3.5 -19t-3.5 -17q-12 -45 -29.5 -79.5t-39.5 -58.5q-23 -26 -48.5 -38t-53.5 -12q-16 0 -29.5 4t-23.5 13
q-12 7 -21 17.5t-15 22.5q-15 -17 -37 -30q-12 -8 -25.5 -11t-28.5 -3q-16 0 -29.5 4t-23.5 13q-23 13 -35 42q-8 12 -12.5 26.5t-6.5 30.5q-6 30 -6 60q0 78 29 148q13 34 36.5 64t58.5 54q8 5 16 9.5t16 7.5q12 6 25 6z" />
    <glyph glyph-name="uni0401" unicode="&#x401;" horiz-adv-x="624" 
d="M50 667h516v-80h-430v-237h413v-81h-413v-266h438v-79h-524v743zM216 829q26 0 44 -18q17 -19 17 -45q0 -14 -4.5 -24.5t-12.5 -19.5q-18 -19 -44 -19q-23 0 -41 19q-19 18 -19 44q0 27 19 45q18 18 41 18zM398 829q23 0 43 -18q18 -18 18 -45q0 -26 -18 -44
q-19 -19 -43 -19t-42 19q-19 18 -19 44q0 27 19 45q18 18 42 18z" />
    <glyph glyph-name="uni0410" unicode="&#x410;" horiz-adv-x="794" 
d="M567 124h-342q-11 -25 -21.5 -50.5t-20.5 -50.5q-24 -54 -42 -102h-91l309 744h76l309 -744h-91zM260 204h274l-18 42t-17 42q-9 20 -17.5 40t-15.5 41q-9 19 -17.5 39.5t-16.5 41.5q-11 21 -18 41q-4 10 -8.5 21t-8.5 23z" />
    <glyph glyph-name="uni0411" unicode="&#x411;" horiz-adv-x="647" 
d="M138 0h227q32 0 58 9t47 29q39 37 39 103q0 27 -11 52q-6 11 -14 21t-17 19q-11 7 -22 13.5t-23 12.5q-14 4 -27.5 6.5t-26.5 3.5h-230v-269zM549 584h-411v-236h219q25 0 48.5 -4t46.5 -10q21 -8 39.5 -18.5t35.5 -23.5q15 -15 28 -32.5t22 -38.5t13.5 -46t6.5 -53
q-6 -44 -24 -81q-19 -37 -51 -64q-35 -29 -77 -42q-24 -8 -50 -11.5t-55 -3.5h-290v744h499v-80z" />
    <glyph glyph-name="uni0412" unicode="&#x412;" horiz-adv-x="648" 
d="M50 -79v744h299q21 0 41 -3t41 -8q39 -12 69 -35q29 -23 49 -59q18 -36 18 -83q0 -57 -17 -96q-17 -38 -53 -68q24 -16 43.5 -35.5t34.5 -41.5q13 -24 18.5 -52t3.5 -61q-2 -23 -7 -43.5t-14 -38.5q-19 -37 -51 -64q-17 -14 -37 -24t-42 -17q-24 -8 -50.5 -11.5
t-54.5 -3.5h-291zM138 1h227q32 0 58 9t47 29q39 37 39 103q0 27 -11 52q-6 11 -14 21t-17 19q-11 7 -22 13.5t-23 12.5q-14 4 -27.5 6.5t-26.5 3.5h-230v-269zM138 349h219q27 0 49.5 6.5t41.5 21.5q36 25 36 88q0 28 -9 50t-25 38q-18 15 -41 22.5t-51 9.5h-220v-236z" />
    <glyph glyph-name="uni0413" unicode="&#x413;" horiz-adv-x="617" 
d="M50 684h517v-80h-429v-682h-88v762z" />
    <glyph glyph-name="uni0414" unicode="&#x414;" horiz-adv-x="738" 
d="M118 75q11 26 20.5 58.5t18.5 71.5q13 75 24 155q0 11 0.5 22.5t1.5 23.5l3 48q0 23 1 46t3 47q0 22 0.5 44t1.5 43v77h426v-636h70v-264h-87v183h-465v-183h-86v264h68zM531 75v556h-252q0 -12 -0.5 -25t-0.5 -26q0 -14 -0.5 -29t-0.5 -31l-4 -72l-4 -81
q-6 -88 -20 -160t-38 -132h320z" />
    <glyph glyph-name="uni0415" unicode="&#x415;" horiz-adv-x="624" 
d="M50 664h516v-80h-430v-238h413v-80h-413v-266h438v-80h-524v744z" />
    <glyph glyph-name="uni0416" unicode="&#x416;" horiz-adv-x="1048" 
d="M483 684h88v-395q16 24 32.5 48.5t33.5 49.5q16 25 33 49.5t35 50.5l134 197h104l-241 -354l73 -101q18 -25 37 -51t39 -52q37 -54 74 -105t73 -99h-107l-242 329q-11 -15 -20.5 -29.5t-18.5 -27.5q-10 -15 -20 -29t-19 -29v-214h-88v216q-6 7 -11.5 15t-10.5 15
q-12 17 -19 29q-5 6 -10 13t-11 15q-12 15 -21 31l-121 -167l-122 -167h-107l298 408q-30 42 -60 86t-60 92q-32 45 -62.5 89t-59.5 87h103l274 -395v395z" />
    <glyph glyph-name="uni0417" unicode="&#x417;" horiz-adv-x="608" 
d="M138 139q2 -40 14 -68.5t35 -44.5q41 -35 124 -35q15 0 30.5 2t30.5 8q14 4 26.5 11.5t24.5 17.5q10 9 18.5 19.5t15.5 24.5q13 26 13 59q0 12 -2.5 23t-6.5 23q-11 19 -26 38q-16 15 -36 28q-11 5 -22 8.5t-21 5.5q-11 1 -23 2t-26 2h-68v87h34t31 1q26 0 49 6
q38 11 66 40q23 28 28 76q0 30 -10 53q-11 21 -30 40q-11 7 -22.5 13.5t-23.5 11.5q-14 4 -28 6.5t-27 2.5q-62 0 -99 -29q-37 -30 -42 -93h-86q6 101 69 154q62 53 162 53q21 0 42.5 -4t42.5 -11q42 -19 72 -43q15 -15 27.5 -31.5t22.5 -35.5q9 -20 13 -41.5t4 -43.5
q-2 -55 -19 -91q-18 -42 -61 -73q22 -15 41.5 -33.5t34.5 -39.5q28 -46 28 -106q-1 -53 -20 -96q-11 -21 -24 -39t-29 -32q-37 -31 -79 -44q-24 -9 -48.5 -12.5t-50.5 -3.5q-27 0 -51.5 3.5t-47.5 11.5q-46 11 -82 43q-18 15 -32 33t-23 41q-22 40 -20 102h87z" />
    <glyph glyph-name="uni0418" unicode="&#x418;" horiz-adv-x="658" 
d="M50 -79v744h86v-591l194 296q24 36 48 73l48 74l48 74t49 74h85v-744h-86v593l-97 -150l-48 -74t-48 -73l-194 -296h-85z" />
    <glyph glyph-name="uni0419" unicode="&#x419;" horiz-adv-x="670" 
d="M50 -76v755h98v-576q46 72 93.5 143.5t95.5 144.5q46 72 93 144t95 144h95v-755h-98v577q-48 -72 -95 -144.5t-93 -144.5q-48 -73 -95.5 -144.5t-93.5 -143.5h-95zM523 826q-6 -18 -13 -35t-16 -32q-10 -16 -21 -29.5t-23 -23.5q-24 -22 -54 -35q-29 -13 -61 -13
q-34 0 -61 13q-32 13 -54 35q-13 10 -24 23.5t-20 29.5q-20 30 -30 67h84q17 -37 44 -60q13 -14 28 -20t33 -6q15 0 32 7q7 3 14.5 8t15.5 11q6 6 12 12.5t12 15.5q4 7 8.5 15t8.5 17h85z" />
    <glyph glyph-name="uni041A" unicode="&#x41a;" horiz-adv-x="726" 
d="M137 -80h-87v744h87v-366l356 366h110l-279 -310l352 -434h-111l-305 373l-123 -111v-262z" />
    <glyph glyph-name="uni041B" unicode="&#x41b;" horiz-adv-x="651" 
d="M215 603v-485q0 -43 -6 -79q-6 -39 -23 -65q-9 -14 -22 -25t-28 -19q-36 -19 -86 -19v90q12 0 21.5 2t17.5 5q13 4 23 16q6 11 12 28q1 7 2 16.5t2 20.5v594h473v-762h-87v682h-299z" />
    <glyph glyph-name="uni041C" unicode="&#x41c;" horiz-adv-x="766" 
d="M629 -80v532l-205 -532h-83l-204 532v-532h-87v744h95l238 -615l238 615h95v-744h-87z" />
    <glyph glyph-name="uni041D" unicode="&#x41d;" horiz-adv-x="658" 
d="M522 271h-386v-351h-86v744h86v-314h386v314h86v-744h-86v351z" />
    <glyph glyph-name="uni041E" unicode="&#x41e;" horiz-adv-x="740" 
d="M370 685q40 0 75.5 -8.5t65.5 -24.5q58 -34 100 -87q19 -27 33.5 -58.5t25.5 -65.5q9 -36 14.5 -72.5t5.5 -73.5q0 -39 -5 -75.5t-14 -70.5q-22 -70 -60 -125q-21 -27 -45.5 -49t-54.5 -37q-30 -17 -65.5 -25t-75.5 -8q-42 0 -77 7.5t-65 24.5q-60 30 -99 86
q-41 53 -59 125q-11 34 -15.5 71t-4.5 76q0 37 4.5 74t15.5 73q9 34 24 65.5t36 58.5q19 27 44.5 48.5t55.5 38.5q30 15 64 23.5t76 8.5zM370 600q-30 0 -56 -7t-47 -19q-47 -29 -72 -70q-15 -22 -25 -46.5t-16 -51.5q-8 -28 -11 -56t-3 -55q0 -29 3 -56t11 -54
q12 -56 42 -98q13 -22 31 -39.5t40 -30.5q21 -14 47 -20.5t56 -6.5t55.5 6.5t48.5 20.5q41 25 71 71q25 42 42 98q6 27 9.5 54t3.5 55q0 27 -3.5 54.5t-9.5 55.5q-8 27 -18.5 51t-23.5 47q-29 41 -72 70q-22 13 -47.5 20t-55.5 7z" />
    <glyph glyph-name="uni041F" unicode="&#x41f;" horiz-adv-x="651" 
d="M137 603v-682h-87v762h551v-762h-87v682h-377z" />
    <glyph glyph-name="uni0420" unicode="&#x420;" horiz-adv-x="651" 
d="M50 664h302q26 0 50.5 -4.5t48.5 -11.5q22 -9 41.5 -20.5t37.5 -26.5q32 -31 52 -73q9 -23 14 -47t5 -51t-5.5 -50.5t-14.5 -43.5q-11 -21 -24.5 -39t-29.5 -31q-37 -31 -79 -44q-23 -9 -47 -12.5t-49 -3.5h-214v-286h-88v744zM138 286h215q33 0 62 10q14 4 26.5 11
t24.5 16q10 8 18.5 19t15.5 25q12 25 12 63q0 72 -44 114q-46 35 -115 40h-215v-298z" />
    <glyph glyph-name="uni0421" unicode="&#x421;" horiz-adv-x="730" 
d="M678 167q-9 -29 -19 -55t-22 -49q-14 -24 -29.5 -45t-33.5 -38q-41 -36 -88 -54q-26 -11 -55 -15.5t-61 -4.5q-42 0 -76.5 8t-64.5 25q-60 30 -99 86q-42 54 -60 125q-11 34 -15.5 70.5t-4.5 75.5q0 37 4.5 74t15.5 73q9 34 23.5 65.5t35.5 58.5q19 27 44.5 48.5
t55.5 38.5q30 15 64.5 23.5t76.5 8.5q30 0 58.5 -5.5t54.5 -14.5q24 -11 46.5 -25t42.5 -31q18 -18 34.5 -38.5t30.5 -44.5q13 -24 23.5 -49.5t19.5 -52.5h-91q-7 18 -15 34.5t-17 33.5q-11 15 -22.5 29.5t-24.5 26.5q-14 12 -29.5 21t-32.5 17q-18 6 -37.5 10t-40.5 4
q-59 0 -103 -27q-22 -14 -40 -31.5t-31 -38.5q-29 -45 -41 -98q-8 -28 -11 -55.5t-3 -54.5q0 -59 13 -111q13 -58 41 -98q13 -22 30.5 -39.5t40.5 -29.5q40 -27 104 -27q21 0 40.5 3t37.5 11q16 6 31.5 16t29.5 22q12 12 23.5 25.5t21.5 30.5q9 15 16.5 32.5t13.5 35.5h94z
" />
    <glyph glyph-name="uni0422" unicode="&#x422;" horiz-adv-x="668" 
d="M290 593h-240v80h568v-80h-240v-672h-88v672z" />
    <glyph glyph-name="uni0423" unicode="&#x423;" horiz-adv-x="615" 
d="M309 250l164 423h92l-254 -651l-10 -22l-9 -18q-6 -10 -12 -18.5t-12 -14.5q-8 -7 -16 -12t-17 -8q-11 -5 -22.5 -6.5t-24.5 -1.5h-47v81h52q10 0 20 11q8 8 14 24l35 93l-212 543h92z" />
    <glyph glyph-name="uni0424" unicode="&#x424;" horiz-adv-x="800" 
d="M439 75q24 3 46 9.5t43 16.5q40 18 71 49q29 27 47 70q17 39 17 92q0 50 -17 93q-9 20 -20.5 38t-26.5 33q-31 29 -71 47q-21 9 -43 15t-46 11v-474zM361 549q-24 -5 -46.5 -11t-42.5 -15q-40 -19 -71 -48q-15 -15 -27 -33t-20 -37q-9 -21 -13 -44.5t-4 -48.5
q0 -27 4 -50.5t13 -42.5q16 -40 47 -70q29 -29 71 -47q20 -10 42.5 -17t46.5 -10v474zM361 -8q-34 2 -65 9.5t-59 21.5q-29 12 -53.5 29.5t-44.5 38.5q-21 21 -37.5 45.5t-27.5 53.5q-24 54 -24 122q0 64 24 123q11 27 27.5 52t37.5 46q20 21 44.5 37.5t53.5 30.5
q58 25 124 31v70h78v-70q64 -6 123 -30q28 -14 53 -30.5t46 -37.5q21 -22 37.5 -47t28.5 -52q11 -29 17 -59.5t6 -63.5q0 -66 -23 -123q-12 -29 -28.5 -53.5t-36.5 -45.5q-43 -45 -99 -69q-29 -14 -60 -21t-64 -8v-70h-78v70z" />
    <glyph glyph-name="uni0425" unicode="&#x425;" horiz-adv-x="738" 
d="M369 230l-218 -310h-101l268 384l-251 360h101l200 -290l203 290h101l-253 -360l269 -384h-101z" />
    <glyph glyph-name="uni0426" unicode="&#x426;" horiz-adv-x="705" 
d="M138 -1h360v664h87v-665h70v-190h-88v111h-517v744h88v-664z" />
    <glyph glyph-name="uni0427" unicode="&#x427;" horiz-adv-x="678" 
d="M628 -79h-87v303q-43 -41 -99 -61q-59 -24 -122 -19q-21 0 -43 4t-45 13q-24 7 -46.5 18t-41.5 26q-44 30 -67 72q-27 40 -27 98v308h87v-271q0 -24 4 -44.5t13 -36.5q13 -35 44 -55q27 -23 63 -31q36 -12 75 -12q30 -4 68 10q36 12 66 36q15 11 27 24.5t23 29.5
q9 15 14.5 30.5t6.5 32.5v287h87v-762z" />
    <glyph glyph-name="uni0428" unicode="&#x428;" horiz-adv-x="766" 
d="M629 1v682h87v-762h-666v762h87v-682h202v682h88v-682h202z" />
    <glyph glyph-name="uni0429" unicode="&#x429;" horiz-adv-x="838" 
d="M50 -81v762h88v-682h202v682h88v-682h202v682h87v-682h71v-200h-88v120h-650z" />
    <glyph glyph-name="uni042A" unicode="&#x42a;" horiz-adv-x="836" 
d="M330 317v-316h206q33 -5 63 12q26 11 51 36q20 20 34 51q12 28 12 59q0 30 -12 60q-7 14 -15.5 27t-18.5 25q-12 10 -24.5 19t-26.5 16q-15 6 -31 8.5t-32 2.5h-206zM243 603h-193v80h280v-286h206q50 0 99 -17q22 -9 41.5 -21.5t37.5 -27.5q16 -17 29.5 -36t23.5 -40
q19 -49 19 -96q0 -52 -19 -96q-10 -23 -23.5 -42t-29.5 -34q-36 -32 -79 -48q-48 -18 -99 -18h-293v682z" />
    <glyph glyph-name="uni042B" unicode="&#x42b;" horiz-adv-x="783" 
d="M137 1h227q32 0 58 9t47 29q19 18 29.5 44t10.5 59q0 28 -12 52q-6 12 -14 22t-17 19q-11 8 -22.5 14.5t-23.5 12.5q-30 8 -54 8h-229v-269zM137 349h219q21 0 43.5 -4t45.5 -11q22 -9 42.5 -20t38.5 -25q33 -28 56 -72q9 -21 13 -45t1 -49q-6 -47 -23 -81
q-19 -37 -51 -64q-35 -29 -78 -42q-23 -8 -49 -11.5t-54 -3.5h-291v744h87v-316zM646 665h87v-744h-87v744z" />
    <glyph glyph-name="uni042C" unicode="&#x42c;" horiz-adv-x="647" 
d="M138 1h227q32 0 58 9t47 29q39 37 39 103q0 27 -11 52q-6 11 -14 21t-17 19q-11 7 -22 13.5t-23 12.5q-14 4 -27.5 6.5t-26.5 3.5h-230v-269zM138 349h219q25 0 48.5 -4t46.5 -10q43 -17 77 -42q15 -15 28 -32t22 -38q18 -42 18 -99q0 -46 -18 -82q-18 -37 -51 -64
q-37 -29 -81 -42q-24 -8 -51 -11.5t-56 -3.5h-290v744h88v-316z" />
    <glyph glyph-name="uni042D" unicode="&#x42d;" horiz-adv-x="723" 
d="M208 254v82h377q-5 53 -18 101q-8 24 -19 45t-24 40q-15 18 -32.5 32t-37.5 26q-21 10 -45.5 15.5t-51.5 5.5q-18 0 -34.5 -2.5t-31.5 -6.5q-17 -5 -32 -11.5t-28 -14.5q-15 -9 -27 -20.5t-21 -24.5q-22 -27 -29 -63h-95q19 57 47 99.5t64 72.5q35 28 81.5 43t104.5 15
q40 0 75.5 -8.5t65.5 -23.5q59 -34 99 -87q19 -28 33.5 -59.5t24.5 -66.5q9 -36 14 -73t5 -74q0 -39 -5 -75.5t-14 -70.5q-10 -36 -24.5 -67t-33.5 -58q-20 -28 -44.5 -50t-53.5 -37q-30 -17 -65.5 -25t-75.5 -8q-58 0 -106 14t-87 44q-80 56 -114 169h97q19 -70 78 -105
q54 -36 131 -36q26 0 49.5 5t44.5 17q19 10 36.5 25t32.5 34q13 18 24.5 39t20.5 45q7 23 12.5 47.5t8.5 50.5h-377z" />
    <glyph glyph-name="uni042E" unicode="&#x42e;" horiz-adv-x="844" 
d="M504 597q-29 0 -52.5 -7.5t-41.5 -20.5q-20 -15 -35.5 -33.5t-26.5 -39.5q-12 -23 -21 -47t-13 -51q-6 -28 -8.5 -54.5t-2.5 -51.5q0 -27 2.5 -53.5t8.5 -53.5q4 -27 13 -52t21 -46q23 -47 62 -72q18 -15 41.5 -21.5t52.5 -6.5q55 0 94 29q38 27 62 73q12 21 20.5 46
t14.5 52q5 27 8 53t3 52q0 25 -3 52t-7 54q-12 55 -35 99q-12 21 -28 39t-34 33q-20 13 -44 20.5t-51 7.5zM137 332h77q0 66 22 129q18 61 55 112q37 50 90 79q52 30 123 30q38 0 71 -9t61 -25q54 -36 90 -90q34 -57 52 -126q7 -36 11.5 -71t4.5 -69q0 -36 -4.5 -71
t-11.5 -69q-18 -72 -52 -125q-36 -59 -90 -90q-54 -35 -132 -35q-72 0 -124 30q-53 29 -89 79q-18 24 -32 52t-23 60q-10 31 -15.5 63.5t-6.5 65.5h-77v-332h-87v744h87v-332z" />
    <glyph glyph-name="uni042F" unicode="&#x42f;" horiz-adv-x="710" 
d="M253 233q-35 8 -59 30q-27 17 -46 47q-10 13 -17.5 28t-11.5 33q-6 16 -8 33.5t-2 36.5q0 50 19 91q9 21 21.5 39t29.5 33q30 28 78 47q44 14 95 14h308v-743h-87v294h-229l-194 -294h-100zM573 296v289h-217q-17 -2 -32.5 -4.5t-28.5 -5.5q-15 -5 -27.5 -11t-22.5 -14
q-11 -9 -19 -20.5t-14 -23.5q-12 -29 -12 -65q0 -18 3 -34t10 -28q12 -28 33 -45q10 -9 22.5 -16t27.5 -11q23 -11 60 -11h217z" />
    <glyph glyph-name="uni0430" unicode="&#x430;" horiz-adv-x="604" 
d="M536 20v-12.5t2 -12.5q0 -15 5 -30q1 -15 6 -27q0 -6 2 -12q2 -7 3 -8h-86q-6 13 -10 27.5t-7 29.5q-20 -15 -41.5 -28.5t-45.5 -23.5q-53 -24 -99 -24q-37 -5 -73 6q-19 3 -35.5 10t-31.5 16q-16 9 -29 20.5t-22 26.5q-22 28 -22 69q-6 57 18 93q10 18 25 32t34 26
q18 10 38.5 18t44.5 14q22 4 45 8.5t46 7.5q4 0 9 0.5t10 1.5q5 0 11 1t13 2q12 1 23.5 3.5t23.5 6.5q10 3 19.5 7t18.5 10q7 5 11.5 12t4.5 16q0 22 -12 45q-7 9 -15 17.5t-17 15.5q-11 6 -22 11t-23 9q-13 3 -25 5t-24 2q-15 0 -28.5 -2t-25.5 -5q-29 -11 -47 -24
q-11 -9 -18.5 -19t-12.5 -22q-13 -28 -9 -59h-87q-3 25 1 48t14 44q19 39 52 68q16 13 35 23t41 18q21 6 42 10t43 4q21 0 42 -3.5t42 -9.5q20 -7 38 -16.5t35 -21.5q32 -27 51 -62q19 -40 19 -84v-278zM447 193q-26 -11 -62 -17q-19 -4 -37 -7t-34 -4l-28 -4l-14 -2t-14 -1
q-16 -3 -30.5 -7t-26.5 -9q-14 -6 -25 -14t-19 -17q-18 -23 -18 -54q0 -39 37 -57q38 -20 94 -16q10 0 23.5 2.5t29.5 8.5q15 4 29 11t29 16q13 8 25 18t22 22q19 21 19 48v83z" />
    <glyph glyph-name="uni0431" unicode="&#x431;" horiz-adv-x="602" 
d="M299 413q-21 0 -38 -5t-32 -14q-16 -11 -29 -23t-22 -27q-22 -31 -30 -68q-6 -20 -8.5 -38.5t-2.5 -36.5q0 -20 2 -38.5t8 -36.5q4 -20 11.5 -36.5t18.5 -31.5q18 -30 51 -49q29 -19 71 -19q40 0 71 19q15 9 27 21.5t23 28.5q9 15 17 31.5t14 36.5q4 18 7 36.5t3 37.5
q0 18 -3 36.5t-7 38.5q-12 35 -31 69q-11 15 -23 27t-27 22q-33 19 -71 19zM157 586q63 57 156 57q2 0 4 -0.5t5 -0.5h11q5 -1 10 -1.5t11 -0.5q5 -1 10 -1h11q5 -1 19 -1q24 0 42 11q17 7 30 45h86q-12 -49 -26 -75q-19 -32 -53 -49q-14 -8 -29 -12.5t-31 -7.5
q-18 -3 -33.5 -4t-28.5 2q-14 1 -27 2t-25 1q-14 -2 -26.5 -4.5t-23.5 -6.5q-12 -6 -23 -12.5t-20 -15.5q-11 -10 -18.5 -22.5t-13.5 -27.5q13 8 28 14.5t31 11.5q15 4 31.5 6.5t34.5 2.5q30 0 56.5 -6.5t50.5 -18.5q43 -26 78 -66q15 -21 26.5 -45t20.5 -50q7 -27 11.5 -55
t4.5 -55q0 -29 -4.5 -56t-11.5 -53q-9 -27 -20.5 -51t-26.5 -44q-35 -42 -78 -66q-47 -25 -107 -25q-65 0 -108 25q-24 12 -43 29t-34 38q-33 39 -47 94q-9 26 -12.5 53t-3.5 56v50t2 53q0 51 12 105q7 47 32 97q20 44 60 80z" />
    <glyph glyph-name="uni0432" unicode="&#x432;" horiz-adv-x="519" 
d="M50 -81v568h218q15 0 30.5 -2.5t31.5 -6.5q15 -6 29 -12.5t27 -15.5q12 -9 22 -20t19 -23q15 -27 20 -57q8 -78 -53 -134q33 -17 56 -54q19 -35 19 -83q-2 -18 -6 -34t-11 -30q-9 -15 -19.5 -28t-22.5 -23q-14 -11 -29 -19t-31 -14q-36 -12 -75 -12h-225zM136 253h116
q20 -2 41 4q18 1 35 14q13 7 25 24q9 14 9 32q0 38 -30 61q-32 19 -80 19h-116v-154zM136 -1h116q27 0 50.5 5t41.5 16q32 17 37 67q0 19 -10 36q-6 7 -13 14.5t-16 13.5q-21 11 -42 17q-12 3 -23.5 3.5t-22.5 0.5h-118v-173z" />
    <glyph glyph-name="uni0433" unicode="&#x433;" horiz-adv-x="494" 
d="M50 487h394v-80h-308v-488h-86v568z" />
    <glyph glyph-name="uni0434" unicode="&#x434;" horiz-adv-x="579" 
d="M108 150q9 24 15.5 49.5t12.5 54.5q4 27 7 56.5t6 59.5q1 29 2.5 58.5t2.5 59.5v113h322v-451h53v-229h-88v149h-303v-149h-88v229h58zM390 150v371h-150q0 -11 -0.5 -22t-0.5 -23v-45q-1 -24 -2.5 -48t-2.5 -48l-12 -95q-5 -24 -10.5 -46.5t-12.5 -43.5h191z" />
    <glyph glyph-name="uni0435" unicode="&#x435;" horiz-adv-x="604" 
d="M301 505q30 0 58 -7.5t54 -20.5q48 -30 82 -73q31 -47 48 -102q7 -29 9.5 -58t-0.5 -58h-414q-2 -38 12 -70q13 -38 35 -62q10 -14 23.5 -25t28.5 -19q28 -17 64 -17q30 0 54 7.5t43 24.5q18 15 30.5 35.5t20.5 44.5h94q-9 -23 -18.5 -43t-19.5 -38q-12 -19 -24.5 -35
t-26.5 -28q-32 -27 -67 -39q-20 -8 -41 -11t-45 -2q-32 0 -59 6.5t-49 20.5q-48 24 -79 67q-35 41 -48 94q-9 26 -12.5 53.5t-3.5 56.5q0 28 4 56t13 55q14 53 48 95q15 20 35 36.5t44 30.5q45 25 107 25zM460 265q-3 15 -8 30t-11 30q-8 13 -16.5 25.5t-17.5 24.5
q-11 10 -23 18.5t-25 15.5q-29 12 -58 12q-33 0 -58 -12q-27 -13 -48 -34q-21 -22 -34 -50q-17 -30 -18 -60h317z" />
    <glyph glyph-name="uni0436" unicode="&#x436;" horiz-adv-x="899" 
d="M405 -82v190q-16 16 -27 31l-13 14q-4 4 -7.5 8t-6.5 9q-48 -65 -96 -126q-25 -33 -49 -64.5t-48 -61.5h-108l245 315q-13 14 -26.5 29.5t-26.5 32.5q-31 30 -56 65q-15 16 -29.5 32t-27.5 33q-15 15 -27.5 30.5t-24.5 30.5h111l217 -246v246h88v-249l109 125
q27 30 54 61t55 63h110l-217 -253q14 -20 29 -39t31 -38q15 -21 30.5 -41t32.5 -39q15 -21 30.5 -41.5t31.5 -39.5q15 -21 30 -40t30 -37h-109l-193 252l-27 -31l-14 -16l-13 -15v-190h-88z" />
    <glyph glyph-name="uni0437" unicode="&#x437;" horiz-adv-x="499" 
d="M137 120q0 -30 8 -53t23 -40q25 -36 87 -36q24 0 43 6t34 20q14 12 21.5 30t9.5 41q0 20 -8 39q-12 15 -25 27q-20 12 -37 17q-24 6 -46 6h-53l1 87h48q19 0 37 4.5t33 14.5q27 17 32 66q1 36 -24 60q-29 23 -70 23q-48 0 -69 -27q-25 -30 -25 -78h-85q0 82 49 137
q49 51 133 51q33 0 68 -12q15 -7 29.5 -16t26.5 -19q23 -23 39 -52q6 -16 9.5 -32.5t3.5 -34.5q-2 -24 -5 -42.5t-9 -31.5q-7 -14 -18 -26.5t-26 -24.5q17 -12 31 -26.5t26 -30.5q20 -37 20 -81q-1 -21 -5 -40t-11 -35q-9 -18 -19.5 -32t-22.5 -25q-27 -23 -62 -35
q-36 -12 -77 -12q-23 0 -43 3.5t-38 12.5q-41 13 -66 42q-30 25 -42 68q-17 38 -12 87h86z" />
    <glyph glyph-name="uni0438" unicode="&#x438;" horiz-adv-x="524" 
d="M129 -81h-79v568h86v-401l259 401h79v-568h-86v401z" />
    <glyph glyph-name="uni0439" unicode="&#x439;" horiz-adv-x="524" 
d="M441 634q-6 -18 -13 -34.5t-16 -30.5q-19 -32 -41 -51q-12 -11 -25 -19t-26 -14q-30 -12 -58 -12q-15 0 -30 3t-28 9q-30 12 -51 33q-12 10 -22 23t-19 28q-10 14 -17.5 30.5t-11.5 34.5h79q7 -18 17.5 -32t24.5 -26q24 -24 58 -24q31 0 59 25q24 24 40 57h80zM129 -80
h-79v568h86v-401l259 401h79v-568h-86v402z" />
    <glyph glyph-name="uni043A" unicode="&#x43a;" horiz-adv-x="583" 
d="M138 90v-171h-88v568h88v-278l262 278h109l-244 -262l268 -306h-109l-220 241z" />
    <glyph glyph-name="uni043B" unicode="&#x43b;" horiz-adv-x="512" 
d="M194 407v-340q0 -18 -1.5 -34.5t-4.5 -29.5q-4 -15 -10 -27.5t-13 -21.5q-18 -22 -44 -30q-30 -12 -71 -12v82q33 0 45 17q10 12 12 43v433h355v-568h-87v488h-181z" />
    <glyph glyph-name="uni043C" unicode="&#x43c;" horiz-adv-x="592" 
d="M466 487h76v-568h-84v315l-135 -315h-54l-135 315v-315h-84v568h76l170 -418z" />
    <glyph glyph-name="uni043D" unicode="&#x43d;" horiz-adv-x="516" 
d="M379 176h-242v-258h-87v568h87v-230h242v230h87v-568h-87v258z" />
    <glyph glyph-name="uni043E" unicode="&#x43e;" horiz-adv-x="602" 
d="M301 503q58 0 108 -25q23 -14 42.5 -30.5t36.5 -37.5q30 -42 48 -95q7 -27 11.5 -55t4.5 -55q0 -29 -4.5 -56t-11.5 -53q-18 -54 -48 -96q-17 -21 -36.5 -38t-42.5 -29q-24 -14 -51 -20t-57 -6q-32 0 -59 6t-50 20q-47 23 -78 67q-34 40 -48 95q-9 26 -12.5 53.5
t-3.5 56.5q0 28 3.5 56t12.5 55q13 54 48 96q30 40 78 66q23 12 50 18.5t59 6.5zM301 419q-21 0 -38.5 -5t-32.5 -14q-16 -11 -29 -23.5t-22 -27.5q-22 -31 -30 -69q-6 -20 -8.5 -38.5t-2.5 -36.5q0 -20 2 -39t8 -37q4 -20 12 -37t19 -32q18 -31 51 -50q29 -19 71 -19
q19 0 37 4.5t34 15.5q15 9 27.5 21.5t23.5 28.5q9 15 17 31.5t14 36.5q4 18 7 37t3 39q0 18 -3 37t-7 39q-12 35 -31 69q-11 15 -23.5 27.5t-27.5 22.5q-33 19 -71 19z" />
    <glyph glyph-name="uni043F" unicode="&#x43f;" horiz-adv-x="519" 
d="M137 407v-488h-87v568h419v-568h-87v488h-245z" />
    <glyph glyph-name="uni0440" unicode="&#x440;" horiz-adv-x="587" 
d="M299 -81q-24 0 -46.5 4.5t-43.5 15.5q-21 9 -39.5 22t-33.5 28v-178h-86v686h86v-54q15 15 33.5 28t39.5 24q20 9 42.5 14.5t47.5 5.5q30 0 56.5 -7t49.5 -19q21 -14 40 -30.5t34 -37.5q14 -21 25 -45t19 -51q6 -27 10 -54.5t4 -54.5t-4 -54t-11 -53q-17 -55 -44 -95
q-30 -44 -74 -69q-23 -14 -49 -20t-56 -6zM292 432q-20 0 -37 -5.5t-31 -14.5q-15 -11 -27.5 -23.5t-21.5 -27.5q-11 -17 -18 -34.5t-11 -35.5q-6 -20 -8 -38.5t-2 -36.5q0 -19 2 -38t7 -37q4 -20 11 -37t17 -32q18 -31 49 -50q14 -11 31.5 -15.5t38.5 -4.5q19 0 37 4.5
t33 15.5q14 9 26 21.5t23 28.5q18 30 28 69q4 18 6.5 37t2.5 38q0 18 -2.5 36.5t-6.5 38.5q-6 18 -13 35.5t-16 34.5q-11 15 -23 27.5t-26 23.5q-15 9 -32.5 14.5t-36.5 5.5z" />
    <glyph glyph-name="uni0441" unicode="&#x441;" horiz-adv-x="594" 
d="M544 113q-14 -48 -35 -85.5t-50 -64.5q-30 -29 -69.5 -42.5t-87.5 -13.5q-63 0 -109 25q-48 24 -79 67q-35 42 -48 96q-9 26 -12.5 53.5t-3.5 56.5q0 28 3.5 56t12.5 55q13 54 48 96q29 40 79 66q23 12 50 18.5t59 6.5q44 0 87 -17q39 -19 72 -46q15 -15 28 -32t24 -36
q10 -21 17 -42t12 -43h-90q-5 13 -10 26.5t-11 25.5q-14 25 -31 42q-10 9 -20.5 15.5t-22.5 12.5q-12 4 -26 7t-29 3q-42 0 -72 -18q-16 -10 -29 -22t-22 -27q-23 -33 -31 -69q-6 -20 -8.5 -39.5t-2.5 -38.5q0 -20 2 -39.5t8 -37.5q4 -20 12 -37t19 -32q9 -16 22 -28t29 -21
q29 -19 73 -19q27 0 50.5 8t43.5 26q19 16 33 38.5t23 49.5h92z" />
    <glyph glyph-name="uni0442" unicode="&#x442;" horiz-adv-x="543" 
d="M227 407h-177v80h443v-80h-178v-488h-88v488z" />
    <glyph glyph-name="uni0443" unicode="&#x443;" horiz-adv-x="618" 
d="M309 129l166 418h93l-255 -644l-18 -37q-6 -9 -12.5 -17.5t-12.5 -14.5q-8 -7 -16.5 -12.5t-17.5 -8.5q-21 -10 -47 -10h-47v80h53q9 0 19 11q3 5 6 11t6 14q2 6 4 11.5t5 11.5l4 12t5 12q8 25 18 47l-212 534h94z" />
    <glyph glyph-name="uni0444" unicode="&#x444;" horiz-adv-x="910" 
d="M275 495q-39 0 -64 -19q-14 -11 -25 -23t-19 -27q-19 -32 -25 -66q-5 -19 -6.5 -37t-1.5 -34q0 -18 1.5 -35.5t6.5 -35.5q6 -37 24 -65q8 -15 19 -27.5t25 -21.5q25 -19 65 -19q35 0 63 19q23 17 42 49q7 14 13 30.5t10 34.5q3 18 5 35.5t2 35.5q0 16 -2 34t-5 37
q-4 18 -10 34.5t-13 31.5q-9 15 -19.5 27t-22.5 23q-14 9 -29.5 14t-33.5 5zM635 495q-38 0 -63 -19q-14 -11 -24.5 -23t-17.5 -27q-17 -28 -23 -66q-4 -19 -5.5 -37t-1.5 -34q0 -37 7 -71q3 -18 8.5 -34.5t14.5 -30.5q14 -31 42 -49q23 -19 63 -19q37 0 65 19q25 18 44 49
q8 14 14 30.5t11 34.5q3 18 5.5 35.5t2.5 35.5q0 16 -2.5 34t-5.5 37q-5 18 -11 34.5t-14 31.5q-9 15 -20 27t-24 23q-30 19 -65 19zM411 777h88v-262q23 25 60 43q16 7 35.5 11.5t40.5 4.5q54 0 99 -25q21 -14 38 -30.5t32 -35.5q25 -41 42 -92q6 -26 10 -51.5t4 -50.5
q0 -26 -4 -51t-10 -50q-16 -51 -42 -92q-31 -43 -71 -66q-21 -14 -46 -20t-52 -6q-21 0 -39.5 3.5t-34.5 12.5q-35 13 -62 45v-252h-88v247q-30 -28 -63 -41q-18 -8 -36 -11.5t-37 -3.5q-55 0 -95 27q-41 25 -71 69q-15 21 -26 44t-18 49q-8 24 -11.5 48t-3.5 48
q0 26 3.5 52t12.5 53q13 48 44 91q14 19 32 35.5t39 29.5q40 24 94 24q19 0 37.5 -4t36.5 -11q33 -19 62 -42v260z" />
    <glyph glyph-name="uni0445" unicode="&#x445;" horiz-adv-x="633" 
d="M316 133l-160 -214h-106l212 286l-203 272h106l151 -202l151 202h106l-205 -273l215 -285h-108z" />
    <glyph glyph-name="uni0446" unicode="&#x446;" horiz-adv-x="574" 
d="M139 -3h236v489h87v-490h62v-170h-89v90h-385v570h89v-489z" />
    <glyph glyph-name="uni0447" unicode="&#x447;" horiz-adv-x="539" 
d="M489 -81h-88v197q-30 -24 -69 -38q-44 -17 -91 -13q-18 0 -36 4t-34 12q-38 13 -61 40q-29 25 -43 61q-17 33 -17 77v228h88v-210q0 -18 2 -33.5t8 -27.5q4 -13 11.5 -23t16.5 -17q16 -15 43 -21q12 -4 26 -5.5t29 -1.5q10 0 20.5 2t22.5 8q22 8 41 26q19 14 30 35
q11 17 13 40v228h88v-568z" />
    <glyph glyph-name="uni0448" unicode="&#x448;" horiz-adv-x="598" 
d="M461 -2v488h87v-568h-498v568h86v-488h118v488h89v-488h118z" />
    <glyph glyph-name="uni0449" unicode="&#x449;" horiz-adv-x="651" 
d="M50 -84v569h86v-488h119v488h87v-488h119v488h87v-488h53v-169h-88v88h-463z" />
    <glyph glyph-name="uni044A" unicode="&#x44a;" horiz-adv-x="675" 
d="M278 -1h129q13 0 26 2t25 5q24 4 42 18q18 12 29 33q4 9 7 22t3 28q0 14 -3 26t-8 23q-6 9 -13 17.5t-16 15.5q-20 12 -42 18q-12 3 -24.5 4.5t-24.5 2.5h-130v-215zM190 -81v488h-140v80h228v-193h134q22 0 43.5 -4t42.5 -11q40 -19 68 -43q14 -14 25 -30t20 -34
q14 -39 14 -80q-2 -20 -6.5 -38t-13.5 -33q-9 -17 -21 -30.5t-26 -24.5q-15 -12 -31 -20t-34 -14q-18 -7 -37 -10t-37 -3h-229z" />
    <glyph glyph-name="uni044B" unicode="&#x44b;" horiz-adv-x="663" 
d="M136 -1h115q15 0 29 2t27 7q22 5 41 23q7 7 13.5 15.5t11.5 19.5q4 9 6.5 19t2.5 22t-3 23t-8 22q-13 19 -29 34q-9 6 -19.5 11.5t-21.5 10.5q-24 6 -49 6h-116v-215zM136 487v-193h120q22 0 43.5 -4t42.5 -11q40 -19 68 -43q14 -14 25 -30t20 -34q14 -39 14 -80
q-2 -20 -6.5 -38t-13.5 -33q-9 -17 -21 -30.5t-25 -24.5q-15 -12 -31 -20t-34 -14q-18 -7 -37 -10t-37 -3h-214v568h86zM527 487h86v-568h-86v568z" />
    <glyph glyph-name="uni044C" unicode="&#x44c;" horiz-adv-x="541" 
d="M138 -1h135q30 0 54 7.5t42 24.5q33 31 33 76q0 12 -3 23t-7 22q-11 16 -29 33q-9 6 -19.5 11.5t-21.5 10.5q-12 3 -24 5t-24 2h-136v-215zM138 487v-193h140q24 0 45.5 -4t42.5 -10q39 -17 69 -41q13 -14 24 -30t19 -34q7 -19 10 -40t3 -43q-2 -21 -6.5 -39.5
t-12.5 -33.5q-9 -17 -21 -30.5t-25 -24.5q-28 -22 -65 -33q-38 -12 -76 -12h-235v568h88z" />
    <glyph glyph-name="uni044D" unicode="&#x44d;" horiz-adv-x="599" 
d="M263 170v80h196q-6 36 -16 69q-6 15 -14.5 29.5t-17.5 28.5q-21 23 -48 40q-15 7 -32 11t-35 4q-26 0 -51 -11q-12 -6 -23.5 -13t-20.5 -16q-23 -18 -36 -42q-16 -25 -24 -52h-91q6 24 16 45.5t22 42.5q11 19 24.5 36t30.5 32q32 27 70 44q18 7 38.5 11t43.5 4
q61 0 111 -25q23 -14 42.5 -30.5t36.5 -37.5q29 -41 48 -97q7 -28 11.5 -56.5t4.5 -56.5q0 -30 -4.5 -58t-11.5 -55q-18 -55 -48 -97q-17 -21 -36.5 -38t-42.5 -29q-24 -14 -52 -20t-59 -6q-45 0 -83 14t-69 44q-63 55 -92 157h98q3 -15 7.5 -28.5t12.5 -24.5
q6 -12 14 -22.5t18 -17.5q19 -19 43 -25q12 -5 24 -7t26 -2q19 0 36 3t32 11q14 6 26 15.5t23 21.5q9 11 17.5 24.5t14.5 30.5q5 15 8.5 32.5t6.5 36.5h-195z" />
    <glyph glyph-name="uni044E" unicode="&#x44e;" horiz-adv-x="754" 
d="M453 416q-21 0 -38.5 -5t-32.5 -14q-16 -11 -29 -23t-22 -27q-23 -33 -31 -69q-6 -20 -8.5 -39t-2.5 -37q0 -20 2.5 -39.5t8.5 -37.5q4 -20 12 -36.5t19 -31.5q18 -31 51 -50q29 -19 71 -19q19 0 37 4.5t34 15.5q15 9 27.5 21.5t23.5 28.5q9 15 17 31.5t14 36.5
q4 18 7 37t3 39q0 18 -3 37t-7 39q-12 35 -31 69q-11 15 -23.5 27.5t-27.5 22.5q-33 19 -71 19zM137 248h66q4 49 24 97q9 22 21.5 42t29.5 38q15 16 34 30t42 25q21 9 46 14.5t53 5.5q58 0 108 -25q23 -14 42.5 -30.5t36.5 -37.5q30 -42 48 -95q7 -27 11.5 -55t4.5 -55
q0 -29 -4.5 -56t-11.5 -53q-18 -54 -48 -96q-17 -21 -36.5 -38t-42.5 -29q-24 -14 -51 -20t-57 -6q-28 0 -53 5t-46 17q-23 10 -42 25t-34 33q-17 18 -30 39.5t-22 45.5q-20 47 -24 98h-65v-248h-87v568h87v-239z" />
    <glyph glyph-name="uni044F" unicode="&#x44f;" horiz-adv-x="556" 
d="M202 155q-24 10 -43.5 25.5t-32.5 36.5q-15 19 -21.5 43.5t-6.5 53.5q0 19 3.5 36.5t11.5 34.5q7 15 17 29t24 26q12 10 27.5 19t33.5 15q30 11 73 13h218v-568h-87v221h-130l-141 -221h-98zM419 219v188h-110q-30 0 -53.5 -6t-38.5 -16q-17 -12 -24.5 -30t-7.5 -42
q0 -15 2 -26t8 -19q8 -20 27 -28q15 -14 39 -15q19 -6 48 -6h110z" />
    <glyph glyph-name="uni0451" unicode="&#x451;" horiz-adv-x="615" 
d="M216 654q22 0 43 -19q18 -20 18 -45q0 -26 -18 -44q-19 -19 -43 -19t-42 19q-18 18 -18 44q0 25 18 45q19 19 42 19zM398 654q22 0 43 -19q18 -20 18 -45q0 -26 -18 -44q-19 -19 -43 -19t-42 19q-19 18 -19 44t19 45t42 19zM307 515q30 0 58 -7t54 -20q46 -27 83 -72
q16 -24 28.5 -50t21.5 -56q13 -60 12 -126h-414q0 -37 11 -66q11 -35 32 -58q19 -28 50 -42q14 -9 30 -12.5t34 -3.5q61 0 95 33q33 30 50 80h103q-8 -24 -17.5 -45.5t-19.5 -39.5q-12 -20 -25 -37t-28 -30q-29 -28 -69 -42q-40 -16 -89 -14q-31 0 -58 6.5t-51 20.5
q-49 24 -81 69q-33 40 -50 97q-9 27 -13 54.5t-4 56.5q0 28 4 56t13 56q8 27 20.5 51.5t29.5 46.5q15 21 35.5 37.5t44.5 30.5q24 12 51 19t59 7zM460 275q-3 15 -7.5 29t-10.5 28q-7 12 -15.5 23.5t-17.5 22.5q-11 9 -22.5 17t-23.5 14q-14 5 -27.5 8t-28.5 3
q-29 0 -54 -11q-14 -6 -25.5 -14.5t-21.5 -17.5q-22 -22 -34 -46q-17 -29 -18 -56h306z" />
    <glyph glyph-name="uni2015" unicode="&#x2015;" horiz-adv-x="1020" 
d="M970 335v-80h-920v80h920z" />
    <glyph glyph-name="quoteleft" unicode="&#x2018;" horiz-adv-x="225" 
d="M152 712q-18 -11 -28 -26q-6 -9 -10.5 -17t-5.5 -14q27 4 48 -10q19 -17 19 -47q0 -14 -4.5 -23.5t-11.5 -15.5q-20 -15 -42 -15q-25 -5 -45 18q-12 9 -17 24.5t-5 36.5q0 36 25 76q25 37 77 66v-53z" />
    <glyph glyph-name="quoteright" unicode="&#x2019;" horiz-adv-x="225" 
d="M73 577q17 8 29 26q5 8 8.5 15.5t6.5 15.5q-30 -6 -48 10q-19 13 -19 47q0 26 17 39q7 6 17.5 9.5t23.5 5.5q22 0 46 -18q10 -11 15.5 -26t5.5 -35q0 -38 -25 -75q-13 -20 -32.5 -36.5t-44.5 -30.5v53z" />
    <glyph glyph-name="quotedblleft" unicode="&#x201c;" horiz-adv-x="370" 
d="M152 712q-18 -11 -28 -26q-6 -9 -10.5 -17t-5.5 -14q27 4 48 -10q19 -17 19 -47q0 -14 -4.5 -23.5t-11.5 -15.5q-20 -15 -42 -15q-25 -5 -45 18q-12 9 -17 24.5t-5 36.5q0 36 25 76q25 37 77 66v-53zM297 712q-18 -11 -28 -26q-6 -9 -10.5 -17t-5.5 -14q27 4 48 -10
q19 -17 19 -47q0 -14 -4.5 -23.5t-11.5 -15.5q-20 -15 -42 -15q-25 -5 -45 18q-12 9 -17 24.5t-5 36.5q0 36 25 76q25 37 77 66v-53z" />
    <glyph glyph-name="quotedblright" unicode="&#x201d;" horiz-adv-x="371" 
d="M73 577q17 8 29 26q5 8 8.5 15.5t6.5 15.5q-30 -6 -48 10q-19 13 -19 47q0 26 17 39q7 6 17.5 9.5t23.5 5.5q22 0 46 -18q10 -11 15.5 -26t5.5 -35q0 -38 -25 -75q-13 -20 -32.5 -36.5t-44.5 -30.5v53zM219 577q15 7 28 26q5 8 8.5 15.5t6.5 15.5q-30 -6 -47 10
q-19 13 -19 47q0 26 17 39q7 6 17.5 9.5t22.5 5.5q22 0 46 -18q10 -11 16 -26t6 -35q0 -38 -25 -75q-14 -20 -33 -36.5t-44 -30.5v53z" />
    <glyph glyph-name="dagger" unicode="&#x2020;" horiz-adv-x="534" 
d="M324 674q0 -10 -1 -19t-2 -16q-5 -18 -6 -34q-3 -13 -5.5 -25.5t-3.5 -24.5q15 2 30.5 5t31.5 8q28 6 65 4q51 -11 51 -58q0 -26 -12 -38q-13 -15 -36 -20q-20 -5 -32 -1q-9 0 -17 1t-15 4q-17 1 -32 8q-5 0 -9 1l-8 2l-15 4q0 -11 7 -25q1 -8 4 -14.5t7 -12.5
q6 -17 16 -24q7 -11 20 -16q-11 -11 -18.5 -23t-12.5 -25q-13 -31 -17 -61q-6 -35 -6 -65q-2 -17 -2 -32.5v-28.5v-32q-1 -9 -1 -21.5v-27.5v-89v-24.5t1 -20.5q0 -11 -1 -19.5t-1 -14.5q-2 -15 -5.5 -27t-8.5 -19q-11 -17 -23 -17q-19 0 -26 17q-11 14 -11 46q-1 8 -1 20
v27v195q0 7 -0.5 15t-0.5 17v37q-1 34 -6 71q-6 31 -18 60q-14 26 -37 37q26 18 42 46q13 25 18 51q-17 -4 -32.5 -8t-30.5 -8q-17 -5 -33.5 -5.5t-33.5 2.5q-47 7 -47 58t49 58q16 2 32 1t32 -5q15 -5 31 -8.5t34 -5.5q-4 9 -4 25l-2 6t-1 6q-1 3 -2 6.5t-1 6.5
q-5 14 -6 31q-2 7 -2.5 16t-0.5 19v13t2 16q0 7 2.5 14t5.5 15q6 11 18 22q5 4 12.5 6.5t17.5 2.5q9 0 16 -2t13 -5l9.5 -9.5t7.5 -10.5q3 -7 5 -14l4 -14q0 -8 1 -15.5t1 -14.5z" />
    <glyph glyph-name="daggerdbl" unicode="&#x2021;" horiz-adv-x="526" 
d="M224 484q-5 -1 -9 -2t-7 -2l-8 -2t-7 -1q-18 -7 -30 -8q-9 -3 -17 -4t-15 -1q-16 -4 -33 2q-24 4 -36 19t-12 39q0 49 49 56q15 2 31 1t31 -4q14 -5 29 -8t32 -6l-3 15q-2 10 -2 18q-6 16 -6 29q-6 18 -6 38q-4 17 2 40q2 12 6.5 22.5t12.5 18.5q13 15 37 15q44 0 55 -56
q6 -40 -5 -79q-6 -18 -6 -31q-4 -15 -4 -30q14 2 28.5 5t29.5 8q26 6 64 4q51 -11 51 -56q0 -50 -47 -58q-9 -2 -17 -2.5t-15 0.5q-20 0 -31 5q-17 1 -32 8q-5 0 -9 1l-8 2l-15 4v-51q14 2 28.5 5.5t29.5 8.5q14 3 30.5 4t34.5 -1q26 -5 39 -18q12 -17 12 -38q0 -50 -47 -58
q-9 -3 -17 -3.5t-15 0.5q-20 0 -31 5q-17 1 -32 8q-9 2 -17 4t-15 4q0 -25 17 -50q6 -13 13 -22t14 -14q-33 -46 -39 -100q-4 -27 -5.5 -54t-1.5 -54v-161q0 -63 -37 -63q-17 0 -24 17q-13 15 -13 47v28q-1 7 -1 18.5v27.5v138q-1 12 -2.5 25.5t-2.5 27.5l-14 53
q-5 12 -11.5 24.5t-15.5 24.5q17 14 29 38q5 10 8.5 22t6.5 26l-15 -4l-8 -2t-7 -1q-16 -5 -31 -7q-9 -3 -17 -4t-15 -1q-18 -4 -32 2q-24 4 -36 19t-12 39q0 49 49 56q29 4 63 -2q30 -10 62 -16v52z" />
    <glyph glyph-name="twodotenleader" unicode="&#x2025;" horiz-adv-x="690" 
d="M640 359v-128h-126v128h126zM176 359v-128h-126v128h126z" />
    <glyph glyph-name="ellipsis" unicode="&#x2026;" horiz-adv-x="796" 
d="M746 359v-128h-124v128h124zM461 359v-128h-125v128h125zM174 359v-128h-124v128h124z" />
    <glyph glyph-name="perthousand" unicode="&#x2030;" horiz-adv-x="991" 
d="M511 674l23 -82l-132 -267l-83 -21l-9 29l172 336zM102 -52l181 324l29 7l23 -83l-141 -255l-83 -21zM184 361h-5q-27 0 -50.5 10t-40.5 28q-18 17 -28 40.5t-10 50.5v26q0 27 10 50.5t28 41.5q17 17 40.5 27.5t50.5 10.5h5v-75h-5q-23 0 -38.5 -16t-15.5 -39v-26
q0 -23 15.5 -38.5t38.5 -15.5h5v-75zM212 361h-5v75h5q23 0 38.5 15.5t15.5 38.5v26q0 23 -15.5 39t-38.5 16h-5v75h5q27 0 50.5 -10.5t41.5 -27.5q17 -18 27 -41.5t10 -50.5v-26q0 -27 -10 -50.5t-27 -40.5q-18 -18 -41.5 -28t-50.5 -10zM474 -49h-5q-27 0 -50.5 10
t-40.5 27q-18 18 -28 41.5t-10 50.5v26q0 27 10 50.5t28 41.5q17 17 40.5 27.5t50.5 10.5h5v-75h-5q-23 0 -38.5 -16t-15.5 -39v-26q0 -23 15.5 -38.5t38.5 -15.5h5v-75zM502 -49h-5v75h5q23 0 38.5 15.5t15.5 38.5v26q0 23 -15.5 39t-38.5 16h-5v75h5q27 0 50.5 -10.5
t41.5 -27.5q17 -18 27 -41.5t10 -50.5v-26q0 -27 -10 -50.5t-27 -41.5q-18 -17 -41.5 -27t-50.5 -10zM784 -49h-5q-27 0 -50.5 10t-40.5 27q-18 18 -28 41.5t-10 50.5v26q0 27 10 50.5t28 41.5q17 17 40.5 27.5t50.5 10.5h5v-75h-5q-23 0 -38.5 -16t-15.5 -39v-26
q0 -23 15.5 -38.5t38.5 -15.5h5v-75zM812 -49h-5v75h5q23 0 38.5 15.5t15.5 38.5v26q0 23 -15.5 39t-38.5 16h-5v75h5q27 0 50.5 -10.5t41.5 -27.5q17 -18 27 -41.5t10 -50.5v-26q0 -27 -10 -50.5t-27 -41.5q-18 -17 -41.5 -27t-50.5 -10z" />
    <glyph glyph-name="minute" unicode="&#x2032;" horiz-adv-x="327" 
d="M277 783l-186 -291l-41 16l94 275h133z" />
    <glyph glyph-name="second" unicode="&#x2033;" horiz-adv-x="515" 
d="M278 783l-186 -291l-42 16l95 275h133zM465 783l-187 -291l-41 16l94 275h134z" />
    <glyph glyph-name="uni203B" unicode="&#x203b;" horiz-adv-x="956" 
d="M207 673l69 -17l66 -100l-35 -65l-31 15l-87 143zM383 331l-81 122l12 25l68 -6l86 -119l-23 -34zM768 649l-87 -143l-31 -15l-35 65l66 100l69 17zM512 319l-23 34l86 119l68 6l12 -25l-81 -122zM189 -37l87 143l31 15l35 -65l-66 -100l-69 -17zM445 293l23 -34
l-86 -119l-68 -6l-12 25l81 122zM750 -61l-69 17l-66 100l35 65l31 -15l87 -143zM574 281l81 -122l-12 -25l-68 6l-86 119l23 34zM469 530h-6q-23 0 -43.5 9t-35.5 24q-16 15 -25 35.5t-9 44.5v14q0 24 9 44.5t25 35.5q15 15 35.5 24t43.5 9h6v-65h-6q-20 0 -34 -14t-14 -34
v-14q0 -20 14 -34t34 -14h6v-65zM493 530h-5v65h5q20 0 34 14t14 34v14q0 20 -14 34t-34 14h-5v65h5q24 0 44.5 -9t35.5 -24t24 -35.5t9 -44.5v-14q0 -24 -9 -44.5t-24 -35.5t-35.5 -24t-44.5 -9zM469 -150h-6q-23 0 -43.5 9t-35.5 24q-16 15 -25 35.5t-9 44.5v14
q0 24 9 44.5t25 35.5q15 15 35.5 24t43.5 9h6v-65h-6q-20 0 -34 -14t-14 -34v-14q0 -20 14 -34t34 -14h6v-65zM493 -150h-5v65h5q20 0 34 14t14 34v14q0 20 -14 34t-34 14h-5v65h5q24 0 44.5 -9t35.5 -24t24 -35.5t9 -44.5v-14q0 -24 -9 -44.5t-24 -35.5t-35.5 -24t-44.5 -9
zM169 190h-6q-23 0 -43.5 9t-35.5 24q-16 15 -25 35.5t-9 44.5v14q0 24 9 44.5t25 35.5q15 15 35.5 24t43.5 9h6v-65h-6q-20 0 -34 -14t-14 -34v-14q0 -20 14 -34t34 -14h6v-65zM193 190h-5v65h5q20 0 34 14t14 34v14q0 20 -14 34t-34 14h-5v65h5q24 0 44.5 -9t35.5 -24
t24 -35.5t9 -44.5v-14q0 -24 -9 -44.5t-24 -35.5t-35.5 -24t-44.5 -9zM769 190h-6q-23 0 -43.5 9t-35.5 24q-16 15 -25 35.5t-9 44.5v14q0 24 9 44.5t25 35.5q15 15 35.5 24t43.5 9h6v-65h-6q-20 0 -34 -14t-14 -34v-14q0 -20 14 -34t34 -14h6v-65zM793 190h-5v65h5
q20 0 34 14t14 34v14q0 20 -14 34t-34 14h-5v65h5q24 0 44.5 -9t35.5 -24t24 -35.5t9 -44.5v-14q0 -24 -9 -44.5t-24 -35.5t-35.5 -24t-44.5 -9z" />
    <glyph glyph-name="uni2074" unicode="&#x2074;" horiz-adv-x="354" 
d="M50 507v67l143 199h68v-190h43v-76h-43v-51h-78v51h-133zM183 628q-4 -6 -8 -11t-7 -10q-3 -3 -5 -6l-4 -6l-8 -12h32v45z" />
    <glyph glyph-name="uni207F" unicode="&#x207f;" horiz-adv-x="351" 
d="M50 779h72v-27q14 19 36 25q9 2 20 2.5t23 0.5q10 -2 20 -4.5t19 -6.5q9 -6 16.5 -12.5t15.5 -13.5q6 -9 11 -17.5t10 -17.5q3 -11 5.5 -21t2.5 -20v-210h-73v190q0 12 -2.5 23.5t-6.5 20.5q-11 18 -40 18q-24 0 -38 -19q-17 -21 -17 -47v-186h-74v322z" />
    <glyph glyph-name="uni2081" unicode="&#x2081;" horiz-adv-x="238" 
d="M110 -153v196h-60v73q14 0 26 1.5t21 6.5q16 6 22 40h69v-317h-78z" />
    <glyph glyph-name="uni2082" unicode="&#x2082;" horiz-adv-x="336" 
d="M220 -38l-19 -13q-4 -2 -7 -4t-5 -3q-3 -2 -5.5 -3.5t-4.5 -3.5l-4 -2l-1 -1q-3 -3 -5 -3h-2l-5 -5h124v-77h-235q-2 18 0.5 33.5t8.5 29.5q4 12 11.5 23t16.5 21q18 19 40 36q10 7 21 15.5t23 17.5q6 4 11.5 9.5t10.5 11.5q4 5 6.5 10.5t2.5 11.5q0 29 -30 29
q-18 0 -24 -17q-5 -9 -7 -19t-2 -20h-82q0 13 2 26t7 25q6 25 22 42q12 16 36 29q10 4 22 7t27 3q13 0 25.5 -2.5t23.5 -5.5q10 -5 18.5 -11t16.5 -12q6 -8 11 -16.5t9 -17.5q6 -20 6 -40q0 -23 -6 -36q-3 -9 -7 -15.5t-8 -12.5q-6 -7 -11 -13t-10 -10q-6 -6 -12 -10t-10 -7
z" />
    <glyph glyph-name="uni2083" unicode="&#x2083;" horiz-adv-x="337" 
d="M57 51q0 56 34 91q31 33 78 33q10 0 20.5 -2.5t21.5 -5.5l18 -10t17 -11q7 -8 13 -15.5t11 -15.5q4 -9 6.5 -18.5t2.5 -18.5q0 -23 -6 -36q-7 -17 -16 -26q10 -12 22 -30q3 -9 5.5 -18.5t2.5 -18.5q0 -44 -31 -75q-17 -15 -38 -22.5t-48 -7.5q-30 0 -48 11
q-12 4 -21 11.5t-16 16.5q-17 17 -25 42q-6 12 -8 24.5t-2 26.5h71q0 -22 11 -37q7 -18 33 -18q40 0 40 35q0 11 -6 19q-3 3 -7 4.5t-7 3.5q-5 0 -9.5 1t-10.5 2h-24v56h24h8.5t6.5 2q5 1 12 10q5 7 5 19q0 26 -35 26q-20 0 -27 -15q-5 -9 -7 -17t-2 -16h-69z" />
    <glyph glyph-name="uni2084" unicode="&#x2084;" horiz-adv-x="354" 
d="M50 -102v67l143 199h68v-190h43v-76h-43v-51h-78v51h-133zM183 19l-32 -45h32v45z" />
    <glyph glyph-name="Euro" unicode="&#x20ac;" horiz-adv-x="984" 
d="M393 447h-109v103l216 77h27q15 0 27.5 -3t23.5 -7q18 -12 18 -47v-465q0 -19 16 -19q20 -5 34 -5l12 -4t12 -5q4 -3 7.5 -7.5t6.5 -8.5q5 -13 5 -29v-65h-390v65q0 34 20 45q19 8 57 14q17 0 17 19v342zM764 759q84 0 128 -42q42 -44 42 -118v-590q0 -24 -4 -45t-10 -39
q-8 -18 -17.5 -32t-21.5 -23t-25 -16.5t-25 -11.5q-26 -11 -54 -11h-571q-17 0 -32.5 2t-28.5 8q-30 7 -50 31q-21 18 -33 55q-6 16 -9 37t-3 45v590q0 76 41 118q40 42 129 42h544zM779 -94q36 0 60 25q10 12 16 28.5t6 37.5v599q0 18 -5 33t-14 29q-21 26 -66 26h-568
q-47 0 -66 -26q-19 -28 -19 -62v-599q0 -21 4.5 -37t15.5 -28q9 -14 25 -20t37 -6h574z" />
    <glyph glyph-name="uni2103" unicode="&#x2103;" horiz-adv-x="883" 
d="M169 530h-6q-23 0 -43.5 9t-35.5 24q-16 15 -25 35.5t-9 44.5v14q0 24 9 44.5t25 35.5q15 15 35.5 24t43.5 9h6v-65h-6q-20 0 -34 -14t-14 -34v-14q0 -20 14 -34t34 -14h6v-65zM193 530h-5v65h5q20 0 34 14t14 34v14q0 20 -14 34t-34 14h-5v65h5q24 0 44.5 -9t35.5 -24
t24 -35.5t9 -44.5v-14q0 -24 -9 -44.5t-24 -35.5t-35.5 -24t-44.5 -9zM413 588v-221l-61 -61l-22 22v337zM747 -91h-397l83 79h271l63 -60zM330 -71v338l22 22l61 -62v-223zM757 664l-63 -60h-261l-84 79h388z" />
    <glyph glyph-name="uni2109" unicode="&#x2109;" horiz-adv-x="895" 
d="M169 530h-6q-23 0 -43.5 9t-35.5 24q-16 15 -25 35.5t-9 44.5v14q0 24 9 44.5t25 35.5q15 15 35.5 24t43.5 9h6v-65h-6q-20 0 -34 -14t-14 -34v-14q0 -20 14 -34t34 -14h6v-65zM193 530h-5v65h5q20 0 34 14t14 34v14q0 20 -14 34t-34 14h-5v65h5q24 0 44.5 -9t35.5 -24
t24 -35.5t9 -44.5v-14q0 -24 -9 -44.5t-24 -35.5t-35.5 -24t-44.5 -9zM423 588v-221l-61 -61l-22 22v337zM340 -91v358l22 22l61 -62v-243zM775 664l-63 -60h-269l-84 79h396zM728 297l-41 -40h-256l-42 40l42 41h256z" />
    <glyph glyph-name="uni2113" unicode="&#x2113;" horiz-adv-x="451" 
d="M304 664l-63 -60h-58l-64 60l21 19h144zM102 647l61 -59v-313l-61 -61l-22 22v392zM344 628v-392l-22 -22l-61 61v313l61 59zM347 -130l-57 1l-61 91l-2 58l59 -1l61 -91v-58zM200 48h-57l-62 92l-1 58l59 -1l61 -91v-58zM80 -72l61 91l59 1l-2 -58l-61 -91l-57 -1v58z
M227 106l61 91l59 1l-1 -58l-62 -92h-57v58z" />
    <glyph glyph-name="uni2116" unicode="&#x2116;" horiz-adv-x="1216" 
d="M487 664v-336l-22 -22l-61 61v257l61 59zM72 683l61 -59v-257l-61 -61l-22 22v336zM465 -91l-61 59v259l61 62l22 -22v-339zM50 -72v339l22 22l61 -62v-259l-61 -59zM227 615l143 -610l-8 -36l-78 21l-123 548l43 86zM857 664l-63 -60h-161l-64 60l21 19h247zM552 647
l61 -59v-221l-61 -61l-22 22v300zM897 628v-300l-22 -22l-61 61v221l61 59zM837 -91h-247l-21 19l64 60h161l63 -60zM530 -36v303l22 22l61 -62v-223l-61 -59zM875 -55l-61 59v223l61 62l22 -22v-303zM922 -59h61v-111h-61l-22 21v71z" />
    <glyph glyph-name="uni2121" unicode="&#x2121;" horiz-adv-x="1192" 
d="M290 683h116l21 -19l-64 -60h-73l-41 37zM275 -54l-41 -37l-42 37v647l42 37l41 -37v-647zM218 641l-41 -37h-63l-64 60l21 19h106zM543 588v-221l-61 -61l-22 22v337zM765 -91h-285l83 79h159l63 -60zM460 -71v338l22 22l61 -62v-223zM785 664l-63 -60h-159l-84 79h286z
M738 297l-41 -40h-146l-42 40l42 41h146zM837 683l61 -59v-257l-61 -61l-22 22v336zM1122 -91h-247l-21 19l64 60h161l63 -60zM815 -36v303l22 22l61 -62v-223l-61 -59z" />
    <glyph glyph-name="trademark" unicode="&#x2122;" horiz-adv-x="667" 
d="M223 723h103l9 -9l12 9l34 -35v-111l-34 -35l-14 13v151l-32 -29h-78l-23 21zM214 383l-23 -21l-24 21v288l24 21l23 -21v-288zM182 698l-24 -21h-71l-37 35l12 11h96zM617 712v-157l-13 -13l-35 35v111l35 35zM604 362l-35 33v102l35 36l13 -14v-146zM333 373v146l14 14
l34 -36v-102l-34 -33zM431 718l41 -169l-5 -21l-46 12l-30 145l26 38zM533 723l26 -38l-29 -145l-46 -12l-4 21l40 169z" />
    <glyph glyph-name="Omega" unicode="&#x2126;" horiz-adv-x="651" 
d="M341 72q0 21 10 32t25 18t32.5 13.5t32.5 19.5q32 27 54.5 77.5t22.5 125.5q0 35 -10 77t-33 79q-23 36 -60 60.5t-91 24.5q-40 0 -69.5 -14t-50.5 -36t-35 -49.5t-22 -53.5q-8 -27 -11 -50.5t-3 -38.5q0 -98 38.5 -160t110.5 -75l5.5 -2.5t12.5 -7.5q6 -6 11.5 -16
t5.5 -25v-90q0 -25 -10.5 -41t-38.5 -16h-146v79h117v44q-51 14 -86.5 48t-58.5 78q-23 43 -33.5 91t-10.5 92q0 46 16 102.5t50 105.5q33 48 84.5 81t123.5 33q61 0 112 -26t88 -70q36 -45 56.5 -103t20.5 -121q0 -47 -13 -96t-37 -91q-24 -43 -57.5 -75.5t-75.5 -45.5v-47
h116v-79h-143q-33 0 -41.5 15t-8.5 40v93z" />
    <glyph glyph-name="uni212B" unicode="&#x212b;" horiz-adv-x="672" 
d="M335 696q-17 0 -27.5 -12.5t-10.5 -28.5q0 -17 10.5 -29.5t27.5 -12.5q16 0 27.5 11.5t11.5 30.5q0 18 -11 29.5t-28 11.5zM335 779q18 0 39 -8t39 -24q17 -16 28.5 -39t11.5 -53q0 -39 -15 -63.5t-34 -37.5q-20 -14 -39.5 -18.5t-29.5 -4.5q-33 0 -55.5 13t-36.5 32
q-14 18 -20 39.5t-6 39.5q0 15 5.5 36t19.5 41q13 19 35.5 33t57.5 14zM467 78h-261l-32 -80q-8 -21 -17.5 -41.5t-15.5 -39.5h-91l254 591h65l253 -591h-90zM239 160h192q-13 27 -25 52.5t-23 51.5q-12 25 -23.5 52.5t-23.5 58.5z" />
    <glyph glyph-name="onethird" unicode="&#x2153;" horiz-adv-x="774" 
d="M312 -38q0 -48 16 -68t58 -20q31 0 50.5 17t19.5 46q0 15 -9 25t-22 15q-14 6 -29 8t-27 2h-35v76h20q7 0 15.5 0.5t22.5 2.5h5q7 0 15 5t15 13q7 7 11.5 16t4.5 17q0 17 -15 32.5t-44 15.5q-60 0 -60 -78h-88q0 30 8.5 58t26.5 50q18 21 46.5 34t68.5 13q23 0 49 -8
t48 -23q22 -16 36.5 -40t14.5 -56q0 -26 -10 -47t-28 -38q23 -18 37 -40.5t14 -53.5q0 -44 -17 -71t-41 -42q-25 -15 -53 -20.5t-49 -5.5q-73 0 -117.5 42t-44.5 123h87zM50 332h674v-74h-674v74zM356 364v245h-85v81q21 0 44.5 3.5t34.5 9.5h-1q5 5 12 16.5t7 38.5h75v-394
h-87z" />
    <glyph glyph-name="twothirds" unicode="&#x2154;" horiz-adv-x="774" 
d="M312 -38q0 -48 16 -68t58 -20q31 0 50.5 17t19.5 46q0 15 -9 25t-22 15q-14 6 -29 8t-27 2h-35v76h20q7 0 15.5 0.5t22.5 2.5h5q7 0 15 5t15 13q7 7 11.5 16t4.5 17q0 17 -15 32.5t-44 15.5q-60 0 -60 -78h-88q0 30 8.5 58t26.5 50q18 21 46.5 34t68.5 13q23 0 49 -8
t48 -23q22 -16 36.5 -40t14.5 -56q0 -26 -10 -47t-28 -38q23 -18 37 -40.5t14 -53.5q0 -44 -17 -71t-41 -42q-25 -15 -53 -20.5t-49 -5.5q-73 0 -117.5 42t-44.5 123h87zM451 519q-21 -17 -39.5 -25.5t-33.5 -23.5l-13 -11q-7 -6 -12.5 -12t-9.5 -12h199v-77h-320
q0 64 33 113.5t115 93.5q8 4 22 12t28 19q13 11 23 26t10 35q0 26 -17 41t-46 15q-24 0 -38 -7.5t-21 -19.5q-8 -12 -10 -27.5t-2 -31.5h-86q0 33 9 63t29 53q19 22 48.5 35.5t71.5 13.5q31 0 58.5 -8.5t48.5 -25.5q20 -17 32 -42.5t12 -59.5q0 -50 -26.5 -82t-64.5 -55z
M50 332h674v-74h-674v74z" />
    <glyph glyph-name="oneeighth" unicode="&#x215b;" horiz-adv-x="774" 
d="M546 104q0 -49 -37 -81q25 -19 38.5 -41.5t13.5 -56.5q0 -40 -17 -66t-43 -41t-56 -21t-57 -6q-44 0 -76.5 11.5t-53.5 30.5t-31.5 43t-10.5 49q0 61 52 96q-19 16 -28.5 37.5t-9.5 45.5q0 55 41 89.5t117 34.5q33 0 62 -8t50 -24t33.5 -39t12.5 -53zM388 -16
q-46 0 -64 -19t-18 -40q0 -22 20 -39.5t62 -17.5q35 0 58.5 15.5t23.5 41.5t-22 42.5t-60 16.5zM388 151q-20 0 -33 -4t-20 -11q-8 -7 -11 -15t-3 -16q0 -20 14.5 -33t52.5 -13q29 0 48.5 11.5t19.5 34.5q0 20 -18 33t-50 13zM50 332h674v-74h-674v74zM356 364v245h-85v81
q21 0 44.5 3.5t34.5 9.5h-1q5 5 12 16.5t7 38.5h75v-394h-87z" />
    <glyph glyph-name="threeeighths" unicode="&#x215c;" horiz-adv-x="774" 
d="M546 104q0 -49 -37 -81q25 -19 38.5 -41.5t13.5 -56.5q0 -40 -17 -66t-43 -41t-56 -21t-57 -6q-44 0 -76.5 11.5t-53.5 30.5t-31.5 43t-10.5 49q0 61 52 96q-19 16 -28.5 37.5t-9.5 45.5q0 55 41 89.5t117 34.5q33 0 62 -8t50 -24t33.5 -39t12.5 -53zM388 -16
q-46 0 -64 -19t-18 -40q0 -22 20 -39.5t62 -17.5q35 0 58.5 15.5t23.5 41.5t-22 42.5t-60 16.5zM388 151q-20 0 -33 -4t-20 -11q-8 -7 -11 -15t-3 -16q0 -20 14.5 -33t52.5 -13q29 0 48.5 11.5t19.5 34.5q0 20 -18 33t-50 13zM50 332h674v-74h-674v74zM312 521q0 -48 16 -68
t58 -20q31 0 50.5 17t19.5 46q0 15 -9 25t-22 16q-14 5 -29 7t-27 2h-35v76h20q4 0 18 0.5t30 5.5q16 4 28.5 15.5t12.5 32.5q0 17 -15 32.5t-44 15.5q-60 0 -60 -78h-88q0 30 8.5 58t26.5 50q18 21 46.5 34t68.5 13q23 0 49 -8t48 -23q22 -16 36.5 -40t14.5 -56
q0 -26 -10 -47t-28 -38q23 -18 37 -40.5t14 -53.5q0 -45 -18 -72t-43 -42t-52.5 -20t-46.5 -5q-73 0 -117.5 42t-44.5 123h87z" />
    <glyph glyph-name="fiveeighths" unicode="&#x215d;" horiz-adv-x="774" 
d="M223 549q0 5 1.5 17t6.5 29l24 146q4 31 9 48h256v-77h-183l-12 -57q14 5 34.5 7.5t37.5 2.5q25 0 50 -11t45 -30q19 -20 31 -47t12 -59q0 -48 -19 -78t-45 -46q-26 -17 -52.5 -22.5t-41.5 -5.5q-68 0 -111 37t-54 106h96q2 -29 22 -49t49 -20q27 0 48 18.5t21 54.5
q0 29 -16.5 52t-50.5 23q-25 0 -43 -11.5t-29 -26.5zM546 104q0 -49 -37 -81q25 -19 38.5 -41.5t13.5 -56.5q0 -40 -17 -66t-43 -41t-56 -21t-57 -6q-44 0 -76.5 11.5t-53.5 30.5t-31.5 43t-10.5 49q0 61 52 96q-19 16 -28.5 37.5t-9.5 45.5q0 55 41 89.5t117 34.5
q33 0 62 -8t50 -24t33.5 -39t12.5 -53zM388 -16q-46 0 -64 -19t-18 -40q0 -22 20 -39.5t62 -17.5q35 0 58.5 15.5t23.5 41.5t-22 42.5t-60 16.5zM388 151q-20 0 -33 -4t-20 -11q-8 -7 -11 -15t-3 -16q0 -20 14.5 -33t52.5 -13q29 0 48.5 11.5t19.5 34.5q0 20 -18 33t-50 13z
M50 332h674v-74h-674v74z" />
    <glyph glyph-name="seveneighths" unicode="&#x215e;" horiz-adv-x="774" 
d="M231 771h315v-61q-34 -43 -61.5 -83.5t-46.5 -81.5q-19 -42 -29.5 -85t-10.5 -91h-90q0 29 9 69.5t26 85.5q16 44 40 88.5t54 82.5h-206v76zM546 104q0 -49 -37 -81q25 -19 38.5 -41.5t13.5 -56.5q0 -40 -17 -66t-43 -41t-56 -21t-57 -6q-44 0 -76.5 11.5t-53.5 30.5
t-31.5 43t-10.5 49q0 61 52 96q-19 16 -28.5 37.5t-9.5 45.5q0 55 41 89.5t117 34.5q33 0 62 -8t50 -24t33.5 -39t12.5 -53zM388 -16q-46 0 -64 -19t-18 -40q0 -22 20 -39.5t62 -17.5q35 0 58.5 15.5t23.5 41.5t-22 42.5t-60 16.5zM388 151q-20 0 -33 -4t-20 -11
q-8 -7 -11 -15t-3 -16q0 -20 14.5 -33t52.5 -13q29 0 48.5 11.5t19.5 34.5q0 20 -18 33t-50 13zM50 332h674v-74h-674v74z" />
    <glyph glyph-name="uni2160" unicode="&#x2160;" horiz-adv-x="183" 
d="M72 683l61 -59v-255l-61 -60l-22 21v334zM50 -71v341l22 21l61 -60v-262l-61 -60z" />
    <glyph glyph-name="uni2161" unicode="&#x2161;" horiz-adv-x="343" 
d="M72 683l61 -59v-255l-61 -60l-22 21v334zM50 -71v341l22 21l61 -60v-262l-61 -60zM232 683l61 -59v-255l-61 -60l-22 21v334zM210 -71v341l22 21l61 -60v-262l-61 -60z" />
    <glyph glyph-name="uni2162" unicode="&#x2162;" horiz-adv-x="503" 
d="M72 683l61 -59v-255l-61 -60l-22 21v334zM50 -71v341l22 21l61 -60v-262l-61 -60zM232 683l61 -59v-255l-61 -60l-22 21v334zM210 -71v341l22 21l61 -60v-262l-61 -60zM392 683l61 -59v-255l-61 -60l-22 21v334zM370 -71v341l22 21l61 -60v-262l-61 -60z" />
    <glyph glyph-name="uni2163" unicode="&#x2163;" horiz-adv-x="672" 
d="M72 683l61 -59v-255l-61 -60l-22 21v334zM50 -71v341l22 21l61 -60v-262l-61 -60zM168 683l73 -43l43 -257l-45 -73l-27 15l-62 334zM300 -59l-66 321l16 25l74 -45l64 -311l-24 -22zM622 659l-72 -334l-27 -15l-45 73l53 257l73 43zM426 -91l-24 22l54 311l74 45l16 -25
l-56 -321z" />
    <glyph glyph-name="uni2164" unicode="&#x2164;" horiz-adv-x="612" 
d="M68 683l73 -43l53 -257l-45 -73l-27 15l-72 334zM220 -59l-76 321l16 25l74 -45l74 -311l-24 -22zM562 659l-72 -334l-27 -15l-45 73l53 257l73 43zM346 -91l-24 22l74 311l74 45l16 -25l-76 -321z" />
    <glyph glyph-name="uni2165" unicode="&#x2165;" horiz-adv-x="679" 
d="M568 683l61 -59v-255l-61 -60l-22 21v334zM546 -71v341l22 21l61 -60v-262l-61 -60zM68 683l73 -43l43 -257l-45 -73l-27 15l-62 334zM200 -59l-66 321l16 25l74 -45l64 -311l-24 -22zM522 659l-72 -334l-27 -15l-45 73l53 257l73 43zM326 -91l-24 22l54 311l74 45
l16 -25l-56 -321z" />
    <glyph glyph-name="uni2166" unicode="&#x2166;" horiz-adv-x="819" 
d="M568 683l61 -59v-255l-61 -60l-22 21v334zM546 -71v341l22 21l61 -60v-262l-61 -60zM68 683l73 -43l43 -257l-45 -73l-27 15l-62 334zM200 -59l-66 321l16 25l74 -45l64 -311l-24 -22zM522 659l-72 -334l-27 -15l-45 73l53 257l73 43zM326 -91l-24 22l54 311l74 45
l16 -25l-56 -321zM708 683l61 -59v-255l-61 -60l-22 21v334zM686 -71v341l22 21l61 -60v-262l-61 -60z" />
    <glyph glyph-name="uni2167" unicode="&#x2167;" horiz-adv-x="949" 
d="M568 683l61 -59v-255l-61 -60l-22 21v334zM546 -71v341l22 21l61 -60v-262l-61 -60zM68 683l73 -43l43 -257l-45 -73l-27 15l-62 334zM200 -59l-66 321l16 25l74 -45l64 -311l-24 -22zM522 659l-72 -334l-27 -15l-45 73l53 257l73 43zM326 -91l-24 22l54 311l74 45
l16 -25l-56 -321zM708 683l61 -59v-255l-61 -60l-22 21v334zM686 -71v341l22 21l61 -60v-262l-61 -60zM838 683l61 -59v-255l-61 -60l-22 21v334zM816 -71v341l22 21l61 -60v-262l-61 -60z" />
    <glyph glyph-name="uni2168" unicode="&#x2168;" horiz-adv-x="699" 
d="M72 683l61 -59v-255l-61 -60l-22 21v334zM50 -71v341l22 21l61 -60v-262l-61 -60zM168 683l69 -17l46 -100l-35 -65l-31 15l-67 143zM304 341l-61 122l12 25l68 -6l66 -119l-23 -34zM649 659l-67 -143l-31 -15l-35 65l46 100l69 17zM433 329l-23 34l66 119l68 6l12 -25
l-61 -122zM150 -64l67 163l31 15l35 -65l-46 -120l-69 -17zM366 306l23 -34l-66 -139l-68 -6l-12 25l61 142zM631 -88l-69 17l-46 120l35 65l31 -15l67 -163zM495 294l61 -142l-12 -25l-68 6l-66 139l23 34z" />
    <glyph glyph-name="uni2169" unicode="&#x2169;" horiz-adv-x="599" 
d="M68 683l69 -17l46 -100l-35 -65l-31 15l-67 143zM204 341l-61 122l12 25l68 -6l66 -119l-23 -34zM549 659l-67 -143l-31 -15l-35 65l46 100l69 17zM333 329l-23 34l66 119l68 6l12 -25l-61 -122zM50 -64l67 163l31 15l35 -65l-46 -120l-69 -17zM266 306l23 -34l-66 -139
l-68 -6l-12 25l61 142zM531 -88l-69 17l-46 120l35 65l31 -15l67 -163zM395 294l61 -142l-12 -25l-68 6l-66 139l23 34z" />
    <glyph glyph-name="uni2170" unicode="&#x2170;" horiz-adv-x="183" 
d="M72 683l61 -59v-255l-61 -60l-22 21v334zM50 -71v341l22 21l61 -60v-262l-61 -60z" />
    <glyph glyph-name="uni2171" unicode="&#x2171;" horiz-adv-x="343" 
d="M72 683l61 -59v-255l-61 -60l-22 21v334zM50 -71v341l22 21l61 -60v-262l-61 -60zM232 683l61 -59v-255l-61 -60l-22 21v334zM210 -71v341l22 21l61 -60v-262l-61 -60z" />
    <glyph glyph-name="uni2172" unicode="&#x2172;" horiz-adv-x="503" 
d="M72 683l61 -59v-255l-61 -60l-22 21v334zM50 -71v341l22 21l61 -60v-262l-61 -60zM232 683l61 -59v-255l-61 -60l-22 21v334zM210 -71v341l22 21l61 -60v-262l-61 -60zM392 683l61 -59v-255l-61 -60l-22 21v334zM370 -71v341l22 21l61 -60v-262l-61 -60z" />
    <glyph glyph-name="uni2173" unicode="&#x2173;" horiz-adv-x="672" 
d="M72 683l61 -59v-255l-61 -60l-22 21v334zM50 -71v341l22 21l61 -60v-262l-61 -60zM168 683l73 -43l43 -257l-45 -73l-27 15l-62 334zM300 -59l-66 321l16 25l74 -45l64 -311l-24 -22zM622 659l-72 -334l-27 -15l-45 73l53 257l73 43zM426 -91l-24 22l54 311l74 45l16 -25
l-56 -321z" />
    <glyph glyph-name="uni2174" unicode="&#x2174;" horiz-adv-x="612" 
d="M68 683l73 -43l53 -257l-45 -73l-27 15l-72 334zM220 -59l-76 321l16 25l74 -45l74 -311l-24 -22zM562 659l-72 -334l-27 -15l-45 73l53 257l73 43zM346 -91l-24 22l74 311l74 45l16 -25l-76 -321z" />
    <glyph glyph-name="uni2175" unicode="&#x2175;" horiz-adv-x="679" 
d="M568 683l61 -59v-255l-61 -60l-22 21v334zM546 -71v341l22 21l61 -60v-262l-61 -60zM68 683l73 -43l43 -257l-45 -73l-27 15l-62 334zM200 -59l-66 321l16 25l74 -45l64 -311l-24 -22zM522 659l-72 -334l-27 -15l-45 73l53 257l73 43zM326 -91l-24 22l54 311l74 45
l16 -25l-56 -321z" />
    <glyph glyph-name="uni2176" unicode="&#x2176;" horiz-adv-x="819" 
d="M568 683l61 -59v-255l-61 -60l-22 21v334zM546 -71v341l22 21l61 -60v-262l-61 -60zM68 683l73 -43l43 -257l-45 -73l-27 15l-62 334zM200 -59l-66 321l16 25l74 -45l64 -311l-24 -22zM522 659l-72 -334l-27 -15l-45 73l53 257l73 43zM326 -91l-24 22l54 311l74 45
l16 -25l-56 -321zM708 683l61 -59v-255l-61 -60l-22 21v334zM686 -71v341l22 21l61 -60v-262l-61 -60z" />
    <glyph glyph-name="uni2177" unicode="&#x2177;" horiz-adv-x="949" 
d="M568 683l61 -59v-255l-61 -60l-22 21v334zM546 -71v341l22 21l61 -60v-262l-61 -60zM68 683l73 -43l43 -257l-45 -73l-27 15l-62 334zM200 -59l-66 321l16 25l74 -45l64 -311l-24 -22zM522 659l-72 -334l-27 -15l-45 73l53 257l73 43zM326 -91l-24 22l54 311l74 45
l16 -25l-56 -321zM708 683l61 -59v-255l-61 -60l-22 21v334zM686 -71v341l22 21l61 -60v-262l-61 -60zM838 683l61 -59v-255l-61 -60l-22 21v334zM816 -71v341l22 21l61 -60v-262l-61 -60z" />
    <glyph glyph-name="uni2178" unicode="&#x2178;" horiz-adv-x="699" 
d="M72 683l61 -59v-255l-61 -60l-22 21v334zM50 -71v341l22 21l61 -60v-262l-61 -60zM168 683l69 -17l46 -100l-35 -65l-31 15l-67 143zM304 341l-61 122l12 25l68 -6l66 -119l-23 -34zM649 659l-67 -143l-31 -15l-35 65l46 100l69 17zM433 329l-23 34l66 119l68 6l12 -25
l-61 -122zM150 -64l67 163l31 15l35 -65l-46 -120l-69 -17zM366 306l23 -34l-66 -139l-68 -6l-12 25l61 142zM631 -88l-69 17l-46 120l35 65l31 -15l67 -163zM495 294l61 -142l-12 -25l-68 6l-66 139l23 34z" />
    <glyph glyph-name="uni2179" unicode="&#x2179;" horiz-adv-x="599" 
d="M68 683l69 -17l46 -100l-35 -65l-31 15l-67 143zM204 341l-61 122l12 25l68 -6l66 -119l-23 -34zM549 659l-67 -143l-31 -15l-35 65l46 100l69 17zM333 329l-23 34l66 119l68 6l12 -25l-61 -122zM50 -64l67 163l31 15l35 -65l-46 -120l-69 -17zM266 306l23 -34l-66 -139
l-68 -6l-12 25l61 142zM531 -88l-69 17l-46 120l35 65l31 -15l67 -163zM395 294l61 -142l-12 -25l-68 6l-66 139l23 34z" />
    <glyph glyph-name="arrowleft" unicode="&#x2190;" horiz-adv-x="1028" 
d="M978 255h-624l47 -41l-21 -33l-330 114l328 112l21 -34l-43 -38h622v-80z" />
    <glyph glyph-name="arrowup" unicode="&#x2191;" horiz-adv-x="323" 
d="M122 -166v652l-34 -46l-38 20l111 357l112 -356l-35 -22l-38 46v-651h-78z" />
    <glyph glyph-name="arrowright" unicode="&#x2192;" horiz-adv-x="1029" 
d="M50 335h621l-23 20q-13 8 -21 19l20 34l332 -113l-331 -114l-20 34l44 40h-622v80z" />
    <glyph glyph-name="arrowdown" unicode="&#x2193;" horiz-adv-x="324" 
d="M238 154l36 -22l-113 -353l-111 353l38 20l34 -45v651h78v-652z" />
    <glyph glyph-name="arrowboth" unicode="&#x2194;" horiz-adv-x="1073" 
d="M397 210l-19 -37l-328 121l330 123l20 -38l-49 -44h374l-25 23q-4 3 -7.5 5.5t-6.5 5.5q-8 6 -11 10l20 38l328 -122l-326 -122l-19 37l47 45h-376z" />
    <glyph glyph-name="arrowupdn" unicode="&#x2195;" horiz-adv-x="331" 
d="M85 448l-35 21l115 344l115 -344l-35 -21l-41 48v-403q5 6 10.5 13t11.5 13q7 11 20 24l35 -21l-115 -347l-116 346l36 21l40 -49v405z" />
    <glyph glyph-name="uni2196" unicode="&#x2196;" horiz-adv-x="996" 
d="M893 -168l-663 696v-102l-40 -7l-140 357l335 -150l-6 -42h-91q163 -175 328 -350t330 -343z" />
    <glyph glyph-name="uni2197" unicode="&#x2197;" horiz-adv-x="998" 
d="M50 -120l662 698h-100l-6 42l342 147l-143 -351l-42 6v94q-84 -88 -166 -175t-163 -172l-165 -173q-42 -43 -82 -86.5t-82 -86.5z" />
    <glyph glyph-name="uni2198" unicode="&#x2198;" horiz-adv-x="997" 
d="M103 763l663 -696v101l40 7l141 -358l-336 152l6 42h92q-84 87 -166 173t-164 174q-84 87 -166 172.5t-163 173.5z" />
    <glyph glyph-name="uni2199" unicode="&#x2199;" horiz-adv-x="997" 
d="M947 700l-662 -698h100l6 -42l-341 -147l142 351l42 -6v-93q81 85 162.5 171.5t166.5 174.5q42 43 82 86.5t82 86.5t82.5 85.5t82.5 87.5z" />
    <glyph glyph-name="arrowdblright" unicode="&#x21d2;" horiz-adv-x="1035" 
d="M686 408l-47 37q-7 4 -13 8.5t-12 8.5q-13 8 -22 17l49 64l344 -249l-346 -250l-47 67l97 70h-639v80h748l12 8l11 8q1 1 3.5 2.5t5.5 4.5q2 2 5.5 4.5t7.5 5.5l-13 8l-6 4t-5 5q-12 6 -24 18h-745v79h636z" />
    <glyph glyph-name="arrowdblboth" unicode="&#x21d4;" horiz-adv-x="1049" 
d="M701 409q-24 16 -48 36q-7 4 -13 8.5t-12 8.5l-12 8t-11 9l51 65l343 -249l-345 -250l-48 67l97 70h-358l24 -18t26 -18q12 -11 24 -18q6 -5 12.5 -9t12.5 -7l-50 -65l-344 248l348 252l47 -67l-97 -71h353zM811 261q6 4 12 8.5t12 7.5q4 1 10 7l14 10l-13 8q-3 2 -5.5 4
t-4.5 5q-14 7 -25 18h-574l-13 -9q-6 -6 -9 -7l-6 -4t-6 -5l-12 -8q2 -3 5 -5l6 -4l12 -8q12 -12 24 -18h573z" />
    <glyph glyph-name="universal" unicode="&#x2200;" horiz-adv-x="794" 
d="M227 465h339q9 24 20.5 49.5t23.5 52.5l21 50q6 13 11 25.5t11 25.5h91l-309 -744h-76l-309 744h91zM533 385h-274q4 -12 8.5 -22.5t8.5 -21.5q4 -10 8.5 -20.5t9.5 -19.5q8 -21 16.5 -41.5t17.5 -39.5q7 -21 15.5 -41.5t17.5 -40.5q4 -11 8 -21.5t9 -21.5q4 -10 8.5 -21
t9.5 -21z" />
    <glyph glyph-name="partialdiff" unicode="&#x2202;" horiz-adv-x="440" 
d="M174 131q21 9 39.5 22.5t33.5 33.5q13 18 24.5 39.5t20.5 46.5l-52 -10q-15 -5 -29.5 -12t-28.5 -17q-16 -12 -26.5 -26.5t-14.5 -32.5q-2 -5 -2 -9t1 -8q0 -12 5 -17q1 -9 11 -11q5 -5 18 1zM208 423q-11 -2 -19.5 -5t-15.5 -6q-16 -10 -23 -19q-23 -24 -34 -30
q-16 -7 -26 8q-9 10 -3 29q5 16 17 28q13 13 29.5 25.5t34.5 24.5q34 19 81 18q33 -5 61 -18q12 -8 23.5 -17.5t20.5 -19.5q9 -12 15.5 -25t11.5 -27q4 -15 6.5 -30.5t2.5 -30.5q0 -21 -3 -40t-7 -35q-6 -18 -13.5 -35.5t-17.5 -33.5q-11 -18 -23.5 -33.5t-27.5 -28.5
q-15 -15 -31.5 -26t-34.5 -19q-35 -17 -78 -17q-21 0 -38.5 5.5t-29.5 17.5q-28 22 -34 64q-6 26 6 57q7 28 32 54q10 12 23 22.5t28 20.5q14 9 29 15t32 11q12 3 25.5 4.5t27.5 3.5q6 0 12 0.5t12 0.5q5 0 10.5 0.5t10.5 0.5q-2 8 -2 14q0 4 -0.5 7.5t-0.5 7.5l-10 29
q-6 9 -14 16t-18 10q-12 2 -23.5 2.5t-23.5 -0.5z" />
    <glyph glyph-name="existential" unicode="&#x2203;" horiz-adv-x="624" 
d="M574 667v-744h-524v80h438v266h-413v80h413v238h-430v80h516z" />
    <glyph glyph-name="gradient" unicode="&#x2207;" horiz-adv-x="838" 
d="M419 -56l-369 660h738zM187 524q30 -54 59 -105t58 -100q13 -25 27.5 -50.5t28.5 -51.5q15 -25 30 -51.5t30 -52.5l29 53l14 26t15 26q25 48 55 101q6 12 13 24.5t14 25.5q6 12 13 25t15 26q6 12 13 24.5t14 25.5l30 54h-458z" />
    <glyph glyph-name="element" unicode="&#x2208;" horiz-adv-x="774" 
d="M134 255q6 -79 60 -116q50 -43 134 -44h396v-79h-386q-30 0 -58.5 4.5t-53.5 14.5q-53 18 -92 55q-20 18 -35.5 39.5t-25.5 48.5q-12 25 -17.5 54.5t-5.5 62.5q0 31 5 59.5t16 54.5q20 52 60 87q18 18 41 31.5t50 24.5q51 17 116 22h386v-79h-396q-80 0 -133 -41
q-55 -43 -61 -119h589v-80h-589z" />
    <glyph glyph-name="suchthat" unicode="&#x220b;" horiz-adv-x="774" 
d="M51 255v80h589q-5 38 -20 68t-41 51q-55 41 -133 41h-396v79h385q31 -2 60.5 -7.5t56.5 -14.5q26 -11 48.5 -24.5t42.5 -31.5q35 -35 60 -87q10 -26 15.5 -54.5t5.5 -59.5q0 -33 -6 -62.5t-16 -54.5q-12 -27 -27.5 -48.5t-34.5 -39.5q-42 -37 -91 -55q-53 -19 -114 -19
h-385v79h396q79 1 134 44q49 37 60 116h-589z" />
    <glyph glyph-name="product" unicode="&#x220f;" horiz-adv-x="738" 
d="M688 630v-80h-157v-590h-79v590h-166v-590h-79v590h-157v80h638z" />
    <glyph glyph-name="summation" unicode="&#x2211;" horiz-adv-x="673" 
d="M615 630v-253h-79v173h-362q28 -32 58 -64t60 -63q30 -35 59 -65q14 -16 28.5 -32t29.5 -31l-235 -255h369v174h80v-254h-528q-20 0 -30 9q-15 5 -15 28q0 16 11 33q10 16 20 26l109 120q25 28 52.5 58t56.5 61q-29 30 -57.5 61.5t-57.5 64.5q-30 32 -58.5 63.5
t-55.5 61.5v84h545z" />
    <glyph glyph-name="radical" unicode="&#x221a;" horiz-adv-x="845" 
d="M50 169l112 83l63 -125q7 52 18 112q5 28 10 57l10 58q4 28 8.5 56.5t9.5 56.5l19 114h495v-81h-427q-12 -69 -23.5 -136t-21.5 -134l-24 -136l-23 -133q-5 -11 -9 -14q-9 -7 -16 -7q-12 -2 -18 3q-11 2 -13 13l-88 175q-12 -11 -24 -18l-13 -9q-5 -7 -9 -8z" />
    <glyph glyph-name="proportional" unicode="&#x221d;" horiz-adv-x="812" 
d="M715 397q-12 9 -22.5 15.5t-19.5 9.5q-20 6 -43 6q-29 0 -53 -11q-23 -12 -40 -30q-16 -18 -29 -43q-6 -13 -12 -25.5t-10 -24.5q3 -12 8.5 -24t11.5 -23q5 -12 12 -23t16 -20q16 -19 41 -30q22 -12 55 -12q44 0 85 31l47 -66q-38 -25 -66 -35q-30 -12 -66 -12
q-20 0 -37 2t-32 8q-16 4 -29.5 11t-25.5 16q-12 7 -22.5 16.5t-17.5 20.5q-9 10 -16 21t-11 23q-30 -53 -72 -84q-23 -18 -51 -26t-61 -8q-45 0 -81 18q-38 16 -65 47q-30 28 -43 68q-9 19 -12.5 39.5t-3.5 42.5q0 21 3.5 41.5t12.5 40.5q7 19 17.5 36.5t25.5 32.5
q25 28 65 47q37 17 81 17q68 0 115 -35q43 -37 72 -89q7 13 15.5 25.5t17.5 24.5q8 10 18 20t22 19q19 13 51 26q13 4 29.5 6.5t34.5 2.5t34.5 -3t33.5 -9q15 -7 31 -16t32 -20zM129 295q0 -14 2 -26t8 -24q7 -23 26 -42q17 -20 40 -30q21 -11 50 -11q28 0 52 12
q10 5 20 12.5t19 17.5q18 19 29 42q3 5 5.5 11t5.5 12l12 25q-6 12 -11 24t-11 24q-7 11 -14.5 21.5t-15.5 21.5q-9 9 -19.5 17t-20.5 14q-24 12 -51 12q-14 0 -26 -3t-23 -8q-25 -12 -40 -29q-9 -9 -16 -19.5t-11 -22.5q-6 -12 -8 -25t-2 -26z" />
    <glyph glyph-name="infinity" unicode="&#x221e;" horiz-adv-x="786" 
d="M231 483q21 0 41.5 -6t40.5 -16q35 -23 78 -85q25 46 64 76q37 31 100 31q18 0 35.5 -4t34.5 -11q34 -19 58 -42q12 -14 21.5 -29t17.5 -31q6 -18 10 -35.5t4 -35.5q0 -19 -4 -37t-10 -34q-8 -18 -17.5 -33t-21.5 -27q-13 -14 -27.5 -24t-30.5 -17q-17 -9 -34.5 -12.5
t-35.5 -3.5q-57 0 -92 25q-38 25 -69 79q-25 -45 -66 -74q-42 -30 -97 -30q-20 0 -37.5 3.5t-33.5 11.5q-34 13 -57 41q-13 12 -23 27t-16 33q-8 16 -11 34t-3 38q0 18 3 36t11 36q6 16 16 31t23 29q12 12 26 22.5t31 18.5q16 7 33.5 11t37.5 4zM653 295q0 9 -2 19t-5 20
q-5 9 -10 17.5t-11 16.5q-7 6 -14.5 12t-16.5 11q-9 4 -19 6.5t-20 2.5q-20 0 -39 -11q-20 -13 -32 -27q-8 -9 -14.5 -17t-10.5 -17q-6 -10 -9.5 -18.5t-5.5 -15.5q5 -16 18 -35q8 -20 24 -33q12 -18 32 -26q8 -6 17 -8t20 -2q10 0 20 2t19 7q17 7 31 24q6 6 11 14.5
t10 18.5q3 9 5 18.5t2 20.5zM134 295q0 -11 1.5 -20.5t6.5 -18.5q6 -21 20 -33q12 -17 30 -24q9 -5 18.5 -7t20.5 -2t21 2t19 8q16 7 30 24q6 7 11 15.5t11 18.5l9 18l10 18q-5 6 -10 18l-9 20q-6 9 -11 17.5t-11 16.5q-12 12 -30 25q-9 4 -19 6.5t-21 2.5t-20.5 -2.5
t-18.5 -6.5q-17 -10 -30 -23q-15 -18 -20 -34q-5 -10 -6.5 -20t-1.5 -19z" />
    <glyph glyph-name="angle" unicode="&#x2220;" horiz-adv-x="766" 
d="M194 59h522v-80h-625q-31 0 -38 28q-5 10 5 26q3 6 7.5 11t9.5 10q33 33 67 68t69 71q33 35 67 71t69 74l135 146q33 36 66 71l66 70l59 -59z" />
    <glyph glyph-name="uni2225" unicode="&#x2225;" horiz-adv-x="335" 
d="M50 759h78v-928h-78v928zM207 759h78v-928h-78v928z" />
    <glyph glyph-name="logicaland" unicode="&#x2227;" horiz-adv-x="738" 
d="M622 -48l-253 542q-32 -69 -63.5 -135.5t-62.5 -135.5q-33 -69 -64.5 -137t-61.5 -134l-67 41l282 608q2 4 6 9t10 11q5 4 10 7t11 3q15 0 24 -8t14 -23l-1 1q34 -75 69.5 -151.5t71.5 -152.5q36 -78 71 -154t70 -151z" />
    <glyph glyph-name="logicalor" unicode="&#x2228;" horiz-adv-x="738" 
d="M688 600l-282 -608q-8 -17 -14 -23q-5 -5 -10.5 -6.5t-12.5 -1.5q-11 0 -21 11q-11 7 -16 19q-35 73 -70 149t-71 155q-37 78 -72.5 153.5t-68.5 150.5l67 41l252 -542q30 66 62 134t65 137q31 69 62.5 135.5t63.5 135.5z" />
    <glyph glyph-name="intersection" unicode="&#x2229;" horiz-adv-x="634" 
d="M322 576q-21 0 -39.5 -4t-35.5 -10q-18 -8 -33.5 -18t-27.5 -23q-29 -29 -42 -66q-8 -20 -11.5 -42t-3.5 -46v-415h-79v404q0 30 4.5 59.5t14.5 57.5q18 54 54 96q35 41 84 65q48 24 110 24q61 0 114 -24q47 -24 84 -65q16 -21 29.5 -45.5t22.5 -51.5q17 -57 17 -116
v-404h-79v415q0 21 -3 40.5t-9 39.5q-12 35 -35 66q-12 14 -26.5 25.5t-30.5 20.5q-37 17 -79 17z" />
    <glyph glyph-name="union" unicode="&#x222a;" horiz-adv-x="634" 
d="M322 14q45 0 79 17q16 8 30.5 19.5t26.5 26.5q11 14 20 30.5t15 36.5q12 36 12 79v415h79v-404q0 -32 -4.5 -60.5t-12.5 -55.5q-9 -28 -22.5 -52t-29.5 -44q-36 -42 -84 -66q-53 -24 -114 -24q-62 0 -110 24q-51 25 -84 65q-36 40 -54 96q-19 53 -19 117v404h79v-415
q0 -26 3.5 -48t11.5 -40q13 -41 42 -66q24 -29 61 -41q17 -8 35.5 -11t39.5 -3z" />
    <glyph glyph-name="integral" unicode="&#x222b;" horiz-adv-x="448" 
d="M185 413q12 116 48 194q16 38 38.5 60.5t50.5 30.5q17 4 35 0q12 -5 30 -25q20 -32 2 -61q-13 -19 -27 -21q-15 -6 -30 1q-11 5 -22 7q-9 0 -11 -15q-7 -20 -8 -43q-6 -29 -6 -57q-1 -9 -2 -17t-1 -15q-1 -8 -1 -15v-14q-2 -15 -2.5 -28.5t-0.5 -24.5q-1 -6 -1.5 -11.5
t-0.5 -9.5v-12q-2 -12 -2.5 -27.5t-0.5 -34.5l-4 -45l-4 -52q-6 -58 -18 -106q-6 -26 -13.5 -48t-15.5 -40q-9 -20 -19.5 -35t-20.5 -27q-24 -24 -51 -29q-18 -6 -34 1q-18 5 -30 22q-12 12 -12 30q-2 15 5 28q2 9 12 16q5 5 17 12q4 1 8.5 2.5t9.5 2.5q6 0 14 -2
q25 -16 36 1q3 6 5.5 19t5.5 32q0 10 1 21t2 23v21t1 23q1 65 6 133q1 33 3.5 66.5t7.5 68.5z" />
    <glyph glyph-name="uni222C" unicode="&#x222c;" horiz-adv-x="683" 
d="M185 413q12 116 48 194q16 38 38.5 60.5t50.5 30.5q17 4 35 0q12 -5 30 -25q20 -32 2 -61q-13 -19 -27 -21q-15 -6 -30 1q-11 5 -22 7q-9 0 -11 -15q-7 -20 -8 -43q-6 -29 -6 -57q-1 -9 -2 -17t-1 -15q-1 -8 -1 -15v-14q-2 -15 -2.5 -28.5t-0.5 -24.5q-1 -6 -1.5 -11.5
t-0.5 -9.5v-12q-2 -12 -2.5 -27.5t-0.5 -34.5l-4 -45l-4 -52q-6 -58 -18 -106q-6 -26 -13.5 -48t-15.5 -40q-9 -20 -19.5 -35t-20.5 -27q-24 -24 -51 -29q-18 -6 -34 1q-18 5 -30 22q-12 12 -12 30q-2 15 5 28q2 9 12 16q5 5 17 12q4 1 8.5 2.5t9.5 2.5q6 0 14 -2
q25 -16 36 1q3 6 5.5 19t5.5 32q0 10 1 21t2 23v21t1 23q1 65 6 133q1 33 3.5 66.5t7.5 68.5zM420 413q12 116 48 194q16 38 38.5 60.5t50.5 30.5q17 4 35 0q12 -5 30 -25q20 -32 2 -61q-13 -19 -27 -21q-15 -6 -30 1q-11 5 -22 7q-9 0 -11 -15q-7 -20 -8 -43q-6 -29 -6 -57
q-1 -9 -2 -17t-1 -15q-1 -8 -1 -15v-14q-2 -15 -2.5 -28.5t-0.5 -24.5q-1 -6 -1.5 -11.5t-0.5 -9.5v-12q-2 -12 -2.5 -27.5t-0.5 -34.5l-4 -45l-4 -52q-6 -58 -18 -106q-6 -26 -13.5 -48t-15.5 -40q-9 -20 -19.5 -35t-20.5 -27q-24 -24 -51 -29q-18 -6 -34 1q-18 5 -30 22
q-12 12 -12 30q-2 15 5 28q2 9 12 16q5 5 17 12q4 1 8.5 2.5t9.5 2.5q6 0 14 -2q25 -16 36 1q3 6 5.5 19t5.5 32q0 10 1 21t2 23v21t1 23q1 65 6 133q1 33 3.5 66.5t7.5 68.5z" />
    <glyph glyph-name="uni222E" unicode="&#x222e;" horiz-adv-x="537" 
d="M167 84l5 17q1 6 6 17q1 7 3.5 16t5.5 19q-15 10 -26.5 23t-19.5 29q-17 28 -17 69q0 27 12 57q5 13 12.5 25.5t18.5 24.5q19 21 47 34q12 6 26.5 8.5t29.5 2.5q6 21 13 37.5t13 30.5q5 12 9.5 22t9.5 18q18 36 52 58q31 18 60 14q53 -12 59 -54q2 -23 -4 -36
q-7 -18 -20 -24q-20 -13 -37 -3q-23 6 -34 27q-6 -12 -13 -29t-14 -39l-3 -9q-2 -6 -2 -8q-1 -3 -2 -6.5t-3 -7.5q-1 -4 -2.5 -9t-2.5 -11q30 -24 48 -54q8 -17 12.5 -34t4.5 -35q0 -29 -11 -56q-6 -14 -14.5 -26t-17.5 -22q-11 -12 -23 -20t-24 -14q-14 -7 -28 -10t-29 -1
q-6 -20 -12 -37t-12 -32q-7 -16 -14 -29.5t-13 -24.5q-23 -39 -50 -52q-30 -16 -56 -10q-30 5 -42 21q-17 14 -17 32q-6 36 30 60q13 6 36 5q21 -5 32 -20zM201 271q0 -6 0.5 -11.5t2.5 -9.5q2 -14 7 -19q3 12 7.5 26.5t10.5 30.5l9 30l10 30q-21 -11 -34 -31
q-13 -22 -13 -46zM337 277q0 6 -1 11.5t-1 10.5q-3 3 -4 8q0 2 -1 4t-2 5q-3 -8 -5 -15l-4 -14q-7 -15 -8 -25q-6 -14 -10 -28q-5 -11 -10 -30q9 5 17.5 12.5t15.5 18.5q13 19 13 42z" />
    <glyph glyph-name="therefore" unicode="&#x2234;" horiz-adv-x="686" 
d="M571 129q12 0 23 -5.5t22 -14.5q9 -11 14.5 -22.5t5.5 -24.5q0 -27 -20 -47q-11 -11 -22 -15.5t-23 -4.5q-13 0 -24 4.5t-20 15.5q-11 9 -15.5 21t-4.5 26q0 13 4.5 24.5t15.5 22.5q20 20 44 20zM115 129q12 0 23 -5.5t22 -14.5q19 -24 19 -47q0 -28 -19 -47
q-11 -11 -22 -15.5t-23 -4.5q-13 0 -24.5 4.5t-20.5 15.5q-11 9 -15.5 21t-4.5 26q0 13 4.5 24.5t15.5 22.5q20 20 45 20zM343 583q12 0 23 -5.5t22 -14.5q9 -11 14.5 -22.5t5.5 -24.5q0 -27 -20 -47q-11 -11 -22 -15.5t-23 -4.5q-13 0 -24.5 4.5t-20.5 15.5q-11 9 -15.5 21
t-4.5 26q0 13 4.5 24.5t15.5 22.5q20 20 45 20z" />
    <glyph glyph-name="uni2235" unicode="&#x2235;" horiz-adv-x="686" 
d="M571 460q-13 0 -24 4.5t-20 15.5q-11 9 -15.5 21t-4.5 26q0 13 4.5 24.5t15.5 22.5q20 20 44 20q12 0 23 -5.5t22 -14.5q9 -11 14.5 -22.5t5.5 -24.5q0 -27 -20 -47q-11 -11 -22 -15.5t-23 -4.5zM115 460q-13 0 -24.5 4.5t-20.5 15.5q-11 9 -15.5 21t-4.5 26
q0 13 4.5 24.5t15.5 22.5q20 20 45 20q12 0 23 -5.5t22 -14.5q19 -24 19 -47q0 -28 -19 -47q-11 -11 -22 -15.5t-23 -4.5zM343 6q-13 0 -24.5 4.5t-20.5 15.5q-11 9 -15.5 21t-4.5 26q0 13 4.5 24.5t15.5 22.5q20 20 45 20q12 0 23 -5.5t22 -14.5q9 -11 14.5 -22.5
t5.5 -24.5q0 -27 -20 -47q-11 -11 -22 -15.5t-23 -4.5z" />
    <glyph glyph-name="similar" unicode="&#x223c;" horiz-adv-x="842" 
d="M50 226q1 48 20 97q8 22 20 43t27 39q15 17 33 30.5t40 24.5q43 18 96 14q52 -6 92 -34q35 -29 66 -79q47 -85 120 -86q34 -5 60 12q12 6 22 15.5t19 21.5q17 23 28 55q4 15 8.5 31t9.5 33h81q-6 -27 -12.5 -51.5t-15.5 -48.5q-18 -48 -47 -83q-29 -34 -72 -53
q-43 -18 -101 -11q-49 6 -89 36q-41 28 -70 78q-25 38 -51 62q-15 11 -29 17t-29 8q-18 0 -33.5 -2t-27.5 -8q-14 -6 -24.5 -15t-18.5 -20q-18 -25 -26 -55q-6 -17 -9.5 -34.5t-6.5 -36.5h-80z" />
    <glyph glyph-name="uni223D" unicode="&#x223d;" horiz-adv-x="883" 
d="M640 525q44 -2 80 -18q18 -9 33 -20.5t29 -25.5q12 -15 21.5 -32.5t17.5 -36.5q12 -42 12 -85q-1 -21 -5 -39.5t-10 -36.5q-17 -38 -41 -63q-14 -15 -29 -26t-33 -18q-18 -9 -37.5 -12.5t-40.5 -3.5q-17 0 -33.5 2t-34.5 8q-37 7 -64 33l31 68q11 -6 23.5 -11.5
t26.5 -8.5q13 -5 27 -7t29 -2q10 0 20.5 2t21.5 7q20 8 35 25q13 13 24 36q3 9 5.5 19.5t3.5 22.5q0 13 -2 26t-5 26q-5 12 -10.5 23t-12.5 22q-17 19 -37 31q-12 6 -24 9t-25 5q-31 0 -55 -12q-27 -17 -44 -36q-21 -22 -34 -50q-8 -15 -14.5 -28t-11.5 -25
q-8 -17 -17.5 -34t-19.5 -34q-12 -18 -25 -33.5t-27 -28.5q-30 -29 -66 -42q-36 -17 -80 -11q-94 11 -142 69q-53 57 -49 148q0 40 16 75q13 34 41 64q25 26 62 45q17 7 36.5 11.5t40.5 4.5q6 0 14.5 -1t17.5 -2q9 -3 18 -5t18 -5q4 -2 8.5 -4t8.5 -5q4 -2 8.5 -4t9.5 -4
q8 -6 15.5 -11t13.5 -11l-36 -66q-12 8 -24 14.5t-24 12.5q-13 4 -26 7t-26 3q-12 0 -23 -2.5t-20 -6.5q-23 -11 -36 -24q-17 -17 -25 -36q-5 -11 -7 -22t-2 -23q0 -64 31 -101q30 -42 87 -43q29 -4 56 13q22 13 43 38q9 10 17.5 22.5t16.5 26.5l12 24l13 23q9 16 18.5 33.5
t20.5 35.5q19 34 48 61q25 25 63 44q35 16 84 16z" />
    <glyph glyph-name="uni2252" unicode="&#x2252;" horiz-adv-x="774" 
d="M50 416h674v-85h-674v85zM50 259h674v-85h-674v85zM202 618q27 0 48 -21q19 -24 19 -49q0 -28 -19 -49q-18 -21 -48 -21q-31 0 -48 21q-19 19 -19 49q0 27 19 49q19 21 48 21zM570 114q24 0 48 -21q9 -11 14.5 -23.5t5.5 -25.5q0 -15 -5.5 -27t-14.5 -22q-21 -21 -48 -21
q-29 0 -47 21q-21 18 -21 49q0 28 21 49t47 21z" />
    <glyph glyph-name="notequal" unicode="&#x2260;" horiz-adv-x="774" 
d="M369 431q8 27 17 54.5t19 57.5l36 112l81 -21l-61 -203h263v-84h-292q-3 -6 -5 -12.5t-4 -12.5l-8 -27q-6 -15 -10.5 -29.5t-7.5 -26.5h327v-86h-355q-5 -14 -9.5 -27.5t-9.5 -26.5l-10 -28t-9 -28q-6 -15 -11 -29l-10 -28q-4 -13 -8.5 -26.5l-8.5 -25.5l-84 16l68 203
h-227v86h256q6 24 18 53l4 14t4 13l4 14t5 14h-291v84h319z" />
    <glyph glyph-name="equivalence" unicode="&#x2261;" horiz-adv-x="774" 
d="M50 482h674v-79h-674v79zM50 335h674v-80h-674v80zM50 187h674v-79h-674v79z" />
    <glyph glyph-name="lessequal" unicode="&#x2264;" horiz-adv-x="791" 
d="M228 391q60 -27 121.5 -55t127.5 -55q63 -29 125.5 -56.5t123.5 -54.5l-38 -79l-588 260q-11 4 -22 17q-11 10 -11 23q0 8 6 20q3 4 7.5 8t10.5 7l603 267l30 -81zM50 79h691v-86h-691v86z" />
    <glyph glyph-name="greaterequal" unicode="&#x2265;" horiz-adv-x="791" 
d="M67 612l30 81l603 -267q6 -3 10.5 -7t7.5 -8q6 -12 6 -20q0 -12 -11 -23q-13 -13 -22 -17l-588 -260l-38 79l498 221zM741 -7h-691v86h691v-86z" />
    <glyph glyph-name="uni226A" unicode="&#x226a;" horiz-adv-x="834" 
d="M522 658l47 -62l-412 -301q25 -19 50.5 -38t51.5 -38l52 -38t53 -37q51 -39 102.5 -76.5t103.5 -74.5l-50 -59l-444 326q-12 6 -18 16q-8 5 -8 19q0 11 9 20l8 7l10 9zM735 658l48 -62l-413 -301q25 -19 50.5 -38t51.5 -38l52 -38t53 -37q51 -39 103 -76.5t104 -74.5
l-51 -59l-444 326q-12 6 -18 16q-7 6 -7 19q0 5 1.5 10t6.5 10l8 7l10 9z" />
    <glyph glyph-name="uni226B" unicode="&#x226b;" horiz-adv-x="834" 
d="M757 331q2 -3 4.5 -5t4.5 -4q6 -6 10 -7q3 -5 5.5 -10t2.5 -10q0 -12 -7 -19q-5 -5 -9.5 -9t-9.5 -7l-444 -326l-50 59l412 302q-51 36 -102 74t-103 77q-54 38 -105.5 75.5t-100.5 74.5l47 62zM544 331q7 -10 18 -16q3 -5 5.5 -10t2.5 -10q0 -12 -7 -19q-7 -10 -18 -16
l-444 -326l-51 59l413 302q-26 18 -51.5 36.5t-50.5 37.5l-52 38t-52 39q-54 38 -105.5 75.5t-100.5 74.5l48 62z" />
    <glyph glyph-name="propersubset" unicode="&#x2282;" horiz-adv-x="774" 
d="M131 300q0 -23 3 -42.5t11 -37.5q13 -40 40 -63q24 -29 62 -43q35 -18 81 -19h396v-79h-386q-30 0 -58.5 4.5t-53.5 14.5q-53 18 -92 55q-20 18 -35.5 39.5t-25.5 48.5q-12 25 -17.5 54.5t-5.5 62.5q0 31 5 59.5t16 55.5q20 52 60 87q18 18 41 31.5t50 24.5q26 9 55 14.5
t61 6.5h386v-79h-396q-21 0 -40.5 -4t-36.5 -10q-18 -8 -33.5 -18t-27.5 -22q-14 -14 -24.5 -29t-17.5 -33q-9 -18 -13 -38t-4 -41z" />
    <glyph glyph-name="propersuperset" unicode="&#x2283;" horiz-adv-x="774" 
d="M643 300q-2 21 -6 41t-11 38q-8 18 -18.5 33t-22.5 29q-28 24 -62 40q-18 6 -37 10t-40 4h-396v79h385q31 -1 60.5 -6.5t56.5 -14.5q26 -11 48.5 -24.5t42.5 -31.5q35 -35 60 -87q10 -27 15.5 -55.5t5.5 -59.5q0 -33 -6 -62.5t-16 -54.5q-12 -27 -27.5 -48.5t-34.5 -39.5
q-42 -37 -91 -55q-53 -19 -114 -19h-385v79h396q46 2 81 19q18 7 33 18t29 25q12 12 22 28t18 35q6 18 10 37.5t4 42.5z" />
    <glyph glyph-name="reflexsubset" unicode="&#x2286;" horiz-adv-x="791" 
d="M50 58h691v-79h-691v79zM130 369q0 -20 3.5 -37.5t11.5 -32.5q14 -33 42 -52q24 -24 62 -32q18 -6 37.5 -8.5t41.5 -0.5h396v-80h-386q-64 -5 -113 13q-55 14 -92 48q-42 31 -61 78q-12 22 -17 48t-5 56q0 28 5 54.5t17 50.5q19 42 61 78q19 15 42 26.5t50 20.5
q50 14 113 12h386v-79h-396q-40 0 -78 -8q-39 -12 -63 -32q-29 -25 -42 -53q-8 -16 -11.5 -33.5t-3.5 -36.5z" />
    <glyph glyph-name="reflexsuperset" unicode="&#x2287;" horiz-adv-x="791" 
d="M741 -21h-691v79h691v-79zM661 369q0 19 -4 36.5t-11 33.5q-8 15 -18.5 28t-22.5 25q-14 10 -29.5 18t-33.5 14q-19 4 -38.5 6t-40.5 2h-396v79h386q60 1 114 -12q25 -9 48 -20.5t43 -26.5q36 -34 61 -78q10 -24 16 -50.5t6 -54.5q0 -30 -6 -56t-16 -48q-24 -49 -61 -78
q-40 -34 -91 -48q-53 -18 -114 -13h-386v80h396q21 -2 41 0.5t38 8.5q18 4 33.5 12t29.5 20q24 19 41 52q7 15 11 32.5t4 37.5z" />
    <glyph glyph-name="uni2299" unicode="&#x2299;" horiz-adv-x="862" 
d="M432 693q40 0 77.5 -8.5t73.5 -23.5q68 -35 120 -88q51 -57 80 -127q29 -75 29 -152q0 -42 -7.5 -79t-21.5 -73q-15 -36 -35.5 -67.5t-45.5 -58.5q-26 -28 -56 -50t-64 -37q-36 -17 -73.5 -25t-76.5 -8q-42 0 -79.5 7.5t-71.5 24.5q-36 15 -66 37t-55 50q-52 52 -81 127
q-29 70 -29 152q0 79 30 153q29 73 80 127q25 27 55 48.5t66 38.5q34 15 71.5 23.5t79.5 8.5zM432 606q-33 0 -62 -6.5t-56 -18.5q-28 -13 -52 -30t-43 -38q-42 -43 -62 -99q-23 -56 -23 -120q0 -67 23 -119q10 -29 25.5 -53.5t36.5 -45.5q37 -43 95 -68q27 -14 56 -20
t62 -6q31 0 60.5 6t57.5 20q27 12 50 29t44 39q39 43 62 100q10 27 16 56.5t6 61.5q0 58 -23 118q-25 56 -62 99q-41 41 -94 69q-27 12 -56.5 19t-60.5 7zM432 466q16 0 32.5 -4t31.5 -10q31 -17 53 -39q10 -12 19 -26t16 -29q13 -34 13 -65q0 -32 -13 -64q-7 -16 -16 -29.5
t-19 -25.5q-12 -12 -24.5 -22t-27.5 -16q-16 -8 -32.5 -11t-32.5 -3q-18 0 -34 3t-31 11q-31 13 -52 38q-23 23 -35 55q-13 29 -13 64q0 16 3 32.5t10 32.5q13 32 36 55q10 12 23.5 21.5t28.5 17.5q15 6 30.5 10t33.5 4z" />
    <glyph glyph-name="perpendicular" unicode="&#x22a5;" horiz-adv-x="738" 
d="M50 58h277v534h84v-534h277v-80h-638v80z" />
    <glyph glyph-name="uni2312" unicode="&#x2312;" horiz-adv-x="779" 
d="M50 305q6 61 33 120t71 105t104 74.5t131 28.5q65 0 122 -24.5t102 -67.5q44 -44 74.5 -104t41.5 -132h-85q-9 44 -29 87.5t-51 78.5q-32 35 -75 57t-100 22q-55 0 -99.5 -22.5t-76.5 -57.5q-33 -36 -53 -79.5t-26 -85.5h-84z" />
    <glyph glyph-name="uni2460" unicode="&#x2460;" horiz-adv-x="865" 
d="M394 464v-86l-60 -57h-65v45l101 98h24zM505 556v-228l-22 -22l-61 61v149l61 59zM483 19l-61 59v149l61 62l22 -22v-229zM72 677l61 -59v-251l-61 -61l-22 22v330zM50 -66v333l22 22l61 -62v-253l-61 -59zM774 694l-59 -61h-211l-61 61l22 22h290zM111 716h293l22 -22
l-62 -61h-213l-59 61zM793 -86l-61 59v251l61 61l22 -22v-330zM815 657v-333l-22 -22l-61 62v253l61 59zM91 -103l59 61h211l61 -61l-22 -22h-290zM754 -125h-293l-22 22l62 61h213l59 -61z" />
    <glyph glyph-name="uni2461" unicode="&#x2461;" horiz-adv-x="865" 
d="M615 528v-200l-22 -22l-61 61v121l61 59zM596 9h-288l-21 19l64 60h202l63 -60zM248 64v203l22 22l61 -62v-123l-61 -59zM575 564l-63 -60h-190l-64 60l21 19h276zM566 297l-41 -40h-186l-42 40l42 41h186zM72 677l61 -59v-251l-61 -61l-22 22v330zM50 -66v333l22 22
l61 -62v-253l-61 -59zM774 694l-59 -61h-211l-61 61l22 22h290zM111 716h293l22 -22l-62 -61h-213l-59 61zM793 -86l-61 59v251l61 61l22 -22v-330zM815 657v-333l-22 -22l-61 62v253l61 59zM91 -103l59 61h211l61 -61l-22 -22h-290zM754 -125h-293l-22 22l62 61h213l59 -61
z" />
    <glyph glyph-name="uni2462" unicode="&#x2462;" horiz-adv-x="865" 
d="M601 528v-200l-22 -22l-61 61v121l61 59zM541 9h-274l-21 19l64 60h188l63 -60zM579 45l-61 59v123l61 62l22 -22v-203zM561 564l-63 -60h-178l-64 60l21 19h264zM552 297l-41 -40h-186l-42 40l42 41h186zM72 677l61 -59v-251l-61 -61l-22 22v330zM50 -66v333l22 22
l61 -62v-253l-61 -59zM774 694l-59 -61h-211l-61 61l22 22h290zM111 716h293l22 -22l-62 -61h-213l-59 61zM793 -86l-61 59v251l61 61l22 -22v-330zM815 657v-333l-22 -22l-61 62v253l61 59zM91 -103l59 61h211l61 -61l-22 -22h-290zM754 -125h-293l-22 22l62 61h213l59 -61
z" />
    <glyph glyph-name="uni2463" unicode="&#x2463;" horiz-adv-x="865" 
d="M263 564l61 -59v-138l-61 -61l-22 22v217zM618 555v-227l-22 -22l-61 61v148l61 59zM596 19l-61 59v149l61 62l22 -22v-229zM569 297l-41 -40h-196l-42 40l42 41h196zM72 677l61 -59v-251l-61 -61l-22 22v330zM50 -66v333l22 22l61 -62v-253l-61 -59zM774 694l-59 -61
h-211l-61 61l22 22h290zM111 716h293l22 -22l-62 -61h-213l-59 61zM793 -86l-61 59v251l61 61l22 -22v-330zM815 657v-333l-22 -22l-61 62v253l61 59zM91 -103l59 61h211l61 -61l-22 -22h-290zM754 -125h-293l-22 22l62 61h213l59 -61z" />
    <glyph glyph-name="uni2464" unicode="&#x2464;" horiz-adv-x="865" 
d="M272 547l61 -59v-121l-61 -61l-22 22v200zM249 28l63 60h204l64 -60l-21 -19h-290zM597 45l-61 59v123l61 62l22 -22v-203zM310 583h278l21 -19l-64 -60h-192l-63 60zM340 338h188l42 -41l-42 -40h-188l-41 40zM72 677l61 -59v-251l-61 -61l-22 22v330zM50 -66v333l22 22
l61 -62v-253l-61 -59zM774 694l-59 -61h-211l-61 61l22 22h290zM111 716h293l22 -22l-62 -61h-213l-59 61zM793 -86l-61 59v251l61 61l22 -22v-330zM815 657v-333l-22 -22l-61 62v253l61 59zM91 -103l59 61h211l61 -61l-22 -22h-290zM754 -125h-293l-22 22l62 61h213l59 -61
z" />
    <glyph glyph-name="uni2465" unicode="&#x2465;" horiz-adv-x="865" 
d="M271 547l61 -59v-121l-61 -61l-22 22v200zM556 9h-247l-21 19l64 60h161l63 -60zM249 64v203l22 22l61 -62v-123l-61 -59zM594 45l-61 59v123l61 62l22 -22v-203zM600 564l-63 -60h-185l-64 60l21 19h271zM567 297l-41 -40h-186l-42 40l42 41h186zM72 677l61 -59v-251
l-61 -61l-22 22v330zM50 -66v333l22 22l61 -62v-253l-61 -59zM774 694l-59 -61h-211l-61 61l22 22h290zM111 716h293l22 -22l-62 -61h-213l-59 61zM793 -86l-61 59v251l61 61l22 -22v-330zM815 657v-333l-22 -22l-61 62v253l61 59zM91 -103l59 61h211l61 -61l-22 -22h-290z
M754 -125h-293l-22 22l62 61h213l59 -61z" />
    <glyph glyph-name="uni2466" unicode="&#x2466;" horiz-adv-x="865" 
d="M597 528v-200l-22 -22l-61 61v121l61 59zM575 19l-61 59v149l61 62l22 -22v-229zM557 564l-63 -60h-183l-64 60l21 19h269zM72 677l61 -59v-251l-61 -61l-22 22v330zM50 -66v333l22 22l61 -62v-253l-61 -59zM774 694l-59 -61h-211l-61 61l22 22h290zM111 716h293l22 -22
l-62 -61h-213l-59 61zM793 -86l-61 59v251l61 61l22 -22v-330zM815 657v-333l-22 -22l-61 62v253l61 59zM91 -103l59 61h211l61 -61l-22 -22h-290zM754 -125h-293l-22 22l62 61h213l59 -61z" />
    <glyph glyph-name="uni2467" unicode="&#x2467;" horiz-adv-x="865" 
d="M273 547l61 -59v-121l-61 -61l-22 22v200zM618 528v-200l-22 -22l-61 61v121l61 59zM558 9h-247l-21 19l64 60h161l63 -60zM251 64v203l22 22l61 -62v-123l-61 -59zM596 45l-61 59v123l61 62l22 -22v-203zM578 564l-63 -60h-161l-64 60l21 19h247zM569 297l-41 -40h-186
l-42 40l42 41h186zM72 677l61 -59v-251l-61 -61l-22 22v330zM50 -66v333l22 22l61 -62v-253l-61 -59zM774 694l-59 -61h-211l-61 61l22 22h290zM111 716h293l22 -22l-62 -61h-213l-59 61zM793 -86l-61 59v251l61 61l22 -22v-330zM815 657v-333l-22 -22l-61 62v253l61 59z
M91 -103l59 61h211l61 -61l-22 -22h-290zM754 -125h-293l-22 22l62 61h213l59 -61z" />
    <glyph glyph-name="uni2468" unicode="&#x2468;" horiz-adv-x="865" 
d="M271 547l61 -59v-121l-61 -61l-22 22v200zM606 528v-200l-22 -22l-61 61v121l61 59zM546 9h-265l-21 19l64 60h179l63 -60zM584 45l-61 59v123l61 62l22 -22v-203zM566 564l-63 -60h-151l-64 60l21 19h237zM557 297l-41 -40h-176l-42 40l42 41h176zM72 677l61 -59v-251
l-61 -61l-22 22v330zM50 -66v333l22 22l61 -62v-253l-61 -59zM774 694l-59 -61h-211l-61 61l22 22h290zM111 716h293l22 -22l-62 -61h-213l-59 61zM793 -86l-61 59v251l61 61l22 -22v-330zM815 657v-333l-22 -22l-61 62v253l61 59zM91 -103l59 61h211l61 -61l-22 -22h-290z
M754 -125h-293l-22 22l62 61h213l59 -61z" />
    <glyph glyph-name="uni2469" unicode="&#x2469;" horiz-adv-x="865" 
d="M646 574l-63 -60h-61l-64 60l21 19h147zM441 557l61 -59v-131l-61 -61l-22 22v210zM686 538v-210l-22 -22l-61 61v131l61 59zM626 -1h-147l-21 19l64 60h61l63 -60zM419 54v213l22 22l61 -62v-133l-61 -59zM664 35l-61 59v133l61 62l22 -22v-213zM72 677l61 -59v-251
l-61 -61l-22 22v330zM50 -66v333l22 22l61 -62v-253l-61 -59zM774 694l-59 -61h-211l-61 61l22 22h290zM111 716h293l22 -22l-62 -61h-213l-59 61zM793 -86l-61 59v251l61 61l22 -22v-330zM815 657v-333l-22 -22l-61 62v253l61 59zM91 -103l59 61h211l61 -61l-22 -22h-290z
M754 -125h-293l-22 22l62 61h213l59 -61zM264 464v-92l-32 -51h-53v45l61 98h24zM375 556v-228l-22 -22l-61 61v149l61 59zM353 19l-61 59v149l61 62l22 -22v-229z" />
    <glyph glyph-name="uni246A" unicode="&#x246a;" horiz-adv-x="865" 
d="M72 677l61 -59v-251l-61 -61l-22 22v330zM50 -66v333l22 22l61 -62v-253l-61 -59zM774 694l-59 -61h-211l-61 61l22 22h290zM111 716h293l22 -22l-62 -61h-213l-59 61zM793 -86l-61 59v251l61 61l22 -22v-330zM815 657v-333l-22 -22l-61 62v253l61 59zM91 -103l59 61h211
l61 -61l-22 -22h-290zM754 -125h-293l-22 22l62 61h213l59 -61zM284 464v-97l-39 -46h-65v45l80 98h24zM395 556v-228l-22 -22l-61 61v149l61 59zM373 19l-61 59v149l61 62l22 -22v-229zM534 464v-97l-39 -46h-65v45l80 98h24zM645 556v-228l-22 -22l-61 61v149l61 59z
M623 19l-61 59v149l61 62l22 -22v-229z" />
    <glyph glyph-name="uni246B" unicode="&#x246b;" horiz-adv-x="865" 
d="M72 677l61 -59v-251l-61 -61l-22 22v330zM50 -66v333l22 22l61 -62v-253l-61 -59zM774 694l-59 -61h-211l-61 61l22 22h290zM111 716h293l22 -22l-62 -61h-213l-59 61zM793 -86l-61 59v251l61 61l22 -22v-330zM815 657v-333l-22 -22l-61 62v253l61 59zM91 -103l59 61h211
l61 -61l-22 -22h-290zM754 -125h-293l-22 22l62 61h213l59 -61zM264 464v-97l-39 -46h-65v45l80 98h24zM366 556v-228l-22 -22l-61 61v149l61 59zM344 19l-61 59v149l61 62l22 -22v-229zM687 528v-200l-22 -22l-61 61v121l61 59zM668 9h-208l-21 19l64 60h122l63 -60z
M400 64v203l22 22l61 -62v-123l-61 -59zM647 564l-63 -60h-110l-64 60l21 19h196zM638 297l-41 -40h-106l-42 40l42 41h106z" />
    <glyph glyph-name="uni246C" unicode="&#x246c;" horiz-adv-x="865" 
d="M72 677l61 -59v-251l-61 -61l-22 22v330zM50 -66v333l22 22l61 -62v-253l-61 -59zM774 694l-59 -61h-211l-61 61l22 22h290zM111 716h293l22 -22l-62 -61h-213l-59 61zM793 -86l-61 59v251l61 61l22 -22v-330zM815 657v-333l-22 -22l-61 62v253l61 59zM91 -103l59 61h211
l61 -61l-22 -22h-290zM754 -125h-293l-22 22l62 61h213l59 -61zM264 464v-97l-39 -46h-65v45l80 98h24zM366 556v-228l-22 -22l-61 61v149l61 59zM344 19l-61 59v149l61 62l22 -22v-229zM678 528v-200l-22 -22l-61 61v121l61 59zM618 9h-204l-21 19l64 60h118l63 -60z
M656 45l-61 59v123l61 62l22 -22v-203zM638 564l-63 -60h-108l-64 60l21 19h194zM629 297l-41 -40h-116l-42 40l42 41h116z" />
    <glyph glyph-name="uni246D" unicode="&#x246d;" horiz-adv-x="865" 
d="M72 677l61 -59v-251l-61 -61l-22 22v330zM50 -66v333l22 22l61 -62v-253l-61 -59zM774 694l-59 -61h-211l-61 61l22 22h290zM111 716h293l22 -22l-62 -61h-213l-59 61zM793 -86l-61 59v251l61 61l22 -22v-330zM815 657v-333l-22 -22l-61 62v253l61 59zM91 -103l59 61h211
l61 -61l-22 -22h-290zM754 -125h-293l-22 22l62 61h213l59 -61zM264 464v-97l-39 -46h-65v45l80 98h24zM366 556v-228l-22 -22l-61 61v149l61 59zM344 19l-61 59v149l61 62l22 -22v-229zM423 564l61 -59v-138l-61 -61l-22 22v217zM678 555v-227l-22 -22l-61 61v148l61 59z
M656 19l-61 59v149l61 62l22 -22v-229zM629 297l-41 -40h-96l-42 40l42 41h96z" />
    <glyph glyph-name="uni246E" unicode="&#x246e;" horiz-adv-x="865" 
d="M72 677l61 -59v-251l-61 -61l-22 22v330zM50 -66v333l22 22l61 -62v-253l-61 -59zM774 694l-59 -61h-211l-61 61l22 22h290zM111 716h293l22 -22l-62 -61h-213l-59 61zM793 -86l-61 59v251l61 61l22 -22v-330zM815 657v-333l-22 -22l-61 62v253l61 59zM91 -103l59 61h211
l61 -61l-22 -22h-290zM754 -125h-293l-22 22l62 61h213l59 -61zM264 464v-97l-39 -46h-65v45l80 98h24zM366 556v-228l-22 -22l-61 61v149l61 59zM344 19l-61 59v149l61 62l22 -22v-229zM426 547l61 -59v-121l-61 -61l-22 22v200zM403 28l63 60h114l64 -60l-21 -19h-200z
M661 45l-61 59v123l61 62l22 -22v-203zM464 583h188l21 -19l-64 -60h-102l-63 60zM494 338h98l42 -41l-42 -40h-98l-41 40z" />
    <glyph glyph-name="uni2474" unicode="&#x2474;" horiz-adv-x="970" 
d="M459 464v-86l-60 -57h-65v45l101 98h24zM570 556v-228l-22 -22l-61 61v149l61 59zM548 19l-61 59v149l61 62l22 -22v-229zM748 669q85 -77 123 -162t49 -174l-9 -29l-77 21q-7 38 -17 76t-26 74q-16 35 -39 66.5t-56 56.5l23 76zM719 -86l-23 77q33 25 56 56.5t39 66.5
t26 73t17 76l77 21l9 -29q-11 -89 -49 -174t-123 -162zM251 674l23 -76q-33 -25 -56 -56.5t-39 -66.5q-16 -36 -26 -74t-17 -76l-77 -21l-9 29q6 45 17.5 88.5t31.5 85.5t50 82.5t73 79.5zM222 -81q-43 39 -73 79.5t-50 82.5t-31.5 85.5t-17.5 88.5l9 29l77 -21
q7 -38 17 -76t26 -73t39 -66.5t56 -56.5l-23 -77z" />
    <glyph glyph-name="uni2475" unicode="&#x2475;" horiz-adv-x="970" 
d="M670 528v-200l-22 -22l-61 61v121l61 59zM651 9h-288l-21 19l64 60h202l63 -60zM303 64v203l22 22l61 -62v-123l-61 -59zM630 564l-63 -60h-190l-64 60l21 19h276zM621 297l-41 -40h-186l-42 40l42 41h186zM748 669q85 -77 123 -162t49 -174l-9 -29l-77 21q-7 38 -17 76
t-26 74q-16 35 -39 66.5t-56 56.5l23 76zM719 -86l-23 77q33 25 56 56.5t39 66.5t26 73t17 76l77 21l9 -29q-11 -89 -49 -174t-123 -162zM251 674l23 -76q-33 -25 -56 -56.5t-39 -66.5q-16 -36 -26 -74t-17 -76l-77 -21l-9 29q6 45 17.5 88.5t31.5 85.5t50 82.5t73 79.5z
M222 -81q-43 39 -73 79.5t-50 82.5t-31.5 85.5t-17.5 88.5l9 29l77 -21q7 -38 17 -76t26 -73t39 -66.5t56 -56.5l-23 -77z" />
    <glyph glyph-name="uni2476" unicode="&#x2476;" horiz-adv-x="970" 
d="M666 528v-200l-22 -22l-61 61v121l61 59zM606 9h-274l-21 19l64 60h188l63 -60zM644 45l-61 59v123l61 62l22 -22v-203zM626 564l-63 -60h-178l-64 60l21 19h264zM617 297l-41 -40h-186l-42 40l42 41h186zM748 669q85 -77 123 -162t49 -174l-9 -29l-77 21q-7 38 -17 76
t-26 74q-16 35 -39 66.5t-56 56.5l23 76zM719 -86l-23 77q33 25 56 56.5t39 66.5t26 73t17 76l77 21l9 -29q-11 -89 -49 -174t-123 -162zM251 674l23 -76q-33 -25 -56 -56.5t-39 -66.5q-16 -36 -26 -74t-17 -76l-77 -21l-9 29q6 45 17.5 88.5t31.5 85.5t50 82.5t73 79.5z
M222 -81q-43 39 -73 79.5t-50 82.5t-31.5 85.5t-17.5 88.5l9 29l77 -21q7 -38 17 -76t26 -73t39 -66.5t56 -56.5l-23 -77z" />
    <glyph glyph-name="uni2477" unicode="&#x2477;" horiz-adv-x="970" 
d="M308 564l61 -59v-138l-61 -61l-22 22v217zM663 555v-227l-22 -22l-61 61v148l61 59zM641 19l-61 59v149l61 62l22 -22v-229zM614 297l-41 -40h-196l-42 40l42 41h196zM748 669q85 -77 123 -162t49 -174l-9 -29l-77 21q-7 38 -17 76t-26 74q-16 35 -39 66.5t-56 56.5
l23 76zM719 -86l-23 77q33 25 56 56.5t39 66.5t26 73t17 76l77 21l9 -29q-11 -89 -49 -174t-123 -162zM251 674l23 -76q-33 -25 -56 -56.5t-39 -66.5q-16 -36 -26 -74t-17 -76l-77 -21l-9 29q6 45 17.5 88.5t31.5 85.5t50 82.5t73 79.5zM222 -81q-43 39 -73 79.5t-50 82.5
t-31.5 85.5t-17.5 88.5l9 29l77 -21q7 -38 17 -76t26 -73t39 -66.5t56 -56.5l-23 -77z" />
    <glyph glyph-name="uni2478" unicode="&#x2478;" horiz-adv-x="970" 
d="M327 547l61 -59v-121l-61 -61l-22 22v200zM304 28l63 60h204l64 -60l-21 -19h-290zM652 45l-61 59v123l61 62l22 -22v-203zM365 583h278l21 -19l-64 -60h-192l-63 60zM395 338h188l42 -41l-42 -40h-188l-41 40zM748 669q85 -77 123 -162t49 -174l-9 -29l-77 21
q-7 38 -17 76t-26 74q-16 35 -39 66.5t-56 56.5l23 76zM719 -86l-23 77q33 25 56 56.5t39 66.5t26 73t17 76l77 21l9 -29q-11 -89 -49 -174t-123 -162zM251 674l23 -76q-33 -25 -56 -56.5t-39 -66.5q-16 -36 -26 -74t-17 -76l-77 -21l-9 29q6 45 17.5 88.5t31.5 85.5
t50 82.5t73 79.5zM222 -81q-43 39 -73 79.5t-50 82.5t-31.5 85.5t-17.5 88.5l9 29l77 -21q7 -38 17 -76t26 -73t39 -66.5t56 -56.5l-23 -77z" />
    <glyph glyph-name="uni2479" unicode="&#x2479;" horiz-adv-x="970" 
d="M326 547l61 -59v-121l-61 -61l-22 22v200zM611 9h-247l-21 19l64 60h161l63 -60zM304 64v203l22 22l61 -62v-123l-61 -59zM649 45l-61 59v123l61 62l22 -22v-203zM655 564l-63 -60h-185l-64 60l21 19h271zM622 297l-41 -40h-186l-42 40l42 41h186zM748 669
q85 -77 123 -162t49 -174l-9 -29l-77 21q-7 38 -17 76t-26 74q-16 35 -39 66.5t-56 56.5l23 76zM719 -86l-23 77q33 25 56 56.5t39 66.5t26 73t17 76l77 21l9 -29q-11 -89 -49 -174t-123 -162zM251 674l23 -76q-33 -25 -56 -56.5t-39 -66.5q-16 -36 -26 -74t-17 -76l-77 -21
l-9 29q6 45 17.5 88.5t31.5 85.5t50 82.5t73 79.5zM222 -81q-43 39 -73 79.5t-50 82.5t-31.5 85.5t-17.5 88.5l9 29l77 -21q7 -38 17 -76t26 -73t39 -66.5t56 -56.5l-23 -77z" />
    <glyph glyph-name="uni247A" unicode="&#x247a;" horiz-adv-x="970" 
d="M652 528v-200l-22 -22l-61 61v121l61 59zM630 19l-61 59v149l61 62l22 -22v-229zM612 564l-63 -60h-183l-64 60l21 19h269zM748 669q85 -77 123 -162t49 -174l-9 -29l-77 21q-7 38 -17 76t-26 74q-16 35 -39 66.5t-56 56.5l23 76zM719 -86l-23 77q33 25 56 56.5t39 66.5
t26 73t17 76l77 21l9 -29q-11 -89 -49 -174t-123 -162zM251 674l23 -76q-33 -25 -56 -56.5t-39 -66.5q-16 -36 -26 -74t-17 -76l-77 -21l-9 29q6 45 17.5 88.5t31.5 85.5t50 82.5t73 79.5zM222 -81q-43 39 -73 79.5t-50 82.5t-31.5 85.5t-17.5 88.5l9 29l77 -21
q7 -38 17 -76t26 -73t39 -66.5t56 -56.5l-23 -77z" />
    <glyph glyph-name="uni247B" unicode="&#x247b;" horiz-adv-x="970" 
d="M328 547l61 -59v-121l-61 -61l-22 22v200zM673 528v-200l-22 -22l-61 61v121l61 59zM613 9h-247l-21 19l64 60h161l63 -60zM306 64v203l22 22l61 -62v-123l-61 -59zM651 45l-61 59v123l61 62l22 -22v-203zM633 564l-63 -60h-161l-64 60l21 19h247zM624 297l-41 -40h-186
l-42 40l42 41h186zM748 669q85 -77 123 -162t49 -174l-9 -29l-77 21q-7 38 -17 76t-26 74q-16 35 -39 66.5t-56 56.5l23 76zM719 -86l-23 77q33 25 56 56.5t39 66.5t26 73t17 76l77 21l9 -29q-11 -89 -49 -174t-123 -162zM251 674l23 -76q-33 -25 -56 -56.5t-39 -66.5
q-16 -36 -26 -74t-17 -76l-77 -21l-9 29q6 45 17.5 88.5t31.5 85.5t50 82.5t73 79.5zM222 -81q-43 39 -73 79.5t-50 82.5t-31.5 85.5t-17.5 88.5l9 29l77 -21q7 -38 17 -76t26 -73t39 -66.5t56 -56.5l-23 -77z" />
    <glyph glyph-name="uni247C" unicode="&#x247c;" horiz-adv-x="970" 
d="M326 547l61 -59v-121l-61 -61l-22 22v200zM661 528v-200l-22 -22l-61 61v121l61 59zM601 9h-265l-21 19l64 60h179l63 -60zM639 45l-61 59v123l61 62l22 -22v-203zM621 564l-63 -60h-151l-64 60l21 19h237zM612 297l-41 -40h-176l-42 40l42 41h176zM748 669
q85 -77 123 -162t49 -174l-9 -29l-77 21q-7 38 -17 76t-26 74q-16 35 -39 66.5t-56 56.5l23 76zM719 -86l-23 77q33 25 56 56.5t39 66.5t26 73t17 76l77 21l9 -29q-11 -89 -49 -174t-123 -162zM251 674l23 -76q-33 -25 -56 -56.5t-39 -66.5q-16 -36 -26 -74t-17 -76l-77 -21
l-9 29q6 45 17.5 88.5t31.5 85.5t50 82.5t73 79.5zM222 -81q-43 39 -73 79.5t-50 82.5t-31.5 85.5t-17.5 88.5l9 29l77 -21q7 -38 17 -76t26 -73t39 -66.5t56 -56.5l-23 -77z" />
    <glyph glyph-name="uni247D" unicode="&#x247d;" horiz-adv-x="970" 
d="M671 574l-63 -60h-61l-64 60l21 19h147zM466 557l61 -59v-131l-61 -61l-22 22v210zM711 538v-210l-22 -22l-61 61v131l61 59zM651 -1h-147l-21 19l64 60h61l63 -60zM444 54v213l22 22l61 -62v-133l-61 -59zM689 35l-61 59v133l61 62l22 -22v-213zM289 464v-92l-32 -51
h-53v45l61 98h24zM400 556v-228l-22 -22l-61 61v149l61 59zM378 19l-61 59v149l61 62l22 -22v-229zM748 669q85 -77 123 -162t49 -174l-9 -29l-77 21q-7 38 -17 76t-26 74q-16 35 -39 66.5t-56 56.5l23 76zM719 -86l-23 77q33 25 56 56.5t39 66.5t26 73t17 76l77 21l9 -29
q-11 -89 -49 -174t-123 -162zM251 674l23 -76q-33 -25 -56 -56.5t-39 -66.5q-16 -36 -26 -74t-17 -76l-77 -21l-9 29q6 45 17.5 88.5t31.5 85.5t50 82.5t73 79.5zM222 -81q-43 39 -73 79.5t-50 82.5t-31.5 85.5t-17.5 88.5l9 29l77 -21q7 -38 17 -76t26 -73t39 -66.5
t56 -56.5l-23 -77z" />
    <glyph glyph-name="uni247E" unicode="&#x247e;" horiz-adv-x="970" 
d="M309 464v-97l-39 -46h-65v45l80 98h24zM420 556v-228l-22 -22l-61 61v149l61 59zM398 19l-61 59v149l61 62l22 -22v-229zM559 464v-97l-39 -46h-65v45l80 98h24zM670 556v-228l-22 -22l-61 61v149l61 59zM648 19l-61 59v149l61 62l22 -22v-229zM748 669q85 -77 123 -162
t49 -174l-9 -29l-77 21q-7 38 -17 76t-26 74q-16 35 -39 66.5t-56 56.5l23 76zM719 -86l-23 77q33 25 56 56.5t39 66.5t26 73t17 76l77 21l9 -29q-11 -89 -49 -174t-123 -162zM251 674l23 -76q-33 -25 -56 -56.5t-39 -66.5q-16 -36 -26 -74t-17 -76l-77 -21l-9 29
q6 45 17.5 88.5t31.5 85.5t50 82.5t73 79.5zM222 -81q-43 39 -73 79.5t-50 82.5t-31.5 85.5t-17.5 88.5l9 29l77 -21q7 -38 17 -76t26 -73t39 -66.5t56 -56.5l-23 -77z" />
    <glyph glyph-name="uni247F" unicode="&#x247f;" horiz-adv-x="970" 
d="M289 464v-97l-39 -46h-65v45l80 98h24zM391 556v-228l-22 -22l-61 61v149l61 59zM369 19l-61 59v149l61 62l22 -22v-229zM712 528v-200l-22 -22l-61 61v121l61 59zM693 9h-208l-21 19l64 60h122l63 -60zM425 64v203l22 22l61 -62v-123l-61 -59zM672 564l-63 -60h-110
l-64 60l21 19h196zM663 297l-41 -40h-106l-42 40l42 41h106zM748 669q85 -77 123 -162t49 -174l-9 -29l-77 21q-7 38 -17 76t-26 74q-16 35 -39 66.5t-56 56.5l23 76zM719 -86l-23 77q33 25 56 56.5t39 66.5t26 73t17 76l77 21l9 -29q-11 -89 -49 -174t-123 -162zM251 674
l23 -76q-33 -25 -56 -56.5t-39 -66.5q-16 -36 -26 -74t-17 -76l-77 -21l-9 29q6 45 17.5 88.5t31.5 85.5t50 82.5t73 79.5zM222 -81q-43 39 -73 79.5t-50 82.5t-31.5 85.5t-17.5 88.5l9 29l77 -21q7 -38 17 -76t26 -73t39 -66.5t56 -56.5l-23 -77z" />
    <glyph glyph-name="uni2480" unicode="&#x2480;" horiz-adv-x="970" 
d="M289 464v-97l-39 -46h-65v45l80 98h24zM391 556v-228l-22 -22l-61 61v149l61 59zM369 19l-61 59v149l61 62l22 -22v-229zM703 528v-200l-22 -22l-61 61v121l61 59zM643 9h-204l-21 19l64 60h118l63 -60zM681 45l-61 59v123l61 62l22 -22v-203zM663 564l-63 -60h-108
l-64 60l21 19h194zM654 297l-41 -40h-116l-42 40l42 41h116zM748 669q85 -77 123 -162t49 -174l-9 -29l-77 21q-7 38 -17 76t-26 74q-16 35 -39 66.5t-56 56.5l23 76zM719 -86l-23 77q33 25 56 56.5t39 66.5t26 73t17 76l77 21l9 -29q-11 -89 -49 -174t-123 -162zM251 674
l23 -76q-33 -25 -56 -56.5t-39 -66.5q-16 -36 -26 -74t-17 -76l-77 -21l-9 29q6 45 17.5 88.5t31.5 85.5t50 82.5t73 79.5zM222 -81q-43 39 -73 79.5t-50 82.5t-31.5 85.5t-17.5 88.5l9 29l77 -21q7 -38 17 -76t26 -73t39 -66.5t56 -56.5l-23 -77z" />
    <glyph glyph-name="uni2481" unicode="&#x2481;" horiz-adv-x="970" 
d="M289 464v-97l-39 -46h-65v45l80 98h24zM391 556v-228l-22 -22l-61 61v149l61 59zM369 19l-61 59v149l61 62l22 -22v-229zM448 564l61 -59v-138l-61 -61l-22 22v217zM703 555v-227l-22 -22l-61 61v148l61 59zM681 19l-61 59v149l61 62l22 -22v-229zM654 297l-41 -40h-96
l-42 40l42 41h96zM748 669q85 -77 123 -162t49 -174l-9 -29l-77 21q-7 38 -17 76t-26 74q-16 35 -39 66.5t-56 56.5l23 76zM719 -86l-23 77q33 25 56 56.5t39 66.5t26 73t17 76l77 21l9 -29q-11 -89 -49 -174t-123 -162zM251 674l23 -76q-33 -25 -56 -56.5t-39 -66.5
q-16 -36 -26 -74t-17 -76l-77 -21l-9 29q6 45 17.5 88.5t31.5 85.5t50 82.5t73 79.5zM222 -81q-43 39 -73 79.5t-50 82.5t-31.5 85.5t-17.5 88.5l9 29l77 -21q7 -38 17 -76t26 -73t39 -66.5t56 -56.5l-23 -77z" />
    <glyph glyph-name="uni2482" unicode="&#x2482;" horiz-adv-x="970" 
d="M289 464v-97l-39 -46h-65v45l80 98h24zM391 556v-228l-22 -22l-61 61v149l61 59zM369 19l-61 59v149l61 62l22 -22v-229zM451 547l61 -59v-121l-61 -61l-22 22v200zM428 28l63 60h114l64 -60l-21 -19h-200zM686 45l-61 59v123l61 62l22 -22v-203zM489 583h188l21 -19
l-64 -60h-102l-63 60zM519 338h98l42 -41l-42 -40h-98l-41 40zM748 669q85 -77 123 -162t49 -174l-9 -29l-77 21q-7 38 -17 76t-26 74q-16 35 -39 66.5t-56 56.5l23 76zM719 -86l-23 77q33 25 56 56.5t39 66.5t26 73t17 76l77 21l9 -29q-11 -89 -49 -174t-123 -162zM251 674
l23 -76q-33 -25 -56 -56.5t-39 -66.5q-16 -36 -26 -74t-17 -76l-77 -21l-9 29q6 45 17.5 88.5t31.5 85.5t50 82.5t73 79.5zM222 -81q-43 39 -73 79.5t-50 82.5t-31.5 85.5t-17.5 88.5l9 29l77 -21q7 -38 17 -76t26 -73t39 -66.5t56 -56.5l-23 -77z" />
    <glyph glyph-name="uni249C" unicode="&#x249c;" horiz-adv-x="1062" 
d="M359 547l61 -59v-121l-61 -61l-22 22v200zM724 528v-200l-22 -22l-61 61v121l61 59zM337 16v251l22 22l61 -62v-171l-61 -59zM702 -3l-61 59v171l61 62l22 -22v-251zM684 564l-63 -60h-181l-64 60l21 19h267zM675 297l-41 -40h-206l-42 40l42 41h206zM788 669
q85 -77 123 -162t49 -174l-9 -29l-77 21q-7 38 -17 76t-26 74q-16 35 -39 66.5t-56 56.5l23 76zM759 -86l-23 77q33 25 56 56.5t39 66.5t26 73t17 76l77 21l9 -29q-11 -89 -49 -174t-123 -162zM291 674l23 -76q-33 -25 -56 -56.5t-39 -66.5q-16 -36 -26 -74t-17 -76l-77 -21
l-9 29q6 45 17.5 88.5t31.5 85.5t50 82.5t73 79.5zM262 -81q-43 39 -73 79.5t-50 82.5t-31.5 85.5t-17.5 88.5l9 29l77 -21q7 -38 17 -76t26 -73t39 -66.5t56 -56.5l-23 -77z" />
    <glyph glyph-name="uni249D" unicode="&#x249d;" horiz-adv-x="1062" 
d="M427 488v-121l-61 -61l-22 22v237zM717 528v-200l-22 -22l-61 61v121l61 59zM657 9h-293l83 79h167l63 -60zM344 29v238l22 22l61 -62v-123zM695 45l-61 59v123l61 62l22 -22v-203zM677 564l-63 -60h-167l-84 79h294zM668 297l-41 -40h-192l-42 40l42 41h192zM788 669
q85 -77 123 -162t49 -174l-9 -29l-77 21q-7 38 -17 76t-26 74q-16 35 -39 66.5t-56 56.5l23 76zM759 -86l-23 77q33 25 56 56.5t39 66.5t26 73t17 76l77 21l9 -29q-11 -89 -49 -174t-123 -162zM291 674l23 -76q-33 -25 -56 -56.5t-39 -66.5q-16 -36 -26 -74t-17 -76l-77 -21
l-9 29q6 45 17.5 88.5t31.5 85.5t50 82.5t73 79.5zM262 -81q-43 39 -73 79.5t-50 82.5t-31.5 85.5t-17.5 88.5l9 29l77 -21q7 -38 17 -76t26 -73t39 -66.5t56 -56.5l-23 -77z" />
    <glyph glyph-name="uni249E" unicode="&#x249e;" horiz-adv-x="1062" 
d="M425 488v-121l-61 -61l-22 22v237zM699 9h-337l83 79h211l63 -60zM342 29v238l22 22l61 -62v-123zM709 564l-63 -60h-201l-84 79h328zM788 669q85 -77 123 -162t49 -174l-9 -29l-77 21q-7 38 -17 76t-26 74q-16 35 -39 66.5t-56 56.5l23 76zM759 -86l-23 77
q33 25 56 56.5t39 66.5t26 73t17 76l77 21l9 -29q-11 -89 -49 -174t-123 -162zM291 674l23 -76q-33 -25 -56 -56.5t-39 -66.5q-16 -36 -26 -74t-17 -76l-77 -21l-9 29q6 45 17.5 88.5t31.5 85.5t50 82.5t73 79.5zM262 -81q-43 39 -73 79.5t-50 82.5t-31.5 85.5t-17.5 88.5
l9 29l77 -21q7 -38 17 -76t26 -73t39 -66.5t56 -56.5l-23 -77z" />
    <glyph glyph-name="uni249F" unicode="&#x249f;" horiz-adv-x="1062" 
d="M425 488v-121l-61 -61l-22 22v237zM719 528v-200l-22 -22l-61 61v121l61 59zM659 9h-297l83 79h171l63 -60zM342 29v238l22 22l61 -62v-123zM697 45l-61 59v123l61 62l22 -22v-203zM679 564l-63 -60h-171l-84 79h298zM788 669q85 -77 123 -162t49 -174l-9 -29l-77 21
q-7 38 -17 76t-26 74q-16 35 -39 66.5t-56 56.5l23 76zM759 -86l-23 77q33 25 56 56.5t39 66.5t26 73t17 76l77 21l9 -29q-11 -89 -49 -174t-123 -162zM291 674l23 -76q-33 -25 -56 -56.5t-39 -66.5q-16 -36 -26 -74t-17 -76l-77 -21l-9 29q6 45 17.5 88.5t31.5 85.5
t50 82.5t73 79.5zM262 -81q-43 39 -73 79.5t-50 82.5t-31.5 85.5t-17.5 88.5l9 29l77 -21q7 -38 17 -76t26 -73t39 -66.5t56 -56.5l-23 -77z" />
    <glyph glyph-name="uni24A0" unicode="&#x24a0;" horiz-adv-x="1062" 
d="M426 488v-121l-61 -61l-22 22v237zM698 9h-335l83 79h209l63 -60zM343 29v238l22 22l61 -62v-123zM718 564l-63 -60h-209l-84 79h336zM671 297l-41 -40h-196l-42 40l42 41h196zM788 669q85 -77 123 -162t49 -174l-9 -29l-77 21q-7 38 -17 76t-26 74q-16 35 -39 66.5
t-56 56.5l23 76zM759 -86l-23 77q33 25 56 56.5t39 66.5t26 73t17 76l77 21l9 -29q-11 -89 -49 -174t-123 -162zM291 674l23 -76q-33 -25 -56 -56.5t-39 -66.5q-16 -36 -26 -74t-17 -76l-77 -21l-9 29q6 45 17.5 88.5t31.5 85.5t50 82.5t73 79.5zM262 -81q-43 39 -73 79.5
t-50 82.5t-31.5 85.5t-17.5 88.5l9 29l77 -21q7 -38 17 -76t26 -73t39 -66.5t56 -56.5l-23 -77z" />
    <glyph glyph-name="uni24A1" unicode="&#x24a1;" horiz-adv-x="1062" 
d="M421 488v-121l-61 -61l-22 22v237zM338 9v258l22 22l61 -62v-143zM723 564l-63 -60h-219l-84 79h346zM676 297l-41 -40h-206l-42 40l42 41h206zM788 669q85 -77 123 -162t49 -174l-9 -29l-77 21q-7 38 -17 76t-26 74q-16 35 -39 66.5t-56 56.5l23 76zM759 -86l-23 77
q33 25 56 56.5t39 66.5t26 73t17 76l77 21l9 -29q-11 -89 -49 -174t-123 -162zM291 674l23 -76q-33 -25 -56 -56.5t-39 -66.5q-16 -36 -26 -74t-17 -76l-77 -21l-9 29q6 45 17.5 88.5t31.5 85.5t50 82.5t73 79.5zM262 -81q-43 39 -73 79.5t-50 82.5t-31.5 85.5t-17.5 88.5
l9 29l77 -21q7 -38 17 -76t26 -73t39 -66.5t56 -56.5l-23 -77z" />
    <glyph glyph-name="uni24A2" unicode="&#x24a2;" horiz-adv-x="1062" 
d="M364 547l61 -59v-121l-61 -61l-22 22v200zM659 9h-257l-21 19l64 60h171l63 -60zM342 64v203l22 22l61 -62v-123l-61 -59zM697 45l-61 59v123l61 62l22 -22v-203zM709 564l-63 -60h-201l-64 60l21 19h287zM670 297l-41 -40h-87l-42 40l42 41h87zM788 669q85 -77 123 -162
t49 -174l-9 -29l-77 21q-7 38 -17 76t-26 74q-16 35 -39 66.5t-56 56.5l23 76zM759 -86l-23 77q33 25 56 56.5t39 66.5t26 73t17 76l77 21l9 -29q-11 -89 -49 -174t-123 -162zM291 674l23 -76q-33 -25 -56 -56.5t-39 -66.5q-16 -36 -26 -74t-17 -76l-77 -21l-9 29
q6 45 17.5 88.5t31.5 85.5t50 82.5t73 79.5zM262 -81q-43 39 -73 79.5t-50 82.5t-31.5 85.5t-17.5 88.5l9 29l77 -21q7 -38 17 -76t26 -73t39 -66.5t56 -56.5l-23 -77z" />
    <glyph glyph-name="uni24A3" unicode="&#x24a3;" horiz-adv-x="1062" 
d="M354 583l61 -59v-147l-61 -61l-22 22v226zM729 564v-226l-22 -22l-61 61v147l61 59zM332 28v249l22 22l61 -62v-169l-61 -59zM707 9l-61 59v169l61 62l22 -22v-249zM680 307l-41 -40h-216l-42 40l42 41h216zM795 669q85 -77 123 -162t49 -174l-9 -29l-77 21q-7 38 -17 76
t-26 74q-16 35 -39 66.5t-56 56.5l23 76zM766 -86l-23 77q33 25 56 56.5t39 66.5t26 73t17 76l77 21l9 -29q-11 -89 -49 -174t-123 -162zM298 674l23 -76q-33 -25 -56 -56.5t-39 -66.5q-16 -36 -26 -74t-17 -76l-77 -21l-9 29q6 45 17.5 88.5t31.5 85.5t50 82.5t73 79.5z
M269 -81q-43 39 -73 79.5t-50 82.5t-31.5 85.5t-17.5 88.5l9 29l77 -21q7 -38 17 -76t26 -73t39 -66.5t56 -56.5l-23 -77z" />
    <glyph glyph-name="uni24A4" unicode="&#x24a4;" horiz-adv-x="1062" 
d="M511 583l61 -59v-155l-61 -60l-22 21v234zM489 29v241l22 21l61 -60v-162l-61 -60zM788 669q85 -77 123 -162t49 -174l-9 -29l-77 21q-7 38 -17 76t-26 74q-16 35 -39 66.5t-56 56.5l23 76zM759 -86l-23 77q33 25 56 56.5t39 66.5t26 73t17 76l77 21l9 -29
q-11 -89 -49 -174t-123 -162zM291 674l23 -76q-33 -25 -56 -56.5t-39 -66.5q-16 -36 -26 -74t-17 -76l-77 -21l-9 29q6 45 17.5 88.5t31.5 85.5t50 82.5t73 79.5zM262 -81q-43 39 -73 79.5t-50 82.5t-31.5 85.5t-17.5 88.5l9 29l77 -21q7 -38 17 -76t26 -73t39 -66.5
t56 -56.5l-23 -77z" />
    <glyph glyph-name="uni24A5" unicode="&#x24a5;" horiz-adv-x="1062" 
d="M674 565v-237l-22 -22l-61 61v158l61 59zM427 28l63 60h81l64 -60l-21 -19h-167zM652 45l-61 59v123l61 62l22 -22v-203zM387 64v133l22 22l61 -62v-53l-61 -59zM808 669q85 -77 123 -162t49 -174l-9 -29l-77 21q-7 38 -17 76t-26 74q-16 35 -39 66.5t-56 56.5l23 76z
M779 -86l-23 77q33 25 56 56.5t39 66.5t26 73t17 76l77 21l9 -29q-11 -89 -49 -174t-123 -162zM311 674l23 -76q-33 -25 -56 -56.5t-39 -66.5q-16 -36 -26 -74t-17 -76l-77 -21l-9 29q6 45 17.5 88.5t31.5 85.5t50 82.5t73 79.5zM282 -81q-43 39 -73 79.5t-50 82.5
t-31.5 85.5t-17.5 88.5l9 29l77 -21q7 -38 17 -76t26 -73t39 -66.5t56 -56.5l-23 -77z" />
    <glyph glyph-name="uni24A6" unicode="&#x24a6;" horiz-adv-x="1062" 
d="M379 583l61 -59v-157l-61 -61l-22 22v236zM357 28v239l22 22l61 -62v-159l-61 -59zM682 9l-61 59v159l61 62l22 -22v-239zM655 297l-41 -40h-166l-42 40l42 41h166zM696 553l-127 -183h-95l124 193l79 20zM788 669q85 -77 123 -162t49 -174l-9 -29l-77 21q-7 38 -17 76
t-26 74q-16 35 -39 66.5t-56 56.5l23 76zM759 -86l-23 77q33 25 56 56.5t39 66.5t26 73t17 76l77 21l9 -29q-11 -89 -49 -174t-123 -162zM291 674l23 -76q-33 -25 -56 -56.5t-39 -66.5q-16 -36 -26 -74t-17 -76l-77 -21l-9 29q6 45 17.5 88.5t31.5 85.5t50 82.5t73 79.5z
M262 -81q-43 39 -73 79.5t-50 82.5t-31.5 85.5t-17.5 88.5l9 29l77 -21q7 -38 17 -76t26 -73t39 -66.5t56 -56.5l-23 -77z" />
    <glyph glyph-name="uni24A7" unicode="&#x24a7;" horiz-adv-x="1062" 
d="M389 583l61 -59v-157l-61 -61l-22 22v236zM674 9h-247l-21 19l64 60h161l63 -60zM367 64v203l22 22l61 -62v-123l-61 -59zM788 669q85 -77 123 -162t49 -174l-9 -29l-77 21q-7 38 -17 76t-26 74q-16 35 -39 66.5t-56 56.5l23 76zM759 -86l-23 77q33 25 56 56.5t39 66.5
t26 73t17 76l77 21l9 -29q-11 -89 -49 -174t-123 -162zM291 674l23 -76q-33 -25 -56 -56.5t-39 -66.5q-16 -36 -26 -74t-17 -76l-77 -21l-9 29q6 45 17.5 88.5t31.5 85.5t50 82.5t73 79.5zM262 -81q-43 39 -73 79.5t-50 82.5t-31.5 85.5t-17.5 88.5l9 29l77 -21
q7 -38 17 -76t26 -73t39 -66.5t56 -56.5l-23 -77z" />
    </font>
</defs>
</svg>
